<?xml version="1.0" encoding="UTF-8"?><svg id="_이어_2" xmlns="http://www.w3.org/2000/svg" viewBox="0 0 2891.29 1154.87"><g id="_依x5F_1"><path d="M2891.09,895.97c-1.28-48.58-8.6-87.26-20.38-118.38-18.81-49.71-49.02-80.18-84.22-101.03-5.38-3.19-10.87-6.15-16.46-8.92-2.31-1.14-4.64-2.26-6.98-3.35-10.35-4.8-21-9-31.78-12.82-5.6-1.98-11.24-3.87-16.89-5.68-2.17-.69-4.34-1.37-6.52-2.04-18.77-5.84-37.66-10.99-55.96-16.54-6.67-2.02-13.26-4.1-19.75-6.28-6.24-2.1-12.38-4.29-18.39-6.62-10.72-4.18-21.02-8.81-30.7-14.16-.63-.35-1.27-.7-1.9-1.06-2.68-1.51-5.31-3.09-7.88-4.73-15.92-10.1-29.85-22.61-40.93-38.86-.59-.85-1.18-1.73-1.73-2.61-1.51-2.32-2.96-4.71-4.34-7.17-8.71-15.56-15.11-34.18-18.56-56.79-1.38-9.06-2.3-18.76-2.7-29.15-6.2-160.09-169.77-523.99-621.46-449.96-20.09,3.29-40.77,7.46-62,12.53-11.63,2.78-23.45,5.84-35.43,9.19-367.13,102.49-275.49,270.84-794.44,187.07-19.76-3.19-40.41-6.73-62-10.68-6.96-1.27-14.02-2.57-21.18-3.92-133.94-25.26-503.08-32.61-769.19,235.07-6.49,6.52-12.7,13.11-18.65,19.78-8.89,9.96-17.21,20.07-24.98,30.33-.58,.76-1.15,1.52-1.72,2.29-10.26,13.71-19.54,27.68-27.91,41.84h0c-3.32,5.62-6.5,11.25-9.52,16.92-2.65,4.96-5.21,9.95-7.64,14.95-9.3,19.03-17.08,38.35-23.52,57.88-1.43,4.36-2.8,8.74-4.11,13.11-.95,3.17-1.86,6.35-2.74,9.53-1.14,4.13-2.22,8.26-3.25,12.41-.69,2.85-1.37,5.71-2.02,8.58-.43,1.86-.84,3.7-1.22,5.55-1.19,5.39-2.26,10.78-3.24,16.19-1.94,10.63-3.54,21.29-4.81,31.96-1.9,15.9-3.08,31.82-3.62,47.7-.24,6.91-.36,13.82-.36,20.72,0,122.93,36.6,242.45,75.18,334.31,3.3,7.86,6.61,15.51,9.93,22.95,.55,1.25,1.11,2.48,1.65,3.72,.68,1.5,1.35,3,2.03,4.48h5.1c.02,.07,.06,.13,.08,.2l.17,.4v-.6H2859.1c.62-2.75,1.22-5.48,1.82-8.19,23.03-104.33,31.87-185.87,30.17-250.1Z" fill="#ebf3fa"/><g><path d="M2870.71,777.59c-18.81-49.71-49.02-80.18-84.22-101.03-5.38-3.19-10.87-6.15-16.46-8.92-2.31-1.14-4.64-2.26-6.98-3.35-10.35-4.8-21-9-31.78-12.82l-23.41-7.72c-18.77-5.84-37.66-10.99-55.96-16.54-6.67-2.02-13.26-4.1-19.75-6.28-6.24-2.1-12.38-4.29-18.39-6.62-10.72-4.18-21.02-8.81-30.7-14.16-.63-.35-1.27-.7-1.9-1.06-2.68-1.51-5.31-3.09-7.88-4.73-15.92-10.1-29.85-22.61-40.93-38.86-.59-.85-1.18-1.73-1.73-2.61-1.51-2.32-2.96-4.71-4.34-7.17-8.71-15.56-15.11-34.18-18.56-56.79h-72.96v101.94h-51.73v25.68h-55.78v-44.23h-100.34v-120.14h-15.7v-11.97h-2.25v11.97h-13.01v-.02h-65.09v-11.95h-2.25v11.95h-16.95v60.42l-84.29-.33v37.29h-71.47v-230.54h-211.72v246.97h-64.66v-133.54h-211.72v721.84h1388.76c.4-1.94,.81-3.87,1.21-5.78,.17-.81,.35-1.62,.51-2.41,1.63-7.76,3.19-15.41,4.67-22.95,18.02-90.88,26.74-165.54,28.13-227.15-1.28-48.58-8.6-87.26-20.38-118.38Z" fill="#dfebfa"/><polygon points="1468 1154.27 1468 1146.07 1468 589.74 1467.81 589.74 1364.98 589.74 1361.67 589.74 1361.67 1146.07 1361.67 1154.27 1372.95 1154.27 1467.81 1154.27 1468 1154.27" fill="#dfebfa"/><rect x="2460.56" y="441.38" width="3.9" height="48.42" fill="#dfebfa"/><rect x="1758.25" y="301.74" width="2.53" height="17.27" fill="#dfebfa"/><rect x="1811.85" y="301.74" width="2.53" height="17.27" fill="#dfebfa"/><rect x="1934.71" y="301.74" width="2.53" height="17.27" fill="#dfebfa"/><rect x="1886.68" y="301.74" width="2.53" height="17.27" fill="#dfebfa"/></g><g><path d="M1372.83,1146.07l-7.85-556.33-1.19-84.54h-55.89v-111.02c-.87-.44-1.72-.89-2.59-1.33h-16.67v-.06h-96.93v.06h-.08v16.64h.08v11.45h-.08v16.63h.08v11.48h-.08v16.64h.08v.07l-10.27-.07v-87.06h-108.77v11.03h-.06v16.63h.06v14.64h-.06v16.63h.06v11.48h-.06v16.64h.06v10.63h-.06v16.64h.06v10.63h-.06v16.64h.06v10.01h-.06v10.57h.06v1.15h-122.61v95.24h-45.8v23.98h-49.39v-41.32h-88.84v-112.24h-13.9v-11.18h-1.99v11.18h-11.53v-.02h-57.62v-11.16h-2v11.16h-15v56.45l-74.63-.31v34.84h-63.27v-215.38h-187.45v230.73h-57.25v-124.77H93.97v665.27l.17,.4v-.6H1372.95l-.12-8.19Z" fill="#dfebfa"/><path d="M94.15,636.18v518.69l-.17-.4c-.02-.07-.06-.13-.08-.2-1.17-2.7-2.32-5.44-3.49-8.19C49.04,1047.85,4.73,910.99,.36,768.1c.9-26.54,3.6-53.17,8.44-79.66,3.19-17.51,7.32-34.95,12.48-52.26H94.15Z" fill="#dfebfa"/><rect x="386.9" y="383.22" width="139.22" height="36.51" fill="#eef6ff"/><rect x="386.9" y="439.42" width="139.22" height="36.51" fill="#eef6ff"/><rect x="386.9" y="496.79" width="139.22" height="36.51" fill="#eef6ff"/><rect x="386.9" y="555.07" width="139.22" height="36.51" fill="#eef6ff"/><rect x="386.9" y="611.3" width="139.22" height="36.51" fill="#eef6ff"/><g><rect x="1072.71" y="378.65" width="69.61" height="22.17" fill="#eef6ff"/><rect x="1072.71" y="412.78" width="69.61" height="22.17" fill="#eef6ff"/><rect x="1072.71" y="447.62" width="69.61" height="22.17" fill="#eef6ff"/><rect x="1072.71" y="483.02" width="69.61" height="22.17" fill="#eef6ff"/><rect x="1072.71" y="517.17" width="69.61" height="22.17" fill="#eef6ff"/></g><g><rect x="1072.71" y="554.76" width="69.61" height="22.17" fill="#eef6ff"/><rect x="1072.71" y="588.88" width="69.61" height="22.17" fill="#eef6ff"/><rect x="1072.71" y="623.72" width="69.61" height="22.17" fill="#eef6ff"/><rect x="1072.71" y="659.12" width="69.61" height="22.17" fill="#eef6ff"/><rect x="1072.71" y="693.27" width="69.61" height="22.17" fill="#eef6ff"/></g><g><rect x="1191.86" y="393.19" width="69.61" height="22.17" fill="#eef6ff"/><rect x="1191.86" y="427.32" width="69.61" height="22.17" fill="#eef6ff"/><rect x="1191.86" y="462.16" width="69.61" height="22.17" fill="#eef6ff"/><rect x="1191.86" y="497.56" width="69.61" height="22.17" fill="#eef6ff"/><rect x="1191.86" y="531.71" width="69.61" height="22.17" fill="#eef6ff"/></g><rect x="972.91" y="497.56" width="3.45" height="45.24" fill="#dfebfa"/><rect x="1031.11" y="458.71" width="5.37" height="87.61" fill="#dfebfa"/><rect x="351.12" y="367.09" width="2.24" height="16.13" fill="#dfebfa"/><rect x="398.57" y="367.09" width="2.24" height="16.13" fill="#dfebfa"/><rect x="507.35" y="367.09" width="2.24" height="16.13" fill="#dfebfa"/><rect x="1083.48" y="366.2" width="1.73" height="12.45" fill="#dfebfa"/><rect x="1165.14" y="366.2" width="1.73" height="12.45" fill="#dfebfa"/><rect x="464.82" y="367.09" width="2.24" height="16.13" fill="#dfebfa"/><g><rect x="1745.25" y="340.52" width="138.24" height="28.15" fill="#eef6ff"/><rect x="1745.25" y="383.85" width="138.24" height="28.15" fill="#eef6ff"/><rect x="1745.25" y="428.08" width="138.24" height="28.15" fill="#eef6ff"/><rect x="1745.25" y="473.02" width="138.24" height="28.15" fill="#eef6ff"/><rect x="1745.25" y="516.38" width="138.24" height="28.15" fill="#eef6ff"/></g><g opacity=".4"><rect x="1534.92" y="445.48" width="144.19" height="32.86" fill="#eef6ff"/><rect x="1534.92" y="496.06" width="144.19" height="32.86" fill="#eef6ff"/><rect x="1534.92" y="547.69" width="144.19" height="32.86" fill="#eef6ff"/><rect x="1534.92" y="600.14" width="144.19" height="32.86" fill="#eef6ff"/><rect x="1534.92" y="650.75" width="144.19" height="32.86" fill="#eef6ff"/></g></g><path d="M2862.96,1123.13c-1.49,7.54-3.05,15.19-4.67,22.95-.16,.8-.33,1.6-.51,2.41h-8.1l-909.8,1.3H86.76c-.54-1.24-1.1-2.47-1.65-3.72-3.31-7.43-6.62-15.09-9.93-22.95H2862.96Z" fill="#afcdfb"/><polygon points="836.96 194.97 836.96 1132.42 805.95 1132.42 805.95 193.18 836.96 194.97" fill="#d4e4f8"/><polygon points="1962.54 1.04 1962.54 1132.42 1931.54 1132.42 1931.54 3.48 1962.54 1.04" fill="#d4e4f8"/><g><g><path d="M18.54,645.71c.88-3.19,1.79-6.36,2.74-9.53,1.3-4.38,2.68-8.75,4.11-13.11,4.63,.23,9.38,.98,13.52,2.67,0,0-12.59,10.76-20.36,19.98Z" fill="#aec3ff"/><path d="M136.48,694.59c-9.39,21.47-24.2,24.06-29.49,21.62-5.3-2.43-33.26-25.55-35.48-21.28-2.23,4.26,12.14,25.5,25.45,30.75,0,0-35.09,19.55-49.32,5.68-14.24-13.87-11.33-27.25-20.29-35.66-8.94-8.41-17.99-11.46-15.29-5.05,2.71,6.42,20.26,17.68,22.69,30.44,2.42,12.75,5.42,21.81-11.25,13.24-6.08-3.13-13.16-8.1-19.52-13.91,1.27-10.67,2.87-21.33,4.81-31.96,.98-5.41,2.05-10.8,3.24-16.19,.38-1.85,.8-3.69,1.22-5.55,.65-2.86,1.33-5.73,2.02-8.58,8.15-1.85,30.3-32.44,30.3-32.44,0,0,40.23,9.4,50.73,19.66,0,0-42.51,15.99-36.03,19.98,6.46,3.99,51.46-10.61,51.46-10.61,0,0,34.16,18.43,24.75,39.89Z" fill="#aec3ff"/><path d="M118.42,689.15c-55.53-16.76-87.73-19.39-106.38-16.91,.38-1.85,.8-3.69,1.22-5.55,40.11-2.04,102.99,21.64,105.16,22.46Z" fill="#aec3ff"/></g><g><path d="M297.66,566.53c-13.9,33.92-36.95,38.55-45.3,34.93-8.37-3.62-52.97-38.71-56.28-31.96-3.31,6.75,19.94,39.4,40.95,47.14,0,0-54.13,31.89-76.9,10.72-22.78-21.16-18.74-42.2-33.07-55.02-14.31-12.81-28.57-17.23-24.1-7.31,4.48,9.91,32.32,26.88,36.61,46.73,4.28,19.85,9.31,33.91-17.09,21.11-26.41-12.79-65.12-47.08-59.88-70.91,.23-1.03,.45-2.02,.66-2.97v-.02l4.59-20.83s-.76-1.78-1.79-4.81h0c8.37-14.17,17.65-28.14,27.91-41.85,.57-.76,1.14-1.52,1.72-2.29,7.77-10.26,16.09-20.37,24.98-30.33,7.43,.15,15.12,1.14,21.79,3.67,0,0-47.44,42.57-38.98,50.91,8.47,8.34,49.45-51.25,49.45-51.25,0,0,63.26,13.17,80.04,28.81,0,0-65.86,26.62-55.6,32.61,10.26,6,80.08-18.5,80.08-18.5,0,0,54.12,27.52,40.21,61.43Z" fill="#aec3ff"/><path d="M269.14,558.69c-175.98-48.51-202.03-11.08-205.87,.29v.02c-.62,1.84-.67,2.97-.67,2.97-2.93-.37-7.99,1.04-13.7,3.22,2.44-5,4.99-9.98,7.64-14.95,7.56-6.88,11.31-12.1,11.31-12.1,47.23-33.11,195.99,18.67,201.29,20.54Z" fill="#aec3ff"/></g></g></g></svg>