<?xml version="1.0" encoding="UTF-8"?><svg id="_이어_2" xmlns="http://www.w3.org/2000/svg" viewBox="0 0 272.13 546.67"><g id="_依x5F_1"><g><path d="M133.55,362.35c-5.6,6.1-14,12.39-.65,26.34,17.12,17.88,43.6,94.93,43.6,94.93-.91,2.94,.02,7.03-2.07,8.23-3.39,1.94-12.03-3.99-12.03-3.99,0,0-78.64-81.46-85.02-99.78-4.71-13.52,19.37-79.04,33.78-113.37,5.1-12.16,9-20.41,9.96-21.05,.15-.1,.3-.19,.45-.28,8.47-5.37,16.45-4.69,23.57-.57,1.52,.88,3,1.92,4.44,3.09,17.59,14.27,28.9,48.13,27.72,55.17-.81,4.9-9.4,15.27-18.81,25.49-1.96,2.12-3.95,4.23-5.91,6.29-8.56,8.97-16.63,16.87-19.04,19.48Z" fill="#f99746"/><path d="M158.5,336.57c-1.96,2.12-3.95,4.23-5.91,6.29l-41.42-68.14c5.1-12.16,9-20.41,9.96-21.05,.15-.1,.3-.19,.45-.28l23.57-.57,4.26-.1,.18,3.19,8.91,80.66Z" fill="#ed7d2b"/><path d="M135.06,99.54s8.81,21.53,6.53,34.35c-2.29,12.82-32.62,76.66-43.67,87.59-11.06,10.93-84.36-35.55-84.36-35.55l7.21-6.89s57.99,14.76,61.05,10.13c3.07-4.63,17.83-95.61,53.24-89.62Z" fill="#ffb27d"/><path d="M133.32,268.33s15.04,75.21,53,128.12c36.68,51.14,55.76,129.5,55.76,129.5,0,0,2.43,1.9,7.23-.13,4.79-2.04,8,.43,8.97-1.89,0,0-6.93-123.7-25.96-150.79-10.75-15.3-16.49-71.48-16.12-86.76,.37-15.29-6.32-34.03-6.32-34.03l-76.54,15.98Z" fill="#f99746"/><g><path d="M257.91,546.15l-8.87,.06c-2.98-.45-5.18-1.29-8.23-1.67-4.63-.58-6.75,1.34-7.17,1.78-.06,.06-.08,.09-.08,.09l-37.7,.26c-.96-1.35-.07-4.49,.81-6.81,.59-1.57,1.89-2.77,3.51-3.25,3.99-1.19,11.86-2.27,19.03-8.86,4.04-3.7,19.51-13.63,19.51-13.63l.08-.02c.34,0,1.97,.49,9.08,6.41,3.68,3.05,9.86-4.42,9.86-4.42,0,0,1.18,.96,2.06,2.76,.71,1.42,1.24,3.37,.85,5.78-.54,3.4,1.32,9.7,2.8,13.96,.9,2.58,1.65,4.41,1.65,4.41,0,0,.44,2.13-7.19,3.14Z" fill="#233862"/><path d="M259.8,518.86c-2.11,1.51-6.56,4.48-9.52,4.89-4,.55-11.56-9.62-11.56-9.62l.08-.02c.34,0,1.97,.49,9.08,6.41,3.68,3.05,9.86-4.42,9.86-4.42,0,0,1.18,.96,2.06,2.76Z" fill="#233862"/><path d="M257.91,546.15l-8.87,.06c-2.98-.45-5.18-1.29-8.23-1.67-4.63-.58-6.75,1.34-7.17,1.78-.06,.06-.08,.09-.08,.09l-37.7,.26c-.96-1.35-.07-4.49,.81-6.81,1.14-1.03,1.5,4.41,2.14,5.27,.64,.86,30.75,.1,32.48-1.18,1.73-1.28,6.93-3.53,14.22-1.84,6.34,1.47,15.64-2.47,17.94-3.52,.9,2.58,1.65,4.41,1.65,4.41,0,0,.44,2.13-7.19,3.14Z" fill="#233862"/></g><path d="M212.16,205.05c.03-42.17-7.69-103.03-18.24-107.7-8.96-3.97-28.51-9.65-48.65-9.34-15.9,.24-49.8,7.68-53.25,33.95-2.18,16.63-3.06,30.34-3.06,30.34,0,0,3.64,10.62,13.7,13.46,1.25,4.7,1.82,9.36,3.32,13.3,16.69,43.96,8.49,87.95,8.49,87.95,15.37,12.78,91.83,5.29,99.53,.27,12.55-8.18-1.87-20.06-1.84-62.23Z" fill="#2a4e96"/><g><path d="M193.84,494.18l-6.37,6.18c-2.46,1.74-4.63,2.65-7.1,4.49-3.74,2.79-3.95,5.64-3.95,6.25,0,.08,0,.12,0,.12l-27.04,26.26c-1.62-.31-3.16-3.2-4.12-5.47-.66-1.54-.55-3.31,.28-4.77,2.06-3.62,7-9.84,7.62-19.56,.36-5.46,4.67-23.34,4.67-23.34l.05-.07c.25-.23,1.76-1.01,11-1.65,4.77-.34,4.06-10.01,4.06-10.01,0,0,1.51-.12,3.4,.56,1.5,.53,3.22,1.58,4.61,3.59,1.96,2.83,7.66,6.09,11.68,8.15,2.43,1.24,4.24,2.04,4.24,2.04,0,0,1.79,1.23-3.02,7.24Z" fill="#233862"/><path d="M176.33,473.16c-.48,2.55-1.64,7.77-3.5,10.12-2.51,3.17-15,1.05-15,1.05l.05-.07c.25-.23,1.76-1.01,11-1.65,4.77-.34,4.06-10.01,4.06-10.01,0,0,1.51-.12,3.4,.56Z" fill="#233862"/><path d="M193.84,494.18l-6.37,6.18c-2.46,1.74-4.63,2.65-7.1,4.49-3.74,2.79-3.95,5.64-3.95,6.25,0,.08,0,.12,0,.12l-27.04,26.26c-1.62-.31-3.16-3.2-4.12-5.47,.11-1.53,4.13,2.15,5.19,2.33,1.06,.18,22.28-21.2,22.65-23.32,.37-2.12,2.57-7.34,9-11.16,5.6-3.33,9.59-12.61,10.53-14.96,2.43,1.24,4.24,2.04,4.24,2.04,0,0,1.79,1.23-3.02,7.24Z" fill="#233862"/></g><path d="M172.01,102.92s23.27-.25,34.34,6.6c11.07,6.85,59.24,58.58,65.32,72.88,6.08,14.31-49.82,55.1-49.82,55.1l-7.88-12.55s24.9-34.94,21.73-39.5c-3.17-4.56-82.3-51.82-63.69-82.53Z" fill="#ffb27d"/><path d="M216.9,223.02l9.28,7.15s-8.17,17.63-12.62,19.29l-.46,.09c-4.79,.96-16.69-6.82-18.68-14.85-.17-.83-.13-1.6,.11-2.32,1.84-4.86,12.99-7.62,18.82-8.75,2.13-.41,3.55-.61,3.55-.61Z" fill="#ffb27d"/><path d="M27.16,180.59l-4.65,10.76s-19.1-3.58-21.8-7.5l-.2-.42c-2.1-4.41,2.51-17.86,9.81-21.76,.76-.36,1.52-.52,2.28-.46,5.16,.59,10.58,10.72,13.11,16.1,.92,1.96,1.46,3.29,1.46,3.29Z" fill="#ffb27d"/><path d="M163.2,89.18s21.58,.97,37.06,10.59c7.13,4.43,34.54,30.39,34.54,30.39,0,0-3.04,27.13-35.68,34.48-33.22,7.49-38.56-48.04-38.56-48.04l2.63-27.42Z" fill="#2a4e96"/><path d="M157.29,89.57c1.04,1.52,1.07,3.51,.09,5.07-2.89,4.59-11.01,12.54-32.13,11.08-7.24-.5-8.9-5.97-4.32-11.6,1.12-1.37,.74-9.25,.62-12.41-.42-7.31-.15-11.41-.15-11.41l14.97-10.25,14.2-9.81c-2.34,22.95,3.73,34.95,6.72,39.33Z" fill="#ffb27d"/><path d="M150.05,61.77s-10.45,16.37-28.5,19.94c-.42-7.31-.15-11.41-.15-11.41l14.97-10.25,13.68,1.71Z" fill="#ed985f"/><path d="M114.95,69.38s34.8,8.09,39.53-13.32c4.74-21.41,12.42-34.78-9.6-40.85-22.02-6.07-28.15,1.16-31.5,7.93-3.35,6.76-7.36,43.59,1.57,46.24Z" fill="#ffb27d"/><path d="M170.09,14.28c.34-.35,1.1-.59,2.74-.57,0,0-1.26-.91-3-1.07-.19-2.3-1.14-6.42-4.99-7.66,0,0,2.03,1.26,2.15,3.71C162.75,3.72,153.24-.32,126.14,.02c-35.72,.45-25.51,23.97-21.09,26.99,4.42,3.02,16.49-3.65,25.02-2.4,8.53,1.25,9.33,13.74,12.13,15.63,2.79,1.89,1.85-1.19,5.9-2.71,4.05-1.52,3.99,5.03,2.58,9.19-1.42,4.16,3.62,10.11,3.62,10.11l5.85-5.52c5.85-5.52,12.65-30.09,10.52-35.57-.19-.48-.37-.97-.57-1.47Z" fill="#2c3a64"/><path d="M111.95,55.84s.94,3.17,4.47,3.58c3.53,.41,5.83-2.1,5.83-2.1,0,0-5.78-2.69-10.31-1.48Z" fill="#fff"/></g></g></svg>