<?xml version="1.0" encoding="UTF-8"?><svg id="_이어_2" xmlns="http://www.w3.org/2000/svg" viewBox="0 0 281.36 643.72"><g id="_依x5F_1"><g><path d="M119.8,118.36s-34.01,1.99-37.71,16.04c-5.9,22.41-11.41,74.62-11.41,74.62l-34.32-42.55-12.35,5.95s29.28,78.7,53.99,75.04c24.71-3.66,41.79-129.09,41.79-129.09Z" fill="#f4a671"/><path d="M154.74,13.27s4.44-17.74,30.5-12.2c0,0-12.48-1.57-15.9,3.23,0,0,9.89-4.53,16.08-.74,6.19,3.79,7.21,16.54,6.28,20.42-.92,3.88-7.76,15.43-12.29,15.43s-9.89-3.97-9.89-3.97l-14.79-22.18Z" fill="#2c3a64"/><path d="M107.88,31.57s32.99-39.65,50.46-14.28c0,0,13.03,5.41,17.74,27.59,4.81,22.63-10.24,39.83-18.02,35.58-4.99-2.73-8.77,6.01-8.77,6.01L107.88,31.57Z" fill="#2c3a64"/><path d="M118.25,118.54c-.13,.06,12.13,6.42,21.35,3.9,8.67-2.36,19.66-5.27,19.54-5.3-3.67-.73-10.06-14.11-9.98-35.8l-1.66,.33-27.91,5.53s.64,8.78,.65,17.06c.02,6.95-.4,13.54-1.99,14.28Z" fill="#ffb27d"/><path d="M119.59,87.2s.64,8.78,.65,17.06c15.62-.44,23.88-14.69,27.26-22.59l-27.91,5.53Z" fill="#f4a671"/><path d="M150.38,78.64s8.19-12.93,10.15-23.99c1.4-7.9-2.62-37.16-32.03-32.95,0,0-8.54,.84-16.57,6.26-6.39,4.31-15.6,13.62-5.3,39.16l2.68,8.63,41.07,2.89Z" fill="#2c3a64"/><path d="M114.37,95.04s36.95,.61,36.98-22.41c.03-23.02,4.81-38.44-18.78-39.81-23.59-1.36-28.19,7.42-30.06,15.1-1.88,7.68,2.25,46.37,11.87,47.12Z" fill="#ffb27d"/><path d="M115.74,32.26s10.12,27.01,25.65,31c15.53,3.99,22.26-.17,22.26-.17,0,0-11.91-9.46-14.38-25.98,0,0-25.9-17.71-33.53-4.85Z" fill="#2c3a64"/><path d="M118.25,34.45s-7.56,6.03-9.4,11.89c-1.84,5.86-2.67,17.93-6.19,17.52,0,0-7.62-18.36,.94-28.74,9.08-11.01,14.64-.67,14.64-.67Z" fill="#2c3a64"/><path d="M89.7,284.39c18.79-60.07-1.8-73.13,.16-103.19,1.96-30.06,25.23-62.38,25.23-62.38,0,0,28.19-2.85,42.98-1.85,13.15,.89,35.68,41.82,30.07,79.61-.69,4.69-1.82,9.32-3.45,13.83-6.93,19.13-10.49,26.93-10.32,34.16,.22,9.14,6.42,17.36,19.38,46.42,7.16,16.06-123.22,54.75-104.04-6.6Z" fill="#ffb27d"/><path d="M138.35,419.53c-5.23,29.62-9.07,51.83-9.07,51.83,9.79,40.15-4.93,91.65-17.07,124.05-2.77,7.4-5.41,13.81-7.59,18.86,0,0,0,.01-.02,.04,0,0-.02,.02-.02,.05-.02,.04-.03,.08-.05,.13h0c-.05,.15-.12,.3-.18,.44,0,.02,0,.03-.02,.05-3.19,7.34-5.32,11.61-5.32,11.61l-17.89,.8s1.37-7.7,2.9-20.68c0-.05,.02-.09,.02-.13,.49-4.19,1-8.93,1.48-14.13,2.72-29.47,4.61-73.89-1.75-118.62-15.53-109.24,4.99-182.44,4.99-182.44l65.7,21.2,3.06,.98c-5.85,30.95-13.35,73.05-19.16,105.98Z" fill="#ffb27d"/><path d="M157.16,116.42s31.58,3.23,35.28,11.37c11.93,26.25,23.84,114.79,27.17,122.55,3.33,7.76,13.49,50.46,22.18,71.53l-11.09,3.33s-36.6-60.72-39.93-76.52c-3.33-15.8-21.57-80.08-21.57-80.08l-12.05-52.18Z" fill="#ffb27d"/><path d="M182.07,188.97l.43,27.43s-24.08-7-49.8-9.13c-6.27-.52-12.63-.75-18.77-.52-7.6,.28-14.84,1.27-21.12,3.29,0,0-4.07-17.75-8.14-38.82-.14-.76-.26-1.51-.35-2.26-2.35-20.05,15.46-36.43,7.97-44.45,0,0,6.52-3.57,22.79-5.7,0,0-12.48,22-11.37,27.54,1.11,5.54,49.35,.55,52.68-2.5,3.33-3.05,8.6-26.41,8.6-26.41,0,0,17.08,1.87,25.44,7.95,0,0-5.64,7.05-9.19,15.51-1.04,2.48-1.9,5.09-2.38,7.66-1.29,6.9-4.71,20.06,3.05,30.4l.16,9.99Z" fill="#fff"/><path d="M150.86,348.48c-5.84,30.95-6.7,38.11-12.5,71.05-36.05-62.93-30.75-79.36-30.75-79.36l43.25,8.32Z" fill="#f4a671"/><path d="M264.01,605.96c-.04,1.16-.09,2.28-.14,3.36-.52,10.55-1.42,16.98-1.42,16.98l-17.25-5.99s-.81-2.49-2.24-6.78c-.58-1.75-1.27-3.79-2.05-6.1l-.02-.05c-1.41-4.18-3.13-9.19-5.07-14.75-11.74-33.67-31.73-87.57-43.37-99.98-33.29-35.47-82.29-190.16-82.29-190.16l66.21-21.48c9.82,9.51,17.8,27.33,24.22,48.3,16.22,52.92,22.52,125.96,23.37,136.53v.03c.06,.81,.5,1.52,1.05,2.13,30.98,34.47,38.24,84.69,39.12,119.27,.17,6.93,.09,13.25-.12,18.67Z" fill="#ffb27d"/><path d="M135.67,354.06l-11.5-1.41c-5.56-1.85-10.99-3.1-16.03-3.94-16.28-2.72-28.64-1.15-28.64-1.15,4.99-53.37,12.22-70.4,12.22-70.4l24.01,42.03,19.93,34.87Z" fill="#213f7a"/><path d="M135.67,354.06l-11.5-1.41c-5.56-1.85-10.99-3.1-16.03-3.94-.73-10.25,3.4-21.23,7.6-29.52l19.93,34.87Z" fill="#233862"/><path d="M91.73,277.16s15.87,11.99,31.95,10.88c16.08-1.11,63.03-11.83,63.03-11.83,0,0,8.7,12.63,14.79,37.71,6.29,25.88,6.29,45.1,6.29,45.1,0,0-55.08-7.21-77.26,4.44l-38.79-86.3Z" fill="#213f7a"/><path d="M116.85,35.36s7.21,28.28,26.8,37.34c0,0-19.59-17.38-21.26-36.04-1.66-18.67-5.54-1.29-5.54-1.29Z" fill="#2c3a64"/><path d="M280.72,328.94c-2.75-10.24-13.59-16.22-24.23-13.37-2.72,.73-5.16,1.97-7.25,3.58l-4.19,3.04,.51,.65c-3.5,4.58-4.94,10.56-3.36,16.43,2.75,10.24,13.59,16.22,24.23,13.37,.67-.18,1.32-.39,1.95-.63l.49,.62,4.75-3.52h0c6.11-4.68,9.16-12.53,7.11-20.18Z" fill="#ef7e29"/><path d="M238.23,342.16c-2.75-10.24,3.65-20.85,14.29-23.7,10.64-2.85,21.48,3.13,24.23,13.37,2.75,10.24-3.65,20.85-14.29,23.7-10.64,2.85-21.48-3.13-24.23-13.37Z" fill="#f99746"/><path d="M261.2,336.83c-.2-2.29-2.98-4.55-5.97-3.44-1.21,.45-33.27,20.51-33.27,20.51l6.86,8.49,31.11-22.21s1.47-1.03,1.27-3.35Z" fill="#ef7e29"/><path d="M.64,140.78c2.75-10.24,13.59-16.22,24.23-13.37,2.72,.73,5.16,1.97,7.25,3.58l4.19,3.04-.51,.65c3.5,4.58,4.94,10.56,3.36,16.43-2.75,10.24-13.59,16.22-24.23,13.37-.67-.18-1.32-.39-1.95-.63l-.49,.62-4.75-3.52h0c-6.11-4.68-9.16-12.53-7.11-20.18Z" fill="#ef7e29"/><path d="M43.12,154c2.75-10.24-3.65-20.85-14.29-23.7-10.64-2.85-21.48,3.13-24.23,13.37s3.65,20.85,14.29,23.7c10.64,2.85,21.48-3.13,24.23-13.37Z" fill="#f99746"/><path d="M20.16,148.67c.2-2.29,2.98-4.55,5.97-3.44,1.21,.45,33.27,20.51,33.27,20.51l-6.86,8.49-31.11-22.21s-1.47-1.03-1.27-3.35Z" fill="#ef7e29"/><path d="M24.09,172.48s-11.44-14.18-3.2-21.51c8.24-7.32,18.91-5.19,19.22-.91s-3.66,16.47-3.66,16.47l-12.35,5.95Z" fill="#f4a671"/><path d="M241.01,320.02s3.37,7.95,6.89,10.17c3.51,2.22,8.5,7.58,7.58,11.83-.92,4.25-1.85,10.91-6.29,10.91s-14.79-19.59-16.08-23.29c-1.29-3.7-2.4-4.44-2.4-4.44l10.3-5.18Z" fill="#ffb27d"/><path d="M256.25,347.31c-2.99-11.14-14.79-17.65-26.36-14.54-2.96,.79-5.62,2.14-7.88,3.89l-4.56,3.31,.56,.71c-3.81,4.98-5.37,11.49-3.66,17.87,2.99,11.14,14.79,17.65,26.36,14.55,.72-.19,1.43-.42,2.12-.68l.53,.68,5.17-3.83h0c6.64-5.09,9.96-13.63,7.73-21.95Z" fill="#ef7e29"/><path d="M210.03,361.69c-2.99-11.14,3.97-22.68,15.54-25.78,11.57-3.1,23.37,3.41,26.36,14.55,2.99,11.14-3.97,22.68-15.54,25.78-11.57,3.1-23.37-3.41-26.36-14.54Z" fill="#f99746"/><path d="M237.85,353.38c-.97-3.62-4.8-5.73-8.56-4.72-.96,.26-1.82,.7-2.56,1.26l-1.48,1.07,.18,.23c-1.24,1.62-1.74,3.73-1.19,5.8,.97,3.62,4.8,5.73,8.56,4.72,.24-.06,.46-.14,.69-.22l.17,.22,1.68-1.24h0c2.16-1.65,3.23-4.43,2.51-7.13Z" fill="#ef7e29"/><path d="M222.84,358.05c-.97-3.62,1.29-7.36,5.05-8.37,3.76-1.01,7.59,1.11,8.56,4.72,.97,3.62-1.29,7.36-5.05,8.37-3.76,1.01-7.59-1.11-8.56-4.72Z" fill="#f99746"/><path d="M25.11,159.15c2.99-11.14,14.79-17.65,26.36-14.55,2.96,.79,5.62,2.14,7.88,3.89l4.56,3.31-.56,.71c3.81,4.98,5.37,11.49,3.66,17.87-2.99,11.14-14.79,17.65-26.36,14.54-.73-.19-1.43-.42-2.12-.68l-.53,.68-5.17-3.83h0c-6.64-5.09-9.96-13.63-7.73-21.95Z" fill="#ef7e29"/><path d="M71.33,173.53c2.99-11.14-3.97-22.68-15.54-25.78-11.57-3.1-23.37,3.41-26.36,14.54-2.99,11.14,3.97,22.68,15.54,25.78,11.57,3.1,23.37-3.41,26.36-14.55Z" fill="#f99746"/><g><path d="M43.51,165.22c.97-3.62,4.8-5.73,8.56-4.72,.96,.26,1.82,.7,2.56,1.26l1.48,1.07-.18,.23c1.24,1.62,1.74,3.73,1.19,5.8-.97,3.62-4.8,5.73-8.56,4.72-.24-.06-.46-.14-.69-.22l-.17,.22-1.68-1.24h0c-2.16-1.65-3.23-4.43-2.51-7.13Z" fill="#ef7e29"/><path d="M58.52,169.89c.97-3.62-1.29-7.36-5.05-8.37-3.76-1.01-7.59,1.11-8.56,4.72-.97,3.62,1.29,7.36,5.05,8.37,3.76,1.01,7.59-1.11,8.56-4.72Z" fill="#f99746"/></g><path d="M90.27,281.39s14.4,10.55,29.66,10.98c15.26,.43,68.86-12.69,68.86-12.69l-2.21-4.17s-58.76,15.72-72.55,11.06c-13.78-4.66-22.15-10.17-22.15-10.17l-1.62,4.99Z" fill="#233862"/><path d="M103.09,643.72c-6.51,.09-21.83-1.66-27.96,0h-24.65c-5.75-3.52-8.06-7.61,7.16-9.48,21.97-2.72,25.96-24.77,26.38-27.54,0-.05,.02-.09,.02-.13,.02-.11,.02-.16,.02-.16l20.57,7.86s0,.01-.02,.04c0,0-.02,.02-.02,.05-.02,.03-.04,.08-.05,.13h0c-.05,.12-.11,.26-.18,.44,0,.02,0,.03-.02,.05-.72,1.9-2.35,7.39-.08,13.9,1.95,5.6,5.36,14.76-1.15,14.85Z" fill="#ffb27d"/><path d="M264.67,643.72c-6.51,.09-21.83-1.66-27.96,0h-24.65c-5.75-3.52-7.94-6.81,7.15-9.48,22.21-3.94,24.72-14.07,23.74-20.7-.48-3.32-1.84-5.75-2.05-6.1l-.02-.05,23.12-1.43s-.09,1.31-.14,3.36c-.12,4.85-.03,13.86,1.95,19.55,1.95,5.6,5.36,14.76-1.15,14.85Z" fill="#ffb27d"/><path d="M104.32,614.96c-.72,1.9-2.35,7.39-.08,13.9,1.95,5.6,5.36,14.76-1.15,14.85s-21.83-1.66-27.96,0h-24.65c-5.75-3.52-8.06-7.61,7.16-9.48,21.97-2.72,25.96-24.77,26.38-27.54,0-.05,.02-.09,.02-.13,.49-4.19,1-8.93,1.48-14.13,0,0,10.17,7.53,26.71,2.96h0c-2.77,7.41-5.41,13.82-7.59,18.87,0,0,0,.01-.02,.04,0,0-.02,.02-.02,.05-.02,.04-.03,.08-.05,.13h0c-.05,.15-.12,.3-.18,.44,0,.02,0,.03-.02,.05Z" fill="#213f7a"/><path d="M264.67,643.72c-6.51,.09-21.83-1.66-27.96,0h-24.65c-5.75-3.52-7.94-6.81,7.15-9.48,22.21-3.94,24.72-14.07,23.74-20.7-.58-1.75-1.27-3.79-2.05-6.1l-.02-.05c-1.41-4.18-3.13-9.19-5.07-14.75,6.34,.05,17.92-.61,28.31-5.35,.17,6.93,.09,13.25-.12,18.67-.04,1.16-.09,2.28-.14,3.36-.12,4.85-.03,13.86,1.95,19.55,1.95,5.6,5.36,14.76-1.15,14.85Z" fill="#213f7a"/><path d="M109.99,81.54s.96,2.12,1.38,3.17c.42,1.05,6.58,1.1,8.52-.08,1.62-.98,3.6-3.71,3.5-3.6,0,0-10.63-.25-13.4,.51Z" fill="#fff"/></g></g></svg>