<?xml version="1.0" encoding="UTF-8"?><svg id="_이어_2" xmlns="http://www.w3.org/2000/svg" viewBox="0 0 272.91 649.76"><g id="_依x5F_1"><g><g><path d="M165.31,325.34c2.4-15.22,17.16-25.54,32.97-23.05,4.05,.64,7.77,2.05,11.03,4.06l6.52,3.75-.64,1.02c5.77,6.08,8.76,14.51,7.39,23.23-2.4,15.22-17.16,25.54-32.97,23.05-.99-.16-1.96-.36-2.91-.61l-.61,.97-7.41-4.36h0c-9.55-5.82-15.16-16.71-13.38-28.08Z" fill="#ef7e29"/><path d="M228.77,337.92c2.4-15.22-8.48-29.58-24.3-32.07-15.81-2.49-30.58,7.83-32.97,23.05-2.4,15.22,8.48,29.58,24.3,32.07,15.81,2.49,30.58-7.83,32.97-23.05Z" fill="#f99746"/><path d="M194.75,333.74c-.06-3.34,3.61-7.03,8.1-5.89,1.82,.46,51.24,24.54,51.24,24.54l-8.61,13.33-48.38-27.32s-2.29-1.27-2.35-4.65Z" fill="#ef7e29"/></g><path d="M225.16,350.64c-.74-.11-16.25,7.37-24.19-3.57-3.64-5.01-.88-9.74,2.62-11.11,2.67-1.04,7.07,2.07,8.8,3.83,2.87,2.93,12.76,10.85,12.76,10.85Z" fill="#ffb27d"/><path d="M179.4,649.28c-5.27-3.22-2.27-27.22-2.27-27.22,0,0,24.56-19.65,27.94-4.61,3.38,15.04,23.33,21.8,34.69,23.64,7.84,1.27,10.27,5.61,11.02,8.18h-71.38Z" fill="#233862"/><path d="M207.23,630.02c-8.02,2.55-23.37,10.37-33.11,6.7-6.3-2.38-41.51-104.21-43.79-148.75-.11-2.17-.43-4.91-.94-8.15-.24-1.59-.54-3.29-.86-5.11-3.26-18.01-10.36-46.58-17.42-75.42-9.51-38.93-18.94-78.38-18.68-93.1,.51-28.98,86.38-6.07,86.38-6.07,0,0,5.14,20.71,6.79,51.46,.11,2.19,.21,4.44,.29,6.73,2.33,68.33,8.74,183.75,26.18,263.9,.73,3.4-1.51,6.76-4.84,7.82Z" fill="#213f7a"/><path d="M185.6,351.58l-56.21,128.25c-.24-1.59-.54-3.29-.86-5.11-3.26-18.01-10.36-46.58-17.42-75.42l-10.01-100.1,77.71,.93s5.14,20.71,6.79,51.46Z" fill="#233862"/><path d="M137.93,108.33s28.77,1.03,39.47,13.79c10.7,12.75,23.54,103.87,30.67,122.55,7.13,18.68,15.69,84.27,15.69,86.78l-11.55,2.27s-31.99-67.7-34.83-82.59c-2.84-14.89-37.6-88.81-37.34-93.94,.26-5.12-2.12-48.87-2.12-48.87Z" fill="#ffb27d"/><path d="M65.71,142.61c1.24-9.53-8.54-16.66-17.24-12.57-10.95,5.15-23.05,12.33-26.71,20.16C14.59,165.51-1.16,232.14,.07,256.91c0,0,13.4,3.57,22.94-.51,9.55-4.09,41.68-105.95,41.68-105.95l1.02-7.83Z" fill="#ffb27d"/><path d="M102.97,649.44s-1.52-11.86-5.05-18.91c-3.52-7.05-25.96-2.56-25.96-2.56,0,0-4.49,3.85-5.45,21.79l36.45-.32Z" fill="#233862"/><path d="M147.63,306.28l-45.39,328.99s-19.93,4.81-35.44,.96c0,0-13.29-174.97-12.18-217.28,1.11-42.3,1.84-102.01,6.75-115.44,7.71-21.08,86.27,2.76,86.27,2.76Z" fill="#213f7a"/><path d="M131.03,93.16l-.02,4.26s1.16,13.33-15.25,15.27c-16.41,1.95-28.85-5.2-28.4-15.48,1.48-7.96,3.1-13.43,3.21-20.02,.04-2.45-.13-5.05-.58-7.98l31.8-.64,9.37,1.53-.12,23.05Z" fill="#ffb27d"/><path d="M131.15,70.1v16.71c-12.15,4.37-36.76-3.03-38.79-12.81l29.42-5.43,9.37,1.53Z" fill="#f4a671"/><path d="M87.54,64.09c3.69,19.86,29.31,19.21,40.39,17.96,3.12-.35,5.08-.74,5.08-.74,3.51-.94,5.47-6.47,6.39-13.72,1.81-14.35-.48-35.41-2.9-40.8-3.65-8.11-10.52-16.87-36.32-10.55-25.81,6.33-17.36,22.41-12.63,47.85Z" fill="#ffb27d"/><path d="M120.34,68.8s2.13,3.73,9.41,2.97c4.8-.5,5.2-4.61,5.2-4.61,0,0-6.88-1.52-14.6,1.64Z" fill="#fff"/><path d="M175.88,177.83c18.38-1.5,27.19-10.3,27.19-10.3,0,0-16.58-45.41-25.69-53.21-9.11-7.8-46.25-14.59-46.25-14.59-.29-.18-.48-.28-.52-.28h0c0,4.14-6.5,11.75-16.51,12.41-11.88,.78-26.74-7.8-26.74-14.64,0,0-28.32,2-43.41,10.15-15.09,8.15-33.1,48.63-33.1,48.63,0,0,6.11,19.97,43.71,26.39l-2.7,133.03c69.43,22.97,133.38-.71,133.38-.71,1.5,.03-8.19-76.23-8.68-95.01-.32-12.22-.56-26.11-.68-41.86Z" fill="#fff"/><path d="M142.83,26.19c4.54-4.63,3.33-12.32-2.4-15.37-5.78-3.07-14.85-7.51-22.6-9.61-11.44-3.1-22.77,.45-27.23,2.79,.12-.72,.41-1.7,1.09-2.68,0,0-2,1.42-2.29,3.4-.21,.15-.3,.26-.24,.29,0,0-2.27-.41-3.72,.24,0,0,1.02-.15,1.38,.51,.04,.07,.1,.13,.16,.18-16.96,8.2-22.64,28.25-13.07,41.21,5.91,8,16.46,24.27,16.46,24.27,0,0-1.85-4.44-2.2-8.09-.1-1.05,.19-2.16,.59-3.15,.79-1.97,.76-4.18-.03-6.15-1.16-2.88-1.43-5.86,1.02-7.09,2.86-1.43,5.11,.65,6.55,2.8,1.14,1.71,3.29,2.44,5.19,1.66,.06-.02,.12-.05,.18-.07,7.16-2.98,1.19-11.34,7.46-16.42,6.27-5.07,22.99-2.44,28.47-4.54,1.87-1.31,3.71-2.64,5.23-4.19Z" fill="#233862"/><g><path d="M203.52,348.13c2.61-16.56,18.66-27.79,35.87-25.08,4.4,.69,8.45,2.23,11.99,4.42l7.1,4.08-.7,1.11c6.28,6.62,9.53,15.79,8.04,25.27-2.61,16.56-18.66,27.79-35.87,25.08-1.08-.17-2.13-.39-3.17-.66l-.66,1.06-8.06-4.74h0c-10.39-6.34-16.5-18.18-14.55-30.54Z" fill="#ef7e29"/><path d="M272.55,361.82c2.61-16.56-9.23-32.18-26.43-34.88-17.2-2.71-33.26,8.52-35.87,25.08-2.61,16.56,9.23,32.18,26.43,34.88,17.2,2.71,33.26-8.52,35.87-25.08Z" fill="#f99746"/><path d="M231.05,354.08c.85-5.38,6.06-9.02,11.65-8.14,1.43,.22,2.74,.73,3.89,1.43l2.3,1.33-.23,.36c2.04,2.15,3.09,5.13,2.61,8.21-.85,5.38-6.06,9.02-11.65,8.14-.35-.05-.69-.13-1.03-.21l-.21,.34-2.62-1.54h0c-3.37-2.06-5.36-5.9-4.72-9.92Z" fill="#ef7e29"/><path d="M253.46,358.52c.85-5.38-3-10.45-8.58-11.33-5.59-.88-10.8,2.77-11.64,8.14-.85,5.38,3,10.45,8.58,11.33,5.59,.88,10.8-2.77,11.65-8.14Z" fill="#f99746"/></g><path d="M.07,256.91s46.8,17.85,111.12,10v-13.31s-69.32-13.79-82.87-25.92c0,0-24.4,10.19-28.25,29.23Z" fill="#ffb27d"/><g><g><path d="M162.62,235.07c-3.99-14.88-19.76-23.59-35.22-19.44-3.96,1.06-7.5,2.86-10.53,5.2l-6.09,4.42,.74,.95c-5.09,6.66-7.17,15.36-4.89,23.88,3.99,14.88,19.76,23.58,35.22,19.44,.97-.26,1.91-.56,2.83-.91l.71,.9,6.9-5.12h0c8.88-6.8,13.31-18.22,10.33-29.33Z" fill="#ef7e29"/><path d="M100.85,254.3c-3.99-14.88,5.31-30.31,20.77-34.46,15.46-4.15,31.23,4.56,35.22,19.44,3.99,14.88-5.31,30.31-20.77,34.45-15.46,4.15-31.23-4.56-35.22-19.44Z" fill="#f99746"/><path d="M134.24,246.54c-.29-3.32-4.33-6.61-8.68-5-1.76,.65-48.36,29.82-48.36,29.82l9.97,12.34,45.22-32.28s2.14-1.5,1.85-4.87Z" fill="#ef7e29"/></g><path d="M124.05,269.29c.24-.71,13.91-11.17,7.73-23.2-2.83-5.51-8.3-5.18-11.1-2.67-2.14,1.91-1.35,7.25-.55,9.58,1.32,3.89,3.92,16.29,3.92,16.29Z" fill="#ffb27d"/><g><path d="M127.04,261.78c-4.34-16.19-21.5-25.66-38.32-21.15-4.3,1.15-8.16,3.12-11.46,5.66l-6.63,4.81,.81,1.04c-5.54,7.24-7.81,16.71-5.32,25.98,4.34,16.19,21.5,25.66,38.32,21.15,1.05-.28,2.08-.61,3.08-.99l.77,.98,7.51-5.57h0c9.66-7.4,14.48-19.82,11.24-31.91Z" fill="#ef7e29"/><path d="M59.84,282.69c-4.34-16.19,5.77-32.97,22.6-37.48,16.82-4.51,33.98,4.96,38.32,21.15,4.34,16.19-5.77,32.97-22.6,37.48-16.82,4.51-33.98-4.96-38.32-21.15Z" fill="#f99746"/><path d="M100.29,270.61c-1.41-5.26-6.98-8.33-12.44-6.87-1.4,.37-2.65,1.01-3.72,1.84l-2.15,1.56,.26,.34c-1.8,2.35-2.53,5.42-1.73,8.43,1.41,5.26,6.98,8.33,12.44,6.87,.34-.09,.68-.2,1-.32l.25,.32,2.44-1.81h0c3.14-2.4,4.7-6.43,3.65-10.36Z" fill="#ef7e29"/><path d="M78.48,277.39c-1.41-5.26,1.87-10.7,7.34-12.17,5.46-1.46,11.03,1.61,12.44,6.87,1.41,5.26-1.88,10.7-7.34,12.17-5.46,1.46-11.03-1.61-12.44-6.87Z" fill="#f99746"/></g></g></g></g></svg>