<?xml version="1.0" encoding="UTF-8"?><svg id="_이어_2" xmlns="http://www.w3.org/2000/svg" viewBox="0 0 425.66 463.42"><g id="_依x5F_1"><g><g id="man"><path d="M209.28,349.51h119.16c4.38,0,7.93,3.56,7.93,7.93v97.98c0,4.38-3.55,7.93-7.93,7.93h-119.16c-4.38,0-7.93-3.56-7.93-7.93v-97.98c0-4.38,3.56-7.93,7.93-7.93Z" fill="#ef7e29"/><path d="M261.81,349.51h119.16c4.38,0,7.93,3.55,7.93,7.93v97.98c0,4.38-3.55,7.93-7.93,7.93h-119.16c-4.38,0-7.93-3.55-7.93-7.93v-97.98c0-4.38,3.56-7.93,7.93-7.93Z" fill="#f99746"/><path d="M254.86,154.91c-4.07,7.45-14.21,11.77-26.19,15.05-1.34,.36-2.69,.72-4.07,1.06-21,5.24-49.15,2.23-57.31,13.15-9.05,12.14-19.84,75.88-19.84,75.88-12.98,5.17-12.83,2.64-12.83,2.64-3.99-17.23-4.29-69.63-3.34-84.06,1.08-16.58,35.13-39.84,64.42-56.88,22.38-13.02,41.98-22.4,41.98-22.4,.61,.12,1.21,.27,1.79,.41,25.82,6.55,26.59,34.65,15.39,55.14Z" fill="#ffb27d"/><path d="M239.46,99.77c-2.77,23.19-7.22,57.46-10.8,70.2-1.34,.36-2.69,.72-4.07,1.06,0-.01,0-.04,0-.05-4.05-24.31-24.49-45-28.89-49.22,22.38-13.02,41.98-22.4,41.98-22.4,.61,.12,1.21,.27,1.79,.41Z" fill="#ef7e29"/><path d="M273.94,85.16s-30.9,33.9-55.79,35.62c0,0,2.71-9.11,10.17-18.06-1.25-2.07-2.38-4.01-3.41-5.84-5.92-10.46-8.49-16.84-8.49-16.84l19.94-33.65c.46,1.24,.93,2.44,1.43,3.61,1.07,2.54,2.24,4.9,3.49,7.1,.61,1.08,1.23,2.12,1.87,3.12,12.73,19.95,30.78,24.94,30.78,24.94Z" fill="#ffb27d"/><path d="M224.91,96.88c-5.92-10.46-8.49-16.84-8.49-16.84l19.94-33.65c.46,1.24,.93,2.44,1.43,3.61,2.13,8.61,4.85,29.56-12.89,46.88Z" fill="#f4a671"/><path d="M212.45,84.85s35.23-18.58,23.32-40.34c-11.91-21.76-15.38-38.81-38.38-27.87-22.99,10.94-22.78,21.62-20.57,29.85,2.21,8.23,26.17,42.63,35.63,38.36Z" fill="#ffb27d"/><path d="M236.58,46.02s-20.52-25.68-52.21-8.21c-21.71,11.96-22.29-13.33-22.02-17.61,0,0,17.09-8.5,34.91-16.75,37.4-17.33,39.75,36.11,39.32,42.58Z" fill="#2c3a64"/><path d="M277.43,277.93c-1.03-.91-1.69-1.76-1.92-2.53-.39-1.25-18.8-1.03-57.8-107.68-6.79-18.56-2.27-46.5,4.47-58.37l4.97-8.3c8.34-.89,17.15-5.08,24.14-11.79,1.92-1.85,4.2-3.06,6.56-3.83,6.95-2.27,14.63-.73,16.08-.26,26.12,9.1,46.4,46.57,60.53,101.82,8.81,34.82,20.99,55.66,29.32,85.74,2.49,8.99,4.64,18.8,6.24,30.07,1.46,10.23-78.79-12.64-92.6-24.86Z" fill="#ffb27d"/><path d="M285.19,323.94c-9.29,1.24-22.78,1.25-37.61,.82-40.37-1.19-90.98-5.77-93.94,2.22-19.37,52.14-88.98,93.12-90.21,112.46,.23,1.25-17.68-8.34-17.12-8.74,0,0,5.67-2.36,61.85-155.19,5.16-14.03,63.79-19.37,99.27-22.2,22.66-1.81,40.33-2.51,40.33-2.51,0,0,24.19-4.03,48.95-2.3,24.76,1.73,23.03,70.84-11.51,75.44Z" fill="#f4a671"/><path d="M134.62,262.7s17.53,6.34,24.99,2.61c7.46-3.73,.93-13.36-4.04-13.36s-15.98,.19-20.95,10.75Z" fill="#ffb27d"/><path d="M294.98,323.94c-9.29,1.24-22.77,1.25-37.61,.82,3.63-11.72,13.18-32.83-.9-48.48,0,0-15.32-21.07-27.63-24.5,22.66-1.81,28.71-.97,28.71-.97,0,0,24.19-4.03,48.95-2.3,24.76,1.73,23.03,70.83-11.52,75.44Z" fill="#213f7a"/><path d="M363.79,272.72l-.4,.35-85.96,4.86c-1.02-.91-1.69-1.76-1.91-2.53-.06-.2-.58-.35-1.54-.91-2.74-1.55-9.16-6.23-19.47-23.66-9.14-15.45-21.35-40.92-36.79-83.12-6.79-18.56-2.27-46.5,4.47-58.37,0,0,4.93,2.73,11.07-.25,14.82-7.19,39.67-24.26,40.69-23.93,26.12,9.1,46.41,46.57,60.53,101.82,8.81,34.82,20.99,55.66,29.32,85.74Z" fill="#f99746"/><path d="M312.9,167.18l-42.13,39.54-25.73-39.64,9.45,83.76c10.31,17.43,16.73,22.1,19.47,23.66,23.81,1.35,58.36,.81,61.13-13.33,4.25-21.72-22.2-93.98-22.2-93.98Z" fill="#ef7e29"/><path d="M350.29,346.75c-77.28,18.41-149.48-27.28-152.16-14.24-8.3,40.42-50.25,99-51.23,105.99-.15,1.03-18.5,2.6-18.5,2.6,0,0,18.08-142.78,33.36-161.27,15.78-19.09,157.71-11.41,157.71-11.41,55.35-10.97,65.15,70.15,30.81,78.33Z" fill="#ffb27d"/><path d="M259.54,266.83s37.77,39.11,41.97,42.95c4.2,3.85,20.28,2.45,20.28,2.45,0,0-17.6,2.33-17.6,5.36s11.19,35.2,15.38,35.2,35.43-1.86,42.89-5.59c7.46-3.73,17.25-45.22,2.1-78.32l-12.18-29.37s-17.27,25.28-92.84,27.32Z" fill="#213f7a"/><path d="M260.21,204.5c-3.45-12.87-17.09-20.4-30.46-16.81-3.42,.92-6.49,2.48-9.11,4.5l-5.27,3.82,.64,.82c-4.41,5.76-6.2,13.28-4.23,20.65,3.45,12.87,17.09,20.4,30.46,16.81,.84-.22,1.65-.49,2.45-.79l.61,.78,5.97-4.42h0c7.68-5.88,11.51-15.75,8.94-25.37Z" fill="#94b0ed"/><path d="M206.79,221.13c-3.45-12.87,4.59-26.21,17.96-29.8,13.37-3.59,27.01,3.94,30.46,16.81,3.45,12.87-4.59,26.21-17.96,29.8-13.37,3.59-27.01-3.94-30.46-16.81Z" fill="#aec3ff"/><path d="M235.66,214.42c-.25-2.87-3.74-5.72-7.5-4.33-1.52,.56-41.82,25.78-41.82,25.78l8.62,10.67,39.11-27.92s1.85-1.3,1.6-4.21Z" fill="#789cdd"/><path d="M314.67,266.08c-18.19,18.17-101.62-33.56-101.62-33.56l9.44-16.43,54.42,12.7c-15.22-22.22-25.32-44.09-31.87-61.71-8.5-22.84-11.02-38.52-11.02-38.52-4.66-18.64,36.4-42.25,56.41-23.31,6.67,6.32,13.61,24.3,19.23,46.13,11.21,43.61,17.12,102.59,5.01,114.7Z" fill="#ffb27d"/><path d="M307.03,141.78c-19.25,4.53-57.31,14.7-61.99,25.3,0,0,35.52-15.25,70.21,9.67l-8.22-34.98Z" fill="#f4a671"/><path d="M309.66,151.38c-36.69-3.43-60.81,12.92-64.62,15.7-8.5-22.84-11.02-38.52-11.02-38.52-4.66-18.64,36.4-42.25,56.41-23.31,6.67,6.32,13.61,24.3,19.23,46.13Z" fill="#f99746"/><path d="M67.12,462.8h-9.54c-3.2-.5-5.55-1.43-8.83-1.86-4.98-.65-7.27,1.39-7.72,1.86-.06,.06-.09,.09-.09,.09H.43c-1.02-1.45-.04-4.83,.92-7.31,.65-1.69,2.05-2.96,3.79-3.47,4.3-1.24,12.77-2.35,20.52-9.37,4.36-3.94,21.07-14.5,21.07-14.5l.09-.02c.37,0,2.11,.54,9.71,6.96,3.93,3.31,10.62-4.68,10.62-4.68,0,0,1.26,1.04,2.2,2.98,.75,1.53,1.3,3.63,.87,6.22-.61,3.65,1.35,10.43,2.9,15.02,.95,2.78,1.74,4.75,1.74,4.75,0,0,.45,2.29-7.75,3.32Z" fill="#2c3a64"/><path d="M151.81,462.79h-10.06c-3.37-.53-5.86-1.5-9.31-1.96-5.25-.69-7.66,1.46-8.14,1.96-.06,.06-.09,.1-.09,.1h-42.73c-1.08-1.53-.04-5.09,.97-7.71,.68-1.78,2.17-3.13,4-3.66,4.53-1.31,13.46-2.48,21.64-9.89,4.6-4.16,22.22-15.29,22.22-15.29l.09-.02c.39,0,2.23,.57,10.24,7.34,4.14,3.49,11.21-4.93,11.21-4.93,0,0,1.33,1.1,2.32,3.14,.8,1.61,1.38,3.83,.92,6.56-.64,3.85,1.42,11,3.06,15.84,1,2.93,1.84,5.01,1.84,5.01,0,0,.48,2.42-8.17,3.5Z" fill="#2c3a64"/><path d="M229.44,227.6c-3.75-14-18.59-22.19-33.14-18.29-3.72,1-7.06,2.69-9.91,4.9l-5.73,4.16,.7,.89c-4.79,6.26-6.75,14.45-4.6,22.47,3.75,14,18.59,22.19,33.14,18.29,.91-.25,1.8-.53,2.66-.86l.66,.85,6.5-4.81h0c8.35-6.4,12.52-17.14,9.72-27.6Z" fill="#94b0ed"/><path d="M171.33,245.68c-3.75-14,4.99-28.51,19.54-32.41,14.55-3.9,29.38,4.29,33.14,18.29,3.75,14-4.99,28.51-19.54,32.41-14.55,3.9-29.38-4.29-33.14-18.29Z" fill="#aec3ff"/><path d="M206.31,235.23c-1.22-4.54-6.04-7.2-10.76-5.94-1.21,.32-2.29,.88-3.22,1.59l-1.86,1.35,.23,.29c-1.56,2.03-2.19,4.69-1.49,7.29,1.22,4.55,6.04,7.2,10.76,5.94,.3-.08,.58-.17,.87-.28l.22,.28,2.11-1.56h0c2.71-2.08,4.07-5.56,3.16-8.96Z" fill="#94b0ed"/><path d="M187.44,241.1c-1.22-4.54,1.62-9.26,6.34-10.52,4.72-1.27,9.54,1.39,10.76,5.94,1.22,4.55-1.62,9.26-6.34,10.52-4.72,1.27-9.54-1.39-10.76-5.94Z" fill="#cadaff"/></g><g><path d="M423.91,447.7c5.06-12.32-1.21-26.58-14.01-31.84-3.28-1.35-6.66-1.97-9.97-1.95l-6.51-.16v1.04c-6.98,1.91-12.98,6.79-15.88,13.85-5.07,12.33,1.21,26.58,14.01,31.84,.8,.33,1.61,.62,2.42,.86v.99l7.44,.11h0c9.67-.02,18.71-5.54,22.49-14.75Z" fill="#94b0ed"/><path d="M371.36,428.5c5.06-12.32,19.55-18.05,32.36-12.79,12.8,5.26,19.08,19.52,14.01,31.84-5.07,12.32-19.55,18.05-32.36,12.79-12.81-5.26-19.08-19.52-14.01-31.84Z" fill="#aec3ff"/><path d="M398.38,440.68c1.54-2.44,.49-6.82-3.34-7.99-1.55-.48-48.89-4.88-48.89-4.88l.38,13.72,48.03,1.54s2.26,.09,3.82-2.38Z" fill="#7a9edd"/><path d="M385.44,447.38c5.51-13.41-1.32-28.92-15.25-34.64-3.56-1.46-7.25-2.14-10.85-2.12l-7.08-.17v1.14c-7.6,2.07-14.12,7.39-17.27,15.07-5.51,13.41,1.32,28.92,15.25,34.64,.87,.36,1.75,.67,2.64,.94v1.08l8.1,.12h0c10.52-.02,20.35-6.03,24.47-16.04Z" fill="#94b0ed"/><path d="M328.27,426.5c5.51-13.41,21.27-19.64,35.2-13.91,13.93,5.73,20.76,21.23,15.25,34.64-5.51,13.41-21.27,19.63-35.2,13.91-13.93-5.72-20.76-21.23-15.25-34.64Z" fill="#aec3ff"/><path d="M362.42,439.42c1.79-4.35-.43-9.39-4.95-11.25-1.16-.48-2.35-.7-3.52-.69l-2.3-.06v.37c-2.47,.67-4.58,2.4-5.61,4.89-1.79,4.35,.43,9.39,4.95,11.25,.28,.12,.57,.22,.86,.3v.35l2.63,.04h0c3.42,0,6.61-1.96,7.94-5.21Z" fill="#94b0ed"/><path d="M343.86,432.64c1.79-4.35,6.91-6.37,11.43-4.52,4.52,1.86,6.74,6.89,4.95,11.25-1.79,4.35-6.91,6.37-11.43,4.52-4.52-1.86-6.74-6.89-4.95-11.25Z" fill="#cadaff"/></g></g></g></svg>