<?xml version="1.0" encoding="iso-8859-1"?>
<!-- Generator: Adobe Illustrator 19.0.0, SVG Export Plug-In . SVG Version: 6.00 Build 0)  -->
<svg version="1.1" id="Layer_1" xmlns="http://www.w3.org/2000/svg" xmlns:xlink="http://www.w3.org/1999/xlink" x="0px" y="0px"
	 viewBox="0 0 512 512" style="enable-background:new 0 0 512 512;" xml:space="preserve">
<g>
	<path style="fill:#D0D1D3;" d="M475.229,362.124V358.4c-42.822-22.342-66.095-55.855-66.095-104.262
		c0-39.098,17.687-73.542,49.338-95.884l1.862-0.931c-21.411-26.065-49.338-51.2-93.091-51.2c-30.72,0-55.855,28.858-97.745,28.858
		c-33.513,0-47.476-27.927-83.782-27.927c-75.404,0.931-149.876,67.025-149.876,153.6c0,45.615,14.895,116.364,49.338,176.873
		C109.382,482.211,140.102,512,174.545,512c24.204,0,53.993-22.342,88.436-22.342c30.72,0,58.647,19.549,86.575,19.549
		c66.095,0,126.604-83.782,126.604-140.567C476.16,366.778,475.229,364.916,475.229,362.124"/>
	<path style="fill:#D0D1D3;" d="M267.636,135.913c49.338-14.895,94.953-51.2,94.953-114.502c0-4.655-0.931-11.171-1.862-18.618
		l0-2.793c-50.269,13.964-94.953,52.131-94.953,112.64c0,5.585,0.931,13.033,1.862,20.48V135.913L267.636,135.913z"/>
</g>
<g>
</g>
<g>
</g>
<g>
</g>
<g>
</g>
<g>
</g>
<g>
</g>
<g>
</g>
<g>
</g>
<g>
</g>
<g>
</g>
<g>
</g>
<g>
</g>
<g>
</g>
<g>
</g>
<g>
</g>
</svg>
