<?xml version="1.0" encoding="UTF-8"?><svg id="Layer_2" xmlns="http://www.w3.org/2000/svg" xmlns:xlink="http://www.w3.org/1999/xlink" viewBox="0 0 1273.18 295.8"><defs><linearGradient id="linear-gradient" x1="318.99" y1="157.2" x2="754.59" y2="157.2" gradientTransform="matrix(1, 0, 0, 1, 0, 0)" gradientUnits="userSpaceOnUse"><stop offset=".31" stop-color="#0086ff"/><stop offset=".82" stop-color="#00dbff"/></linearGradient></defs><g id="Layer_1-2"><circle cx="251.19" cy="28.4" r="28.4" fill="#ffc200"/><path d="M168.28,123.68l14.12,.12v48.8H62.8v118H0c0-92.72,75.56-167.67,168.28-166.91Z" fill="#0086ff"/><path d="M279.59,83.8v206.8h-56.8V140.6c0-31.37,25.43-56.8,56.8-56.8h0Z" fill="#0086ff"/><line x1="279.59" y1="121.8" x2="279.59" y2="83.8" fill="#0086ff"/><path d="M1145.98,83.8l-6.4,28.8h.8c18.4-22.93,42.53-34.4,72.4-34.4,40.26,0,60.4,18.54,60.4,55.6,0,2.14-.27,4.87-.8,8.2-.54,3.34-1.14,6.74-1.8,10.2-.67,3.47-1.34,6.74-2,9.8-.67,3.07-1.14,5.54-1.4,7.4l-25.6,121.2h-56.8l25.2-121.2c.53-3.2,1.26-7.46,2.2-12.8,.93-5.33,1.4-9.46,1.4-12.4,0-6.13-2.87-11.2-8.6-15.2-5.74-4-11.94-6-18.6-6-8.54,0-16.07,1.67-22.6,5-6.54,3.34-12.14,7.67-16.8,13-4.67,5.34-8.54,11.47-11.6,18.4-3.07,6.94-5.4,14-7,21.2l-23.2,110h-56.4l42.8-206.8h54.4Z" fill="#00dbff"/><path d="M931.98,204.6c0-1.06,.13-2.26,.4-3.6h152.4c2.13-11.46,3.2-22.26,3.2-32.4,0-14.93-2.34-28.06-7-39.4-4.67-11.33-11.2-20.8-19.6-28.4-8.4-7.6-18.54-13.26-30.4-17-11.87-3.73-25-5.6-39.4-5.6-17.6,0-33.47,3.54-47.6,10.6-14.14,7.07-26.07,16.54-35.8,28.4-9.74,11.87-17.27,25.47-22.6,40.8-5.34,15.34-8,31.27-8,47.8,0,14.94,2.2,28,6.6,39.2,4.4,11.2,10.6,20.6,18.6,28.2,8,7.6,17.66,13.27,29,17,11.33,3.73,23.93,5.6,37.8,5.6,14.93,0,28.06-1.47,39.4-4.4,11.33-2.93,21.26-7.4,29.8-13.4,8.53-6,15.86-13.4,22-22.2,6.13-8.8,11.46-19.06,16-30.8h-56.8c-2.14,3.2-4.47,6.54-7,10-2.54,3.47-5.47,6.54-8.8,9.2-3.34,2.67-7.2,4.87-11.6,6.6-4.4,1.74-9.4,2.6-15,2.6-15.47,0-26.94-3.73-34.4-11.2-7.47-7.46-11.2-17.2-11.2-29.2v-8.4Zm14.2-56.4c3.06-5.33,6.86-10,11.4-14,4.53-4,9.86-7.2,16-9.6,6.13-2.4,13.2-3.6,21.2-3.6s14.93,1.27,20,3.8c5.06,2.54,8.93,5.94,11.6,10.2,2.66,4.27,4.46,9,5.4,14.2,.93,5.2,1.4,10.47,1.4,15.8h-94.8c2.13-5.86,4.73-11.46,7.8-16.8Z" fill="#00dbff"/><path d="M752.39,204.6c0-1.06,.13-2.26,.4-3.6h152.4c2.13-11.46,3.2-22.26,3.2-32.4,0-14.93-2.34-28.06-7-39.4-4.67-11.33-11.2-20.8-19.6-28.4-8.4-7.6-18.54-13.26-30.4-17-11.87-3.73-25-5.6-39.4-5.6-17.6,0-33.47,3.54-47.6,10.6-14.14,7.07-26.07,16.54-35.8,28.4-9.74,11.87-17.27,25.47-22.6,40.8-5.34,15.34-8,31.27-8,47.8,0,14.94,2.2,28,6.6,39.2,4.4,11.2,10.6,20.6,18.6,28.2,8,7.6,17.66,13.27,29,17,11.33,3.73,23.93,5.6,37.8,5.6,14.93,0,28.06-1.47,39.4-4.4,11.33-2.93,21.26-7.4,29.8-13.4,8.53-6,15.86-13.4,22-22.2,6.13-8.8,11.46-19.06,16-30.8h-56.8c-2.14,3.2-4.47,6.54-7,10-2.54,3.47-5.47,6.54-8.8,9.2-3.34,2.67-7.2,4.87-11.6,6.6-4.4,1.74-9.4,2.6-15,2.6-15.47,0-26.94-3.73-34.4-11.2-7.47-7.46-11.2-17.2-11.2-29.2v-8.4Zm14.2-56.4c3.06-5.33,6.86-10,11.4-14,4.53-4,9.86-7.2,16-9.6,6.13-2.4,13.2-3.6,21.2-3.6s14.93,1.27,20,3.8c5.06,2.54,8.93,5.94,11.6,10.2,2.66,4.27,4.46,9,5.4,14.2,.93,5.2,1.4,10.47,1.4,15.8h-94.8c2.13-5.86,4.73-11.46,7.8-16.8Z" fill="#00dbff"/><path d="M694.59,83.8l-66.4,144.4h-.8l-6.4-144.4h-57.6l-63.6,145.6h-.8l-8-145.6h-115.2V21.8h0c-31.37,0-56.8,25.43-56.8,56.8V243.8c0,10.4,1.73,18.8,5.2,25.2,3.46,6.4,8.2,11.34,14.2,14.8,6,3.47,12.93,5.8,20.8,7,7.86,1.2,16.2,1.8,25,1.8,5.6,0,11.33-.14,17.2-.4,5.86-.27,11.2-.8,16-1.6v-44c-2.67,.54-5.47,.94-8.4,1.2-2.94,.27-6,.4-9.2,.4-9.6,0-16-1.6-19.2-4.8-3.2-3.2-4.8-9.6-4.8-19.2V121.8h61.39l18.61,168.8h59.6l64-145.2h.8l7.2,145.2h59.2l108-206.8h-60Z" fill="url(#linear-gradient)"/><polygon points="0 83.8 62.8 83.8 62.8 56.55 200.8 57.8 200.8 5 0 5 0 83.8" fill="#0086ff"/></g></svg>