<svg width="269" height="294" viewBox="0 0 269 294" fill="none" xmlns="http://www.w3.org/2000/svg"><defs><linearGradient id="a" x1="268.715" y1="283.143" x2="-79.909" y2="258.244" gradientUnits="userSpaceOnUse"><stop stop-color="#A5C8FF"/><stop offset="1" stop-color="#D4E3FF"/></linearGradient><linearGradient id="b" x1="48.865" y1="109.877" x2="4.705" y2="185.42" gradientUnits="userSpaceOnUse"><stop stop-color="#A5C8FF"/><stop offset="1" stop-color="#D4E3FF"/></linearGradient><linearGradient id="c" x1="260.508" y1="92.118" x2="213.575" y2="128.635" gradientUnits="userSpaceOnUse"><stop stop-color="#A5C8FF"/><stop offset="1" stop-color="#D4E3FF"/></linearGradient></defs><path d="M128.358 283.143c70.593 0 128.098-25.65 139.443-97.208 11.345-71.558-86.767-38.234-84.943-103.112 1.824-64.85-19.794-102.548-78.988-72.121C44.675 41.128 53.634 105.2 44.89 134.929c-17.005 57.687-110.745 148.214 83.468 148.214Z" fill="url(#a)"/><path d="M37.62 141.102c6.21-17.245 5.404-33.329-1.801-35.926-7.205-2.596-18.08 9.279-24.29 26.524-6.21 17.245-5.403 33.33 1.802 35.926 7.205 2.597 18.08-9.278 24.29-26.524Z" fill="url(#b)"/><path d="M243.786 106.738c9.236-8.075 7.824-24.806-3.153-37.37-10.976-12.564-27.362-16.203-36.597-8.129-9.236 8.075-7.824 24.806 3.152 37.37 10.977 12.564 27.362 16.203 36.598 8.129Z" fill="url(#c)"/><path d="M171.781 42.765s-8.931-.054-10.621 12.476c-1.689 12.53.724 18.084-5.364 23.745-6.088 5.662 3.889 8.828 12.07 3.462 8.207-5.367 3.915-39.683 3.915-39.683Z" fill="#3B2645"/><path d="M171.781 42.765s-8.207 4.453-8.368 16.984c-.134 11.08 2.709 19.667-1.636 25.194 1.958-.376 4.077-1.18 6.088-2.495 8.208-5.367 3.916-39.683 3.916-39.683Z" fill="#3B2645"/><path d="m182.403 71.447-2.87 11.886-18.373-1.422s4.667-7.298 7.135-19.935l14.108 9.47Z" fill="#FFEDE5"/><path d="m171.513 67.369 9.227 11.027 1.663-6.95-10.89-4.077Z" fill="#DF845C"/><path d="M192.192 46.387s3.541 4.964 1.985 10.088c-1.555 5.125-1.475 6.01-1.743 7.915-.268 1.879-4.828 10.491-7.001 10.813-2.172.322-15.368-4.856-17.97-12.154-2.601-7.298 14.564-27.582 24.729-16.662Z" fill="#FFEDE5"/><path d="m167.544 65.464 3.594-5.715 1.636.644s1.368-.376 1.931-5.554c0 0 4.104-1.744 4.881-5.715 0 0 13.733-9.123 14.993 4.936 0 0 2.066-6.439-4.13-10.812-6.196-4.374-14.001-5.635-18.936-1.96-4.935 3.677-12.793 16.448-3.969 24.176Z" fill="#3B2645"/><path d="M171.4 63.434c1.524-.729 1.826-3.27.675-5.677-1.151-2.406-3.319-3.765-4.842-3.036-1.523.729-1.825 3.27-.674 5.677 1.15 2.406 3.318 3.765 4.841 3.036Z" fill="#FFEDE5"/><path d="M170.843 61.198a.244.244 0 0 1-.215-.108l-1.716-2.36a.29.29 0 0 1 .053-.377c.107-.08.295-.053.376.054l1.716 2.361a.289.289 0 0 1-.053.376.385.385 0 0 1-.161.054Zm11.452 5.392s2.173 1.503 5.633 1.637c0 0-3.755.778-5.633-1.636Zm5.66-1.234c-.591 0-1.154-.08-1.61-.322-.134-.08-.187-.241-.107-.349.08-.134.241-.187.349-.107 1.126.564 3.299.08 3.567-.241.027-.269-.376-1.476-.644-2.254-.241-.698-.456-1.342-.536-1.798-.295-1.26.992-2.817 1.046-2.897.107-.108.268-.135.375-.027.108.107.134.268.027.375-.322.403-1.126 1.61-.939 2.442.108.43.322 1.1.537 1.744.536 1.583.751 2.307.617 2.63-.081.187-.269.321-.644.482-.429.161-1.234.322-2.038.322Zm5.9-7.7s.778-.67.054-1.1c-.724-.43-1.985-.322-2.146.08-.161.403-.214.644.322.671.563.027 1.69-.268 1.77.349Zm-14.269-2.227s2.119-1.1 3.648-.644c1.529.456 1.877 1.1 2.628.912.751-.214.081-1.422-1.582-1.878-1.663-.456-3.97.241-4.694 1.61Zm2.843 3.783a.62.62 0 0 1-.509-.67l.08-.457a.62.62 0 0 1 .671-.51.62.62 0 0 1 .509.671l-.08.456c-.054.322-.349.564-.671.51Zm8.771 1.073c-.268-.027-.429-.268-.402-.536l.053-.376c.027-.268.268-.43.537-.402.268.026.429.268.402.536l-.054.376c-.027.268-.268.43-.536.402Z" fill="#472938"/><path d="M205.254 278.85c1.153.966 2.628 2.227 3.809.215-.135-1.288.026-5.313.026-5.313l-10.138.564.563 4.212c0-.027 4.587-.644 5.74.322Z" fill="#FFEDE5"/><path d="M208.285 290.146c1.636-.59 5.176-4.159 5.9-4.91-.241-1.181-.804-2.361-1.555-2.495-1.1-.161-3.433-2.415-3.567-3.703-1.207 2.039-2.656.778-3.809-.215-1.153-.966-5.74-.348-5.74-.348s-1.502 7.7-1.663 11.698c2.28.161 8.932.537 10.434-.027Z" fill="#3B2645"/><path d="M198.146 292.48c1.154.993 9.415.698 10.273.457.858-.242 5.042-4.374 5.659-5.367.268-.429.295-1.395.081-2.334-.725.751-4.265 4.32-5.901 4.91-1.502.537-8.181.188-10.434.054 0 1.207.054 2.066.322 2.28Z" fill="#E5E5E5"/><path d="M141.581 278.743c2.601.349 3.245 1.878 4.05 1.798.804-.081 2.655-1.691 2.655-1.691 0-1.18 1.18-5.098 1.18-5.098l-10.702.349-1.153 5.313c.027 0 1.395-1.02 3.97-.671Z" fill="#FFEDE5"/><path d="M148.876 286.792c1.046-.402 1.985-1.288 2.575-1.878-.027-.966-.295-2.066-1.046-2.495-1.288-.725-2.092-3.569-2.092-3.569s-1.851 1.583-2.656 1.691c-.804.107-1.475-1.422-4.05-1.798-2.601-.349-3.942.671-3.942.671-.966 2.79-1.368 7.11-1.476 9.605 1.315.269 3.46.591 6.438.591 5.391-.027 4.586-2.201 6.249-2.818Z" fill="#3B2645"/><path d="M136.163 290.871c.134.429.536 1.609 6.544 1.609 6.008 0 5.82-2.978 6.222-3.944.43-.992 2.039-1.61 2.307-2.093.107-.214.215-.831.188-1.529-.563.59-1.529 1.476-2.575 1.878-1.663.617-.831 2.818-6.276 2.818-2.977 0-5.123-.322-6.437-.591-.027 1.02-.027 1.744.027 1.852Z" fill="#E5E5E5"/><path d="M198.335 134.714s7.322 16.743 9.28 29.971c1.958 13.227-2.226 49.073-1.61 52.132.617 3.059 4.05 12.45 4.56 25.06.483 12.611-1.475 31.849-1.475 31.849s-5.954 2.656-10.139.563c0 0-3.245-20.499-5.042-29.112-1.797-8.612-1.797-18.701-3.782-23.423-1.984-4.722-7.134-37.912-8.609-43.251 0 0-5.445 26.669-10.487 38.636-5.043 11.967-6.438 13.228-7.966 20.123-1.529 6.896-12.311 31.849-13.572 36.49 0 0-5.82 2.952-10.701.349 0 0 2.869-30.48 8.019-42.554 5.15-12.074 5.767-12.396 6.92-21.196 1.153-8.801-3.594-47.249 9.28-71.827-.027-.026 18.024-3.944 35.324-3.81Z" fill="#AB8DA8"/><path d="M181.517 135.627c1.18 5.151 16.764 28.602 16.764 28.602l-9.093-29.3-7.671.698Zm-6.812 36.195s2.36 5.58 14.108 4.802c0 0-6.437 1.422-5.847 9.016l-1.449-7.111-1.636 7.513s.429-7.459-7.966-10.035l5.499.161c.026-.027-2.682-1.958-2.709-4.346Z" fill="#543753"/><path d="M157.325 82.743s-3.97 3.3-15.637 21.223-8.663 18.889-6.759 21.518c1.878 2.63 16.012 17.441 17.058 18.782 1.046 1.369 4.909 5.447 6.974 3.81 2.065-1.637 1.395-6.332 3.701-8.103 2.307-1.797 4.238-3.595 4.426-4.561.188-.966-.295-1.771-.51-1.771-.214 0-2.548 2.012-3.969 2.71-1.422.698-4.748 3.112-4.801 3.112-.054 0-12.687-19.05-12.687-19.05l14.055-16.769-1.851-20.901Z" fill="#FFEDE5"/><path d="M157.593 88.807s-5.204 6.358-3.809 21.491l5.445-6.466-1.636-15.025Zm-14.323 45.988 5.284-9.257-3.245-4.937-2.817 13.362.778.832Z" fill="#DF845C"/><path d="M176.421 79.577c3.433.831 12.472 5.876 18.158 16.447 5.686 10.571 3.675 12.45 1.502 15.481l-.831 13.577 3.647 11.349-35.886 2.093s2.789-11.698 1.341-15.401c-1.449-3.702-17.166-24.63-8.449-38.502 4.426-7.11 20.518-5.044 20.518-5.044Z" fill="#FFEDE5"/><path d="m195.25 125.055.831-13.576c2.173-3.005 4.211-4.91-1.502-15.482a39.582 39.582 0 0 0-4.64-6.788c-.295 4.132-1.153 9.069-3.165 14.194-4.532 11.617-22.717 10.92-27.572 10.517 2.334 4.454 4.587 7.862 5.096 9.15.268.671.403 1.61.429 2.683 13.76 1.315 30.523-.698 30.523-.698Z" fill="#AB8DA8"/><path d="M176.717 79.657a4.47 4.47 0 0 1-.296-.08s-.241-.027-.643-.08c-5.874 1.61-10.46 5.258-13.518 10.785-1.019-3.595-1.583-6.949-1.234-9.498-.054.027-.107.054-.161.054l-.402.16c-.483.189-.939.403-1.368.645-3.004 3.246-4.05 9.31-3.111 18.11.429 3.945 1.18 7.728 1.85 10.626v.805c.135.268.242.509.376.778.054.134.134.268.188.402.322.644.643 1.261.965 1.878-.241-.885-.617-2.253-.992-3.917 0-3.139.268-7.62 1.448-12.208a32.734 32.734 0 0 1 2.307-6.413c3.165 10.277 9.655 21.814 10.058 22.512l.778 1.368-.269-1.556c-.026-.161-2.843-16.018-.885-25.356 1.234-5.876 3.112-7.968 4.292-8.72.321-.08.617-.16.938-.214l-.321-.08ZM159.283 98.01c-.939 3.622-1.288 7.19-1.395 10.088-1.797-8.559-3.46-22.19 2.575-26.938-.268 2.71.375 6.17 1.448 9.847-1.099 2.093-1.958 4.427-2.628 7.003Zm11.962-9.418c-1.609 7.7-.027 19.748.644 24.014-1.878-3.515-6.867-13.12-9.415-21.6 2.79-5.339 6.894-8.88 12.285-10.651-1.181 1.234-2.548 3.622-3.514 8.237Z" fill="#AB8DA8"/><path d="M177.896 124.223h-13.33c-.161 0-.268-.107-.268-.268 0-.161.107-.268.268-.268h13.33c.161 0 .269.107.269.268a.269.269 0 0 1-.269.268Z" fill="#472938"/><path d="m182 137.397 7.671-.456-3.943-11.081c-1.877.107-3.916.215-6.088.268.724 4.32 1.502 8.318 2.36 11.269Zm-5.498-37.509s.456 5.205 1.207 11.94c.885-.349 1.77-.752 2.602-1.235l-3.809-10.705Z" fill="#DF845C"/><path d="M177.736 111.828c.509 4.453 1.153 9.551 1.931 14.327 2.145-.053 4.211-.161 6.088-.268l-5.418-15.267c-.858.456-1.716.859-2.601 1.208Z" fill="#543753"/><path d="m164.781 138.39.751-.054s1.207-1.046 1.448-2.414c-.322.644-1.153 1.529-2.199 2.468Z" fill="#DF845C"/><path d="M177.011 79.738s11.292 2.28 12.901 7.727c1.636 5.447 2.843 37.59 2.843 37.59s11.292 32.063 12.499 36.947c1.207 4.883 3.728 12.744 3.889 14.327.161 1.583-1.395 5.232-1.931 5.823-.536.59-3.755 1.797-4.479 1.958-.724.161-5.096-2.71-4.882-3.3.215-.59 1.958-1.637 1.958-1.637l.322-2.173s-3.138-6.117-2.923-9.23c.214-3.085-.269-5.098-1.315-6.976-1.046-1.878-13.625-29.997-14.912-34.907-1.288-4.91-5.016-26.83-4.935-30.963.08-4.132.965-15.186.965-15.186Zm-70.486-38.529 2.253 12.45a4.825 4.825 0 0 0 2.977 3.621l4.989 1.959s-5.257 7.861-15.798 10.088c-10.54 2.2-16.307-7.351-16.307-7.351l4.453-3.327a3.655 3.655 0 0 0 1.448-3.166l-.805-11.564 16.79-2.71Z" fill="#FFEDE5"/><path d="M90.352 52.585s12.633 7.459 16.173-11.376l-16.763 2.683.59 8.693Z" fill="#DF845C"/><path d="M110.156 37.256c.476-2.02-.073-3.877-1.226-4.15-1.154-.272-2.475 1.145-2.951 3.164-.476 2.02.073 3.877 1.226 4.149 1.154.272 2.475-1.144 2.951-3.163Z" fill="#FFEDE5"/><path d="M88.021 42.74c1.026-.593 1.018-2.53-.02-4.326-1.036-1.797-2.709-2.773-3.735-2.18-1.026.593-1.017 2.53.02 4.326 1.036 1.797 2.709 2.773 3.735 2.18Z" fill="#DF845C"/><path d="M107.383 37.882c-.053 0-.08 0-.134-.027-.134-.08-.187-.242-.107-.35l.939-1.824c.08-.134.241-.187.348-.107.135.08.188.242.108.349l-.939 1.824c-.027.08-.107.135-.215.135Zm-20.195 2.522a.29.29 0 0 1-.188-.08l-1.824-1.691a.287.287 0 0 1-.027-.376.287.287 0 0 1 .376-.027l1.823 1.69a.287.287 0 0 1 .027.376.232.232 0 0 1-.187.108Z" fill="#472938"/><path d="M83.218 28.759s4.398 16.367 6.061 18.728c1.636 2.334 6.706 4.508 7.564 4.642.858.134 4.264-.215 5.042-.886.778-.67 4.962-5.098 5.606-7.969.617-2.87.778-18.03-1.878-20.794-2.682-2.763-23.736-.51-22.395 6.279Z" fill="#FFEDE5"/><path d="M97.004 40.404c-.67 0-1.85-.35-2.012-.43-.214-.107-.241-.107-.16-4.83v-.643c-.027-.215-.671-1.315-1.234-2.227-.081-.134-.054-.295.08-.376.134-.08.295-.053.376.08.482.779 1.34 2.12 1.34 2.496v.644c-.026.966-.053 3.73-.026 4.373.322.108 1.234.35 1.69.322.375-.027.965-.483 1.233-.75a.26.26 0 0 1 .376 0 .26.26 0 0 1 0 .375c-.08.08-.912.885-1.583.912-.027.054-.053.054-.08.054Z" fill="#472938"/><path d="m93.678 43.248 7.456-1.02s-.563 3.434-3.219 4.025c-2.655.59-4.237-3.005-4.237-3.005Z" fill="#fff"/><path d="M101.081 33.696a.818.818 0 0 1-.912-.724l-.054-.618a.818.818 0 0 1 .724-.912.818.818 0 0 1 .912.725l.054.617c.08.456-.269.858-.724.912Zm-10.434 1.878a.826.826 0 0 1-.966-.67l-.107-.618a.827.827 0 0 1 .67-.966.826.826 0 0 1 .966.67l.107.618a.827.827 0 0 1-.67.966Zm7.644-5.661s3.862-1.369 5.928-.161c0 0-.349-1.69-2.468-1.61-2.119.08-3.487.375-3.701.885-.215.51.241.886.241.886Zm-5.74 1.047s-4.076-.376-5.766 1.314c0 0-.08-1.744 1.985-2.173 2.065-.43 3.46-.483 3.781-.054.35.456 0 .912 0 .912Z" fill="#472938"/><path d="m85.82 37.855-.778-6.762s6.41.67 11.238-4.212c4.827-4.884 8.18-2.147 8.18-2.147l3.353 9.15.804-.832s.188-8.532 0-8.828c-.187-.295-1.609-1.18-1.609-1.18s-.456-8.318-10.782-9.954C85.9 11.453 83.164 22.266 80.16 22.695l1.207 1.53s-.402 1.234-.375 2.763c.026 1.53 3.299 9.257 3.299 9.257l1.528 1.61Z" fill="#3B2645"/><path d="M71.497 66.43s-6.089 1.743-5.82 14.435c0 0-6.035 9.069-6.706 19.908 0 0-14.751-13.55-15.26-15.213-.537-1.69-.242-7.62-.591-9.069-.349-1.449-1.636-2.978-1.475-5.017.16-2.04.51-4.91.322-5.205-.188-.296-3.004.026-3.487 2.36-.483 2.335-.617 4.991-.617 4.991s-4.533 1.127-5.096 1.959c-.563.832-.241 3.032-.241 3.032s.107 7.405.858 8.237c.75.832 4.345 2.656 5.096 3.166.75.51 9.226 20.016 12.9 24.443 3.675 4.427 7.082 5.661 10.273 4.615 3.192-1.047 12.016-12.959 14.86-18.487 2.842-5.527 1.796-33.511-5.016-34.155Z" fill="#FFEDE5"/><path d="M77.853 84.863c-3.245-.805-5.364-.322-5.364-.322s4.318 15.615-2.36 25.757c2.628-3.488 5.096-7.244 6.356-9.686 1.207-2.388 1.717-8.988 1.368-15.75Zm-18.908 15.91 2.52 1.852-2.413-3.005-.107 1.153Zm-24.3-25.328s4.586.349 4.827.617c.242.268.617 9.74-.241 10.383-.885.671-5.284.564-5.284.564s5.257.483 5.82.241c.564-.241 1.583-3.568 1.77-5.285.188-1.717-.884-6.252-1.287-6.36-.402-.106-5.605-.16-5.605-.16Z" fill="#DF845C"/><path d="M129.779 265.515c.188-5.902.805-14.569.698-22.591-.161-11.538-1.315-24.524-1.878-28.307-.59-3.783.778-21.304.778-21.304l-24.246 3.381c.59 1.878 4.988 18.352 5.176 25.543.215 7.191 9.039 40.676 9.388 43.359.053.349.08.724.134 1.1 2.226.268 6.49.483 9.95-1.181Z" fill="#FFEDE5"/><path d="M122.269 274.074s-.268-2.87 2.951-3.568c3.218-.698 4.693.912 4.693.912-.187-1.261-.187-3.327-.107-5.903-3.46 1.664-7.724 1.449-9.924 1.181.215 2.093.269 4.588.054 6.627.349.912 2.333.751 2.333.751Z" fill="#fff"/><path d="M118.89 286.309c3.433 1.798 2.441 5.823 6.732 6.815 3.567.832 8.985.349 11.104.108.563-.054 1.019-.51 1.127-1.073.053-.403.107-.94.08-1.503-2.682.241-8.985.724-11.506.107-3.219-.778-3.997-4.078-5.606-4.99a7.972 7.972 0 0 1-2.306-1.959c-.054.564-.135 1.046-.161 1.395a.958.958 0 0 0 .536 1.1Z" fill="#3B2645"/><path d="M136.726 287.061c-.644-.913-1.582-2.871-2.548-5.098-.563 2.012-7 1.073-7.832.858-.831-.214-4.05-8.747-4.05-8.747s-1.985.135-2.36-.778c-.054.456-.107.913-.188 1.315-.322 1.717-.912 6.413-1.234 9.203a8.46 8.46 0 0 0 2.307 1.959c1.636.912 2.387 4.212 5.606 4.99 2.521.617 8.824.134 11.506-.107-.081-1.073-.349-2.361-1.207-3.595Z" fill="#AB8DA8"/><path d="M126.319 282.821c.832.215 7.269 1.154 7.832-.858-2.038-4.669-4.264-10.545-4.264-10.545s-1.476-1.61-4.694-.912c-3.219.697-2.95 3.568-2.95 3.568s3.245 8.56 4.076 8.747Z" fill="#3B2645"/><path d="M121.019 215.459c2.546-.396 4.532-1.228 4.434-1.857-.098-.63-2.242-.819-4.789-.423-2.546.396-4.532 1.227-4.434 1.857.098.629 2.242.819 4.789.423Z" fill="#E0855C"/><path d="M61.063 265.971c.027-5.929.35-14.542.725-22.564.67-14.248 3.781-26.778 3.781-28.307 0-6.064.698-24.872 1.073-24.416l22.45 5.446c-.644 1.852-6.786 17.414-7.242 24.604-.456 7.191-10.273 43.01-10.729 45.667-.053.348-.107.697-.16 1.1-2.227.161-6.491.241-9.898-1.53Z" fill="#FFEDE5"/><path d="M68.278 274.772s.376-2.871-2.816-3.676c-3.192-.805-4.72.752-4.72.752.241-1.262.322-3.328.322-5.903 3.406 1.771 7.67 1.69 9.897 1.502-.269 2.066-.43 4.561-.269 6.627-.456.913-2.413.698-2.413.698Z" fill="#fff"/><path d="M71.229 287.114c-3.514 1.691-2.629 5.742-6.947 6.574-3.594.697-8.985.054-11.104-.268a1.256 1.256 0 0 1-1.073-1.127 6.81 6.81 0 0 1-.026-1.503c2.682.322 8.958 1.02 11.506.51 3.245-.671 4.13-3.944 5.766-4.803a8.31 8.31 0 0 0 2.388-1.878c.053.563.08 1.046.107 1.422.053.456-.215.885-.617 1.073Z" fill="#3B2645"/><path d="M53.393 287.275c.67-.885 1.69-2.817 2.735-5.017.51 2.039 6.947 1.314 7.805 1.127.859-.188 4.345-8.613 4.345-8.613s1.958.215 2.387-.698c.027.456.08.913.135 1.315.268 1.744.697 6.44.938 9.23a8.31 8.31 0 0 1-2.387 1.878c-1.663.859-2.521 4.105-5.766 4.803-2.522.536-8.825-.161-11.507-.51a6.735 6.735 0 0 1 1.315-3.515Z" fill="#AB8DA8"/><path d="M63.907 283.385c-.858.187-7.296.912-7.805-1.127 2.2-4.615 4.613-10.411 4.613-10.411s1.529-1.556 4.72-.751c3.192.805 2.817 3.676 2.817 3.676s-3.487 8.425-4.345 8.613Z" fill="#3B2645"/><path d="M76.277 217.391c.12-.625-1.837-1.523-4.369-2.005-2.532-.481-4.681-.364-4.8.262-.119.626 1.837 1.524 4.37 2.005 2.531.482 4.68.364 4.8-.262Z" fill="#E0855C"/><path d="M126.427 142.173s4.506 28.549 2.95 51.14c0 0-8.717 6.52-29.074 2.63l-3.138-17.95-5.15 18.057s-21.108 1.261-26.767-6.922c0 0 3.03-33.861 9.44-47.545 6.41-13.684 49.647-10.625 51.739.59Z" fill="#3B2645"/><path d="M97.165 177.993s-2.522-2.227-2.79-2.442c-.268-.215-2.601-9.444-2.601-9.444l2.575 21.759 2.816-9.873Z" fill="#3B2645"/><path d="M108.698 193.796c-4.533 0-7.805-.349-7.885-.349-.081 0-.135-.08-.108-.161 0-.08.081-.134.161-.107.188.027 18.185 1.932 28.672-3.354.054-.027.134 0 .188.054.027.054 0 .134-.054.188-6.142 3.085-14.752 3.729-20.974 3.729Zm-15.851-.536s-.027 0 0 0c-19.526-1.637-27.278-7.084-27.358-7.137-.054-.054-.08-.135-.027-.188.054-.054.134-.081.188-.027.08.054 7.778 5.447 27.223 7.083.08 0 .134.081.134.134-.053.081-.107.135-.16.135Z" fill="#fff"/><path d="M113.338 57.897s-4.13 8.291-13.598 8.908c-9.468.617-13.143-6.251-13.143-6.251l-15.1 5.902s2.736 9.713.993 18.111c0 0 3.996 14.274 3.996 16.072s3.352 9.418 3.567 11.215c.215 1.798-5.364 29.756-5.364 29.756s26.66 7.835 32.856 7.566c6.195-.268 18.882-7.003 18.882-7.003s-1.261-23.423 0-29.192c1.26-5.768 5.981-21.196 5.981-21.196s-3.996-20.204-2.87-28.253l-16.2-5.635Z" fill="#AB8DA8"/><path d="M129.35 91.463a.261.261 0 0 1-.268-.215c-2.36-9.659-2.816-28.575-2.816-28.763 0-.16.107-.268.268-.268.161 0 .268.107.268.268 0 .188.456 19.05 2.816 28.656.027.134-.053.295-.187.322h-.081Zm-55.976-3.461a.497.497 0 0 1-.187-.054c-.108-.107-.134-.268-.027-.376 4.72-5.339.375-21.786.322-21.947-.027-.135.053-.296.188-.322.134-.027.294.053.321.187.188.698 4.453 16.877-.456 22.431-.026.054-.107.08-.16.08ZM98.291 69.73c-9.387 0-14.242-8.05-14.295-8.157-.08-.134-.027-.295.107-.376.134-.08.295-.026.375.108.054.08 5.123 8.505 14.913 7.834 7.939-.536 12.23-5.634 13.652-7.324.483-.59.617-.725.831-.671a.29.29 0 0 1 .215.214.238.238 0 0 1-.188.322h-.053c-.081.08-.242.295-.403.483-1.448 1.718-5.847 6.95-14.027 7.513-.376.054-.751.054-1.127.054Z" fill="#472938"/><path d="M129.538 63.532s9.763-.537 11.828 14.864c0 0 10.031 19.05 11.185 25.141 1.153 6.09-.912 14.676-3.434 19.077-2.521 4.4-10.916 18.62-12.445 20.794-1.528 2.173-1.287 2.736-5.283 3.032 0 0-2.951.536-3.541.804-.59.269-4.157 2.174-4.881 1.905-.724-.241-1.422-1.207-1.288-1.395.161-.214 3.889-2.227 3.889-2.227s-6.007 1.02-6.571.993c-.563-.027-1.394-1.288-1.394-1.288s-1.958-.885-2.2-1.583c-.241-.698 1.905-2.093 1.905-2.093s-1.288-.322-1.744-.992c-.456-.671 7.51-4.937 8.476-4.884.965.054 7.51.886 7.51.886s8.69-27.958 8.77-29.702c.081-1.744-6.893-9.015-7.966-15.08.054 0-4.425-21.088-2.816-28.252Z" fill="#FFEDE5"/><path d="M117.227 145.313c-.107 0-.188-.054-.242-.161-.053-.134 0-.295.135-.349l6.061-2.764c.134-.053.295 0 .349.134.053.135 0 .296-.134.349l-6.062 2.764c-.027.027-.054.027-.107.027Zm.134-3.461a.28.28 0 0 1-.241-.135c-.081-.134-.027-.295.107-.375l5.927-3.166c.134-.081.295-.027.376.107.08.134.027.295-.107.376l-5.928 3.166c-.054 0-.107.027-.134.027Z" fill="#472938"/></svg>