<svg width="250" height="254" viewBox="0 0 250 254" fill="none" xmlns="http://www.w3.org/2000/svg"><defs><clipPath id="a"><path fill="#fff" d="M0 0h250v254H0z"/></clipPath></defs><g clip-path="url(#a)"><path d="m221.565 176.017 7.936-.167 3.908-.065c1.301-.03 2.59-.024 3.891-.036l-.267.268-.03-6.658.297.298-7.865-.036c-2.619 0-5.245-.066-7.864-.095l.16-.161c-.012 1.089-.053 2.184-.077 3.296l-.083 3.362-.006-.006Zm0 0-.083-3.296c-.03-1.113-.066-2.237-.078-3.362v-.161h.161c2.619-.029 5.245-.095 7.864-.101l7.865-.035h.297v.297l-.036 6.658v.268h-.267c-1.325-.012-2.655-.006-3.974-.036l-3.956-.066-7.793-.166Zm8.773 8.395 7.936-.167 3.909-.065c1.301-.03 2.59-.024 3.89-.036l-.267.268-.03-6.658.297.298-7.864-.036c-2.62 0-5.245-.065-7.865-.095l.16-.161c-.011 1.089-.053 2.184-.077 3.296l-.083 3.362-.006-.006Zm0 0-.083-3.296c-.03-1.113-.065-2.237-.077-3.362v-.16h.16c2.62-.03 5.245-.096 7.865-.102l7.864-.035h.297v.297l-.035 6.658v.268h-.268c-1.324-.012-2.655-.006-3.973-.036l-3.956-.065-7.794-.167Zm-17.547 0 7.936-.167 3.909-.065c1.301-.03 2.59-.024 3.891-.036l-.268.268-.029-6.658.297.298-7.865-.036c-2.62 0-5.245-.065-7.865-.095l.161-.161c-.012 1.089-.054 2.184-.078 3.296l-.083 3.362-.006-.006Zm0 0-.083-3.296c-.03-1.113-.065-2.237-.077-3.362v-.16h.16c2.62-.03 5.245-.096 7.865-.102l7.865-.035h.297v.297l-.036 6.658v.268h-.267c-1.325-.012-2.656-.006-3.974-.036l-3.956-.065-7.794-.167Zm-.956-142.234 7.936-.167 3.908-.065c1.301-.03 2.59-.024 3.891-.036l-.267.268-.03-6.658.297.297-7.865-.035c-2.619 0-5.245-.066-7.864-.095l.16-.161c-.012 1.089-.053 2.183-.077 3.296l-.083 3.362-.006-.006Zm0 0-.083-3.296c-.03-1.113-.066-2.238-.078-3.362v-.16h.161c2.619-.03 5.245-.096 7.864-.102l7.865-.036h.297v.298l-.036 6.658v.267h-.267c-1.325-.011-2.655-.006-3.974-.035l-3.956-.066-7.793-.166Zm8.774 8.395 7.936-.167 3.908-.065c1.301-.03 2.59-.024 3.891-.03l-.267.268-.03-6.658.297.297-7.865-.035c-2.619 0-5.245-.066-7.864-.096l.16-.16c-.012 1.089-.054 2.183-.077 3.296l-.083 3.362-.006-.012Zm0 0-.084-3.296c-.029-1.113-.065-2.238-.077-3.362v-.16h.161c2.619-.03 5.245-.096 7.864-.102l7.865-.035h.297v.297l-.036 6.658v.267h-.267c-1.325-.011-2.655-.006-3.974-.035l-3.956-.066-7.793-.166Zm-17.548 0 7.936-.167 3.909-.065c1.301-.03 2.59-.024 3.891-.03l-.268.268-.029-6.658.297.297-7.865-.035c-2.62 0-5.245-.066-7.865-.096l.161-.16c-.012 1.089-.054 2.183-.078 3.296l-.083 3.362-.006-.012Zm0 0-.083-3.296c-.03-1.113-.065-2.238-.077-3.362v-.16h.16c2.62-.03 5.245-.096 7.865-.102l7.865-.035h.297v.297l-.036 6.658v.267h-.267c-1.325-.011-2.656-.006-3.974-.035l-3.956-.066-7.794-.166ZM10.062 184.412l7.936-.167 3.909-.065c1.3-.03 2.59-.024 3.89-.036l-.267.268-.03-6.658.297.298-7.864-.036c-2.62 0-5.245-.065-7.865-.095l.16-.161c-.011 1.089-.053 2.184-.077 3.296l-.083 3.362-.006-.006Zm0 0-.083-3.296c-.03-1.113-.065-2.237-.077-3.362v-.16h.16c2.62-.03 5.245-.096 7.865-.102l7.865-.035h.297v.297l-.036 6.658v.268h-.267c-1.325-.012-2.656-.006-3.974-.036l-3.956-.065-7.794-.167Zm0-169.097 7.936-.167 3.909-.065c1.3-.03 2.59-.024 3.89-.036l-.267.268-.03-6.658.297.297-7.864-.035c-2.62 0-5.245-.066-7.865-.096l.16-.16c-.011 1.089-.053 2.183-.077 3.296l-.083 3.362-.006-.006Zm0 0-.083-3.296c-.03-1.113-.065-2.238-.077-3.362v-.16h.16c2.62-.03 5.245-.096 7.865-.102l7.865-.036h.297v.298l-.036 6.658v.267h-.267c-1.325-.012-2.656-.006-3.974-.035l-3.956-.066-7.794-.166ZM1.283 23.71l7.936-.167 3.909-.065c1.3-.03 2.59-.024 3.89-.036l-.267.268-.03-6.658.297.297-7.864-.035c-2.62 0-5.246-.066-7.865-.096l.16-.16c-.012 1.089-.053 2.183-.077 3.296l-.083 3.362-.006-.006Zm0 0L1.2 20.413c-.03-1.112-.066-2.237-.077-3.361v-.16h.16c2.62-.03 5.245-.096 7.865-.102l7.864-.035h.297v.297l-.035 6.658v.267h-.268c-1.324-.012-2.655-.006-3.974-.035l-3.956-.066-7.793-.166Zm229.055-8.39 7.936-.166 3.909-.066c1.301-.03 2.59-.023 3.89-.035l-.267.267-.03-6.657.297.297-7.864-.035c-2.62 0-5.245-.066-7.865-.096l.16-.16c-.011 1.089-.053 2.183-.077 3.296l-.083 3.361-.006-.006Zm0 0-.083-3.296c-.03-1.112-.065-2.23-.077-3.361v-.16h.16c2.62-.03 5.245-.096 7.865-.102l7.864-.036h.297v.298l-.035 6.657v.268h-.268c-1.324-.012-2.655-.006-3.973-.035l-3.956-.066-7.794-.167Zm-64.105 82.018-7.936.166-3.909.066c-1.301.03-2.59.024-3.89.03l.267-.268.03 6.657-.297-.297 7.864.036c2.62 0 5.245.065 7.865.095l-.16.16c.011-1.088.053-2.183.077-3.296l.083-3.361.006.012Zm0 0 .083 3.296c.03 1.112.065 2.231.077 3.361v.161h-.16c-2.62.03-5.245.095-7.865.101l-7.864.036h-.297v-.298l.035-6.657v-.268h.267c1.325.012 2.656.006 3.974.036l3.956.065 7.794.167Zm-8.774-8.396-7.936.167-3.908.066c-1.301.03-2.59.023-3.891.035l.267-.267.03 6.657-.297-.297 7.865.035c2.619 0 5.245.066 7.864.096l-.16.16c.012-1.088.054-2.183.077-3.296l.083-3.361.006.005Zm0 0 .084 3.297c.029 1.112.065 2.237.077 3.361v.16h-.161c-2.619.03-5.245.096-7.864.102l-7.865.036h-.297V95.6l.036-6.657v-.268h.267c1.325.012 2.655.006 3.974.035l3.956.066 7.793.166Z" fill="#EBEBEB"/><path d="M90.42 5.182H4.948v181.425h85.471V5.182Zm87.835 0H92.784v181.425h85.471V5.182Z" fill="#EBEBEB"/><path d="M51.221 5.182 4.948 51.537v-15.75L35.504 5.183H51.22Zm127.04 96.201v15.749l-69.362 69.475H93.176l85.085-85.224ZM9.462 186.607l80.958-81.089v15.749l-65.234 65.34H9.462ZM178.261 17.54v15.743l-85.477 85.616V103.15l85.477-85.61ZM82.692 5.182 4.948 83.052v-2.058L80.63 5.182h2.062Zm-59.413 0L4.948 23.543v-2.058l16.27-16.303h2.06ZM4.948 182.853l85.472-85.61V99.3L4.948 184.918v-2.065ZM178.261 9.258v2.064L92.784 96.933v-2.065l85.477-85.61ZM88.263 186.607l2.156-2.159v2.064l-.095.095h-2.06Zm89.998-90.144v2.065l-85.477 85.61v-2.058l85.477-85.617Zm0 40.851v2.064l-47.152 47.229h-2.061l49.213-49.293ZM88.317 5.182h2.103v5.456L4.948 96.248v-7.555l83.369-83.51Zm7.55 0L92.784 8.27V5.182h3.083ZM4.948 126.848l85.472-85.61V48.8L4.948 134.41v-7.562ZM133.966 5.182l-41.182 41.25v-7.568L126.41 5.182h7.556Zm44.295 155.532v7.556l-18.307 18.337h-7.55l25.857-25.893ZM72.689 186.607l17.73-17.76v7.557l-10.187 10.203H72.69ZM178.261 80.863v7.562l-85.477 85.611v-7.563l85.477-85.61Z" opacity=".4" fill="#fff"/><path d="M118.778 105.042H10.781v3.142h107.997v-3.142ZM10.775 93.792H6.778v25.643h3.997V93.792Z" fill="#C7C7C7"/><path d="M6.778 95.916h-2.65v21.395h2.65V95.916Z" fill="#C7C7C7"/><path d="M6.778 117.311H5.97l-.755-21.395h1.563v21.395Z" fill="#A6A6A6"/><path d="M118.778 119.435h3.997V93.792h-3.997v25.643Zm4.003-2.124h2.65V95.916h-2.65v21.395Z" fill="#C7C7C7"/><path d="M122.775 95.916h.808l.755 21.395h-1.563V95.916Z" fill="#A6A6A6"/><path d="M22.49 100.277h-5.531v99.479h5.53v-99.479Zm90.11 0h-5.53v99.479h5.53v-99.479Zm87.895-12.56h-6.884v15.749h6.884v-15.75Zm-6.884 1.69h-3.309v12.363h3.309V89.407Z" fill="#DBDBDB"/><path d="M193.611 89.407v12.369h-1.652l.606-12.37h1.046Z" fill="#C7C7C7"/><path d="M233 103.46h6.884V87.711H233v15.749Z" fill="#DBDBDB"/><path d="M239.884 101.77h3.309V89.407h-3.309v12.363Z" fill="#DBDBDB"/><path d="M239.884 101.77V89.4h1.658l-.606 12.37h-1.052Zm-6.878-9.168h-32.51v5.98h32.51v-5.98Z" fill="#C7C7C7"/><path d="M200.495 107.857h-6.884v15.749h6.884v-15.749Zm-6.884 1.689h-3.309v12.364h3.309v-12.364Z" fill="#DBDBDB"/><path d="M193.611 109.552v12.364h-1.652l.606-12.364h1.046Z" fill="#C7C7C7"/><path d="M233 123.606h6.884v-15.749H233v15.749Z" fill="#DBDBDB"/><path d="M239.884 121.916h3.309v-12.364h-3.309v12.364Z" fill="#DBDBDB"/><path d="M239.884 121.916v-12.37h1.658l-.606 12.37h-1.052Zm-6.878-9.175h-32.51v5.98h32.51v-5.98Z" fill="#C7C7C7"/><path d="M200.495 128.003h-6.884v15.749h6.884v-15.749Zm-6.884 1.689h-3.309v12.364h3.309v-12.364Z" fill="#DBDBDB"/><path d="M193.611 129.692v12.37h-1.652l.606-12.37h1.046Z" fill="#C7C7C7"/><path d="M233 143.746h6.884v-15.749H233v15.749Z" fill="#DBDBDB"/><path d="M239.884 142.056h3.309v-12.364h-3.309v12.364Z" fill="#DBDBDB"/><path d="M239.884 142.056v-12.364h1.658l-.606 12.364h-1.052Zm-6.878-9.169h-32.51v5.98h32.51v-5.98Z" fill="#C7C7C7"/><path d="M200.495 148.142h-6.884v15.749h6.884v-15.749Zm-6.884 1.696h-3.309v12.364h3.309v-12.364Z" fill="#DBDBDB"/><path d="M193.611 149.838v12.364h-1.652l.606-12.364h1.046Z" fill="#C7C7C7"/><path d="M233 163.897h6.884v-15.749H233v15.749Z" fill="#DBDBDB"/><path d="M239.884 162.202h3.309v-12.364h-3.309v12.364Z" fill="#DBDBDB"/><path d="M239.884 162.202v-12.37h1.658l-.606 12.37h-1.052Zm-6.878-9.175h-32.51v5.98h32.51v-5.98Z" fill="#C7C7C7"/><path d="M200.495 168.288h-6.884v15.749h6.884v-15.749Zm-6.884 1.69h-3.309v12.363h3.309v-12.363Z" fill="#DBDBDB"/><path d="M193.611 169.978v12.369h-1.652l.606-12.369h1.046Z" fill="#C7C7C7"/><path d="M233 184.037h6.884v-15.749H233v15.749Z" fill="#DBDBDB"/><path d="M239.884 182.347h3.309v-12.363h-3.309v12.363Z" fill="#DBDBDB"/><path d="M239.884 182.341v-12.363h1.658l-.606 12.363h-1.052Zm-6.878-9.168h-32.51v5.979h32.51v-5.979Z" fill="#C7C7C7"/><path d="M208.331 88.002h-5.174v111.754h5.174V88.002Zm22.014 0h-5.174v111.754h5.174V88.002Z" fill="#DBDBDB"/><path d="M114.649 252.727c63.32 0 114.65-4.451 114.65-9.942 0-5.491-51.33-9.942-114.65-9.942C51.33 232.843 0 237.294 0 242.785c0 5.491 51.33 9.942 114.649 9.942Z" fill="#EBEBEB"/><path d="M177.917 236.05c39.807 0 72.077-3.794 72.077-8.473s-32.27-8.472-72.077-8.472c-39.807 0-72.077 3.793-72.077 8.472 0 4.679 32.27 8.473 72.077 8.473Z" fill="#EBEBEB"/><path d="m2.762 199.756 30.08-.142 30.081-.054 60.161-.101 60.161.101 30.081.054 30.081.142-30.081.149-30.081.048-60.161.101-60.16-.101-30.081-.054-30.08-.143Z" fill="#263238"/><path d="M149.381 224.977c1.384.446 42.169-.065 43.654-1.041.57-.363-2.293-38.798-2.293-38.798l-26.356.262 2.803 25.714s-14.993 6.95-16.519 8.199c-1.509 1.238-2.673 5.218-1.295 5.658l.006.006Z" fill="#F7A9A0"/><path d="M149.387 224.977c1.378.446 42.169-.065 43.654-1.041.267-.161-.202-8.413-.779-17.26h-25.554l.487 4.438s-14.992 6.95-16.519 8.199c-1.509 1.238-2.679 5.218-1.289 5.658v.006Z" fill="#fff"/><path d="M148.935 225.536c1.456.476 42.638.09 44.206-.934.606-.38-.267-13.982-.267-14.059h-25.477l.012.458s-15.83 7.271-17.44 8.574c-1.598 1.303-2.495 5.491-1.04 5.961h.006Z" fill="#FFC727"/><path d="M149.048 223.918c6.997-.238 35.248-.535 42.186-.238.06 0 .06.042 0 .042-6.932.387-35.183.452-42.186.309-.149 0-.149-.107 0-.113Zm15.373-13.268c2.75-.541 6.124-.149 8.245 1.797.083.077-.024.19-.113.167-2.727-.833-5.269-1.363-8.114-1.613-.202-.018-.214-.309-.012-.351h-.006Zm-1.978 1.22c2.75-.541 6.124-.149 8.245 1.797.083.077-.024.19-.113.166-2.727-.833-5.269-1.362-8.114-1.612-.202-.018-.214-.309-.012-.351h-.006Zm-1.978 1.22c2.75-.542 6.124-.149 8.245 1.796.083.078-.024.191-.113.167-2.727-.833-5.269-1.362-8.114-1.612-.202-.018-.214-.31-.012-.351h-.006Z" fill="#263238"/><path d="M163.904 193.807h28.376s1.426-2.826 1.075-6.997c-1.134-13.625-4.597-42.69-4.431-43.576.285-1.488 1.366-8.205 3.594-16.981.701-2.748 1.455-5.694 2.233-8.746 2.115-8.258 4.449-17.284 6.481-25.137 3.047-11.769 5.429-20.908 5.429-20.908h-24.045s-2.804 8.901-6.333 20.48c-5.755 18.818-13.448 44.717-14.208 51.012-.921 7.628-1.497 32.159-.695 44.076.267 3.974 2.524 6.777 2.524 6.777Z" fill="#455A64"/><path d="M165.223 188.624c4.324-.089 3.083-.125 7.413-.166 2.115-.018 16.033-.143 18.011.184.041.006.041.084 0 .089-1.978.328-15.896.209-18.011.185-4.324-.042-3.083-.077-7.413-.167-.083 0-.083-.125 0-.125Zm37.072-113.895-4.408 15.558-4.306 15.589a1708.638 1708.638 0 0 0-4.2 15.618c-1.372 5.212-2.744 10.429-4.015 15.671-.303 1.315-.618 2.624-.879 3.957-.072.333-.119.678-.179 1.011-.011.185-.035.393-.029.565l.041.506.155 2.017.623 8.062 1.266 16.124 1.099 14.987-.024.173.321-.197-.927-14.999-1.182-16.13-.6-8.062-.149-2.016-.035-.506c0-.161.024-.292.03-.44.059-.328.101-.649.172-.976.261-1.309.576-2.624.885-3.933 2.524-10.472 5.334-20.884 8.066-31.308l8.263-31.265.012-.006Z" fill="#263238"/><path d="M183.198 71.462c1.669 12.935 7.71 34.431 10.027 52.031 5.423-21.324 13.442-52.03 13.442-52.03h-23.469Z" fill="#263238"/><path d="M241.155 224.769c-1.396.434-35.652.589-37.137-.405-.571-.368-.772-6.152-.82-13.154v-.221c-.012-1.439-3.326-25.679-3.326-25.679l25.88.53 2.994 25.459-.018.434s9.665 6.069 11.18 7.336c1.503 1.261 2.637 5.272 1.241 5.7h.006Z" fill="#F7A9A0"/><path d="M202.723 206.676c.291 2.314.481 3.974.481 4.313v.221c.047 6.996.243 12.78.814 13.148 1.485.994 35.747.845 37.137.411 1.396-.428.267-4.444-1.241-5.706-1.515-1.267-11.18-7.336-11.18-7.336l.018-.434-.546-4.623h-25.489l.006.006Z" fill="#fff"/><path d="M242.848 225.536c-1.455.476-38.296.09-39.87-.934-.606-.38.267-13.982.267-14.059h25.477l-.011.458s11.488 7.271 13.097 8.574c1.598 1.303 2.495 5.491 1.04 5.961Z" fill="#FFC727"/><path d="M242.741 223.918c-6.998-.238-30.912-.535-37.844-.238-.06 0-.06.042 0 .042 6.932.387 30.846.452 37.844.309.148 0 .148-.107 0-.113Zm-12.748-12.613c-2.696-.756-6.094-.625-8.363 1.148-.089.071.012.19.101.173 2.78-.619 5.358-.946 8.215-.976.202 0 .238-.292.041-.345h.006Zm1.877 1.374c-2.696-.756-6.094-.625-8.357 1.148-.089.072.011.191.101.173 2.78-.619 5.358-.946 8.215-.976.202 0 .231-.291.041-.345Zm1.877 1.369c-2.696-.756-6.094-.625-8.363 1.148-.089.071.012.19.101.172 2.78-.618 5.358-.946 8.215-.975.202 0 .231-.292.041-.345h.006Z" fill="#263238"/><path d="M183.198 71.462s3.647 22.258 3.896 22.978c0 0 1.355.643 3.802 1.773 0 0 6.326 69.719 6.326 90.275 0 3.457 2.394 7.206 2.394 7.206l28.512.113s2.103-4.153 1.996-7.789c-.867-28.897-15.806-114.562-15.806-114.562h-31.12v.006Z" fill="#455A64"/><path d="M200.597 188.612c4.354-.071 3.106-.113 7.46-.136 2.133-.012 16.139-.072 18.129.267.042.006.042.084 0 .09-1.995.321-16.002.142-18.129.113-4.354-.06-3.106-.09-7.46-.203-.084 0-.084-.125 0-.125v-.006Zm-14.69-94.862c2.839 1.13 5.559 2.671 8.149 4.278.101.065.024.22-.083.166-2.75-1.338-5.56-2.63-8.233-4.117-.208-.119-.053-.416.167-.327Zm1.051-12.756c.451 2.665.695 5.372.998 8.056.071.642.148 1.285.22 1.933.065.59.13 1.184.463 1.696.582.898 1.616 1.32 2.554 1.731.107.048.066.22-.053.185-.951-.298-2.008-.69-2.709-1.434-.855-.904-.826-2.279-.962-3.445-.327-2.88-.636-5.795-.624-8.698 0-.066.107-.084.119-.012l-.006-.012Z" fill="#263238"/><path d="M190.189 81.809c.095 1.916.309 3.837.47 5.753.077.946.142 1.892.202 2.838.059.964.172 1.946.136 2.91 0 .065-.107.083-.119.011-.154-.91-.178-1.856-.255-2.778-.077-.97-.143-1.94-.196-2.915-.107-1.94-.16-3.891-.333-5.825 0-.06.089-.06.095 0v.006Zm1.283 17.254 1.533 13.066 1.592 13.059 3.279 26.096 4.579 34.734-3.974-34.812-3.421-26.077-1.764-13.036-1.824-13.03Z" fill="#263238"/><path d="M187.807 41.232c-2.471 8.686-8.185 22.882-11.785 26.684-3.997 4.225-20.44-1.808-30.936-5.241-2.085-.685 2.198-17.237 4.384-16.392 5.72 2.201 17.802 7.651 19.026 7.015 1.004-.524 8.756-10.317 13.282-14.958 7.259-7.437 7.764-3.225 6.023 2.892h.006Z" fill="#F7A9A0"/><path d="M149.731 63.823c2.056-.363 5.133-13.786 3.772-15.446-.255-.31-.861-.78-1.693-1.32 0 0-2.845-3.856-4.08-7.896-1.04-3.397-2.198-8.556-4.046-8.062-2.69.708-2.007 7.414-1.384 11.233-1.972-.726-3.742-1.16-4.865-1.035-3.73.41-4.015 17.32-.795 19.366 3.106 1.976 11.036 3.523 13.091 3.16Z" fill="#F7A9A0"/><path d="m141.31 34.378-3.49.32.18 1.978 3.49-.32-.18-1.978Z" fill="#263238"/><path d="m141.747 33.666-4.478.41.118 1.297 4.478-.41-.118-1.297Z" fill="#455A64"/><path d="m133.678 37.034-.863 1.038 1.639 1.367.863-1.038-1.639-1.367Z" fill="#263238"/><path d="m133.395 36.28-1.372 1.651 1.073.895 1.372-1.65-1.073-.895Z" fill="#455A64"/><path d="m144.449 37.568 1.036.864 1.365-1.641-1.036-.864-1.365 1.641Z" fill="#263238"/><path d="m145.071 36.195 1.648 1.374.893-1.074-1.648-1.375-.893 1.075Zm3.912 7.785c.427 4.695-3.024 8.848-7.711 9.276-4.686.428-8.832-3.028-9.26-7.723-.428-4.694 3.023-8.847 7.71-9.275 4.687-.429 8.833 3.028 9.261 7.722Z" fill="#455A64"/><path d="M147.884 47.762c1.729-4.152-.229-8.922-4.373-10.654-4.145-1.732-8.907.229-10.637 4.38-1.729 4.152.229 8.922 4.373 10.654 4.145 1.732 8.907-.229 10.637-4.38Z" fill="#263238"/><path d="M147.578 45.827c.612-3.925-2.068-7.604-5.987-8.218-3.919-.613-7.592 2.072-8.204 5.997-.612 3.925 2.068 7.604 5.987 8.218 3.919.613 7.592-2.072 8.204-5.997Z" fill="#fff"/><path d="m139.955 38.077-.136.013.099 1.084.136-.012-.099-1.085Zm-3.249 1.158-.112.08.627.889.112-.08-.627-.889Zm-2.225 2.632-.057.124.987.457.057-.124-.987-.457Zm.455 3.301-1.083.099.012.136 1.083-.099-.012-.136Zm.965 2.712-.888.628.078.112.889-.627-.079-.112Zm2.203 1.889-.455.988.124.058.455-.99-.124-.056Zm2.968.499-.136.013.098 1.084.136-.013-.098-1.084Zm2.688-1.026-.112.08.627.889.112-.079-.627-.89Zm1.817-2.247-.057.124.986.456.058-.124-.987-.456Zm1.544-2.95-1.082.099.012.136 1.083-.1-.013-.135Zm-1.227-3.217-.889.627.079.112.888-.628-.078-.111Zm-2.669-2.192-.455.988.124.057.455-.988-.124-.057Z" fill="#C7C7C7"/><path d="m140.073 39.536.832 5.575-.725.06-.303-5.623.196-.012Z" fill="#263238"/><path d="M140.738 44.7a.247.247 0 1 1-.493.042.247.247 0 1 1 .493-.042Z" fill="#FFC727"/><path d="M138.481 41.773c1.443 1.309-.927 2.267-.927 2.267s3.742-.553 4.711 1.374c.926 1.863-1.978 2.916-2.18 2.993.196-.03 3.647-.446 4.425 1.595.802 2.118-2.293 2.677-2.495 2.707.196.035 2.768.511 3.006 2.195.404 2.892-6.214 1.85-8.061 3.32 0 0 2.133 3.421 2.168 3.534 0 0-6.314-.863-8.155-3.469-.969-1.374.118-2.552.118-2.552s-2.067-.053-2.726-1.636c-.339-.815.665-2.076.665-2.076s-1.651-.114-2.15-1.56c-.404-1.154.665-2.242.665-2.242s-1.538-.845-1.568-2.16c-.065-2.648 9.409-7.092 12.504-4.29Z" fill="#F7A9A0"/><path d="M127.688 48.02c-.03.018-.06-.024-.03-.041 2.756-2.226 6.469-3.82 10.027-4.005.118-.005.178.179.047.215-3.629.886-6.783 1.969-10.044 3.831Zm1.289 4.004c-.036.018-.072-.035-.036-.065 2.851-2.279 7.081-3.957 11.209-3.683.143.012.261.16.095.16-2.756.025-8.34 1.893-11.268 3.588Zm13.317.81c-3.968-.108-7.567 1.065-11.09 2.802-.047.024-.071-.042-.041-.072 1.49-1.32 3.855-2.195 5.75-2.718 1.817-.5 3.552-.59 5.381-.15.072.019.083.144 0 .138Z" fill="#263238"/><path d="M137.596 43.986c.142-.006 0 .209.136.203.588-.012 4.146.232 4.437 1.47.232.993-.938 1.998-1.538 2.207l-1.509.523 1.604.036c.701.012 1.432.125 2.085.369.653.238 1.235.648 1.461 1.237.244.613.113 1.244-.404 1.636-.499.405-1.217.637-1.889.738l-1.871.292 1.854.339c.504.09 1.027.25 1.496.476.464.226.897.523 1.129.928.226.393.244.916-.012 1.273-.261.375-.754.625-1.247.815-1.01.375-2.115.536-3.196.75a37.51 37.51 0 0 0-1.634.333c-.534.137-1.098.28-1.538.63.469-.303 1.034-.374 1.568-.481a30.37 30.37 0 0 1 1.646-.208c1.104-.125 2.209-.256 3.308-.595.535-.185 1.111-.405 1.527-.928.427-.542.404-1.315.089-1.875-.321-.57-.85-.928-1.372-1.19a6.788 6.788 0 0 0-1.658-.553l-.017.625c.79-.12 1.556-.327 2.239-.85.333-.257.618-.655.713-1.102.095-.452.03-.892-.131-1.29-.338-.828-1.117-1.316-1.847-1.566-.755-.261-1.515-.362-2.299-.368l.089.559c.754-.292 2.186-1.267 2.014-2.856-.529-2.035-4.509-1.678-5.228-1.565l-.005-.012Z" fill="#263238"/><path d="M137.56 44.04c.351-.244.671-.506.891-.797.226-.292.279-.625.166-.905-.107-.285-.409-.53-.736-.75-.333-.208-.695-.41-1.075-.6.427-.012.861.053 1.271.22.404.166.826.428 1.045.922.089.256.107.524.042.773-.077.25-.226.465-.398.62-.351.315-.778.463-1.206.511v.006Z" fill="#263238"/><path d="M187.956 41.88c-1.842 5.39-4.408 13.268-4.408 13.268l-5.881-.97-9.48-1.564s7.882-10.9 15.242-16.707c3.754-2.957 5.358-2.91 5.822-1.482.493 1.559-.363 4.736-1.295 7.45v.005Z" fill="#FFC727"/><path opacity=".1" d="M187.956 41.88c-1.842 5.39-4.408 13.268-4.408 13.268l-5.881-.97 11.584-19.747c.493 1.553-.363 4.73-1.295 7.443v.006Z" fill="#000"/><path d="M183.875 51.638c-6.428-1.38-11.387-1.541-12.593-1.708-.06-.006-.066.083 0 .09 1.194.1 7.092 1.195 12.593 1.713.065.006.065-.083 0-.101v.006Z" fill="#263238"/><path d="M216.741 81.148c-.083.113-38.176 3.136-38.586 2.755-.571-.535 3.457-36.96 5.886-45.277 2.418-8.276 10.485-9.33 13.936-5.135 10.769 13.095 19.061 47.24 18.764 47.651v.006Z" fill="#FFC727"/><path d="M195.951 38.019c2.976 3.242 18.8 14.565 19.442 15.868.641 1.303-4.039 7.514-3.927 8.068.464 2.26 7.241 18.319 9.035 16.552 2.364-2.333 12.605-20.723 10.324-26.845-2.281-6.129-29.706-18.314-33.93-19.159-4.223-.844-3.884 2.32-.944 5.516Z" fill="#F7A9A0"/><path d="M212.732 81.975c-1.753-1.07.511-2.528.511-2.528s-3.766 1.303-5.144-.5c-1.325-1.743 1.473-3.403 1.675-3.528-.202.065-3.689 1.178-4.889-.78-1.247-2.034 1.853-3.218 2.049-3.296-.208 0-2.964.012-3.54-1.684-.986-2.915 6.908-3.617 8.53-5.503 0 0-.945-3.861-1.01-3.969 0 0 .939 1.482 2.335 1.81 1.734.404 3.284.612 4.015 1.403 1.2 1.303.38 2.666.38 2.666s2.151-.351 3.143 1.16c.504.78-.286 2.285-.286 2.285s1.735-.209 2.531 1.19c.641 1.112-.25 2.451-.25 2.451s1.759.571 2.044 1.928c.582 2.725-8.346 9.186-12.1 6.895h.006Z" fill="#F7A9A0"/><path d="M222.681 73.39s.066.012.042.042c-2.418 2.844-5.946 5.224-9.593 6.11-.119.03-.22-.155-.095-.208 3.582-1.636 6.635-3.368 9.646-5.938v-.006Zm-2.114-3.885c.03-.03.077.024.047.06-2.506 2.915-6.557 5.485-10.876 6.014-.148.018-.297-.113-.131-.148 2.846-.566 8.263-3.6 10.96-5.926Zm-13.948 1.779c4.123-.667 7.622-2.588 10.93-5.081.042-.03.083.03.054.071-1.289 1.66-3.564 3.028-5.424 3.945-1.782.874-3.564 1.309-5.542 1.214-.077 0-.113-.131-.024-.143l.006-.006Z" fill="#263238"/><path d="M222.901 73.146c.577-.797.951-1.785.488-2.737a1.976 1.976 0 0 0-1.016-.946c-.547-.232-1.271-.107-1.628-.077.493-.922.63-2.094-.089-2.94-.333-.392-.778-.535-1.289-.612-.273-.042-1.384.035-1.687.148a2.3 2.3 0 0 0 .398-2.028c-.226-.798-.855-1.31-1.604-1.607-.861-.339-1.8-.369-2.708-.5-.47-.065-1.551-.291-2.78-1.57-.066-.066-.078-.042-.042.023.255.429.671.881.956 1.107.291.226.612.417.951.56.825.35 1.722.404 2.578.63.748.197 1.491.547 1.972 1.178.499.649.523 1.517.172 2.237-.024.036 0 .084.066.078.368-.048 1.277.035 1.514.1.404.12.82.28 1.087.608.6.743.624 1.838.256 2.719-.012.03.897-.018 1.604.339.332.166.599.476.784.797.433.762.368 1.761-.137 2.475-.006.012-.006.024-.006.036v.024c0 .012.012.017.018.03 0 0 .564.202.588.208.018 0 .012-.018 0-.03-.024-.018-.392-.22-.469-.238l.023-.012Z" fill="#263238"/><path d="m219.699 42.207-10.377 10.448s-8.75-8.746-12.539-12.994c-3.671-4.117-7.633-10.055 1.687-7.265 8.969 2.69 21.235 9.811 21.235 9.811h-.006Z" fill="#FFC727"/><path d="M216.682 41.03c-4.877 4.414-7.9 8.353-8.744 9.233-.041.042.03.102.072.06.784-.91 5.114-5.063 8.749-9.228.042-.048-.029-.107-.077-.066Z" fill="#263238"/><path d="M211.461 50.495c-.327.393-.66.774-.998 1.155-.333.386-.671.761-1.022 1.13l-.119.125-.136-.125a101.556 101.556 0 0 1-2.62-2.451 126.782 126.782 0 0 1-2.53-2.54 72.687 72.687 0 0 1-2.436-2.636 48.869 48.869 0 0 1-2.305-2.755c.874.82 1.741 1.642 2.59 2.48.862.828 1.711 1.66 2.555 2.506l2.518 2.546c.832.857 1.651 1.726 2.471 2.594h-.249c.368-.345.742-.69 1.122-1.023.381-.34.755-.678 1.147-1.006h.012Z" fill="#263238"/><path d="M199.979 44.04c.493.28.932.56 1.378.857.439.303.879.613 1.277 1.017-.565-.095-1.064-.345-1.527-.648-.451-.316-.885-.702-1.128-1.226Z" fill="#263238"/><path d="M188.865 39.131c2.091.518 5.013-2.933 5.797-5.7.054-.19-1.716-6.812-2.025-8.162-.06-.28-7.984 3.992-7.984 3.992s1.479 2.642 2.002 4.998c.042.196.065.386.065.565 0 .024 0 .06.006.095.072 1.089 1.064 3.95 2.139 4.212Z" fill="#F7A9A0"/><path d="M186.726 34.925c.273-.024.57-.072.879-.155 4.414-1.112 4.764-6.913 4.705-9.418-1.497.589-7.663 3.909-7.663 3.909s1.479 2.642 2.002 5.003c.041.197.065.387.071.566 0 .023 0 .06.006.095Z" fill="#263238"/><path d="M190.997 14.595c1.794 2.671 2.821 11.655 1.307 14.19-2.198 3.677-7.081 5.45-10.526 2.51-3.338-2.85-4.473-14.582-2.661-17.022 2.673-3.587 9.231-3.629 11.88.316v.006Z" fill="#F7A9A0"/><path d="M184.516 22.038s.054.024.054.047c.053.607.214 1.291.784 1.428.018 0 .018.036 0 .036-.677-.012-.885-.928-.838-1.511Z" fill="#263238"/><path d="M184.98 21.342c.962-.19 1.271 1.749.38 1.927-.879.173-1.188-1.767-.38-1.927Zm-3.933 1.088s-.042.036-.036.06c.113.6.149 1.303-.362 1.589-.018.005-.012.041.012.035.647-.202.6-1.136.392-1.684h-.006Z" fill="#263238"/><path d="M180.412 21.89c-.981.082-.743 2.034.16 1.956.891-.07.659-2.028-.16-1.957Zm5.019-2.268c-.255.095-.511.143-.778.214-.297.078-.529.173-.832.066-.166-.06-.273-.286-.231-.452.095-.381.433-.572.79-.685.386-.119.712-.113 1.087.042.362.149.303.684-.036.81v.005Zm-6.011 2.029c.273 0 .528-.042.802-.065.309-.03.558-.018.808-.226.136-.108.154-.363.065-.506-.22-.327-.606-.387-.974-.363a1.55 1.55 0 0 0-1.01.41c-.291.262-.048.744.315.75h-.006Zm6.546 5.747c-.119.167-.232.381-.452.435-.208.053-.463 0-.671-.048-.018 0-.036.018-.024.036.19.208.547.297.814.202.261-.089.362-.345.386-.607 0-.035-.041-.041-.059-.018h.006Z" fill="#263238"/><path d="M185.051 25.697c-.255.577-.701.94-1.218 1.13a2.529 2.529 0 0 1-.73.15c-.048.005-.095.011-.143.005h-.137c-.071 0-.118-.053-.142-.113v-.125c-.095-.458-.16-1.172-.16-1.172-.155.113-.957.637-.981.393-.202-2.023-.421-4.272-.196-6.325 0-.065.107-.071.113 0 .268 1.934.196 3.91.434 5.855.255-.15.677-.417.921-.447.071.006.107 1.38.16 1.583 0 0 0 .012.006.024.79-.024 1.342-.351 2.014-1 .041-.041.095-.006.065.048l-.006-.006Z" fill="#263238"/><path d="M183.358 26.774s.517.464 1.117.547c.219.03.445.018.665-.095.451-.226.374-.66.208-1.017-.137-.292-.333-.53-.333-.53s-.558.797-1.657 1.095Z" fill="#263238"/><path d="M184.475 27.321c.219.03.445.018.665-.095.451-.226.374-.66.208-1.017-.499.154-.933.606-.873 1.112Z" fill="#FF99BA"/><path d="M191.627 20.86c-1.473.339-2.365-3.249-2.365-3.249s-2.322.25-4.288-2.469c0 0-2.317 2.618-4.83 2.88-3.932.41-5.245-4.474-4.14-5.873 1.568-1.98 5.691-.97 5.691-.97s4.906-3.052 7.544.102c0 0 2.411-.59 3.344 1.993.933 2.588.131 7.336-.968 7.586h.012Z" fill="#263238"/><path d="M189.904 17.879c-1.123.101-2.275-.095-3.231-.714-.992-.637-1.8-1.82-1.806-3.022 0-.066-.107-.06-.101.005.095 1.315.534 2.559 1.627 3.374.998.744 2.382.982 3.535.464.053-.024.047-.113-.024-.107Zm2.429-6.206c-1.003-.72-2.174-.535-3.267-.172-.065.024-.023.125.036.095 1.057-.446 2.37-.036 3.196.696.814.714 1.01 1.857 1.063 2.892.107 1.987-.493 3.98-1.746 5.533-.018.024.017.06.041.036 1.45-1.654 2.216-3.88 1.996-6.081-.107-1.077-.386-2.326-1.319-2.993v-.006Z" fill="#263238"/><path d="M191.288 22.085s1.152-3.314 2.602-2.98c1.449.333 1.128 4.76-.19 5.723-1.319.964-2.234-.238-2.234-.238l-.178-2.505Z" fill="#F7A9A0"/><path d="M193.765 20.372s.036.024.018.036c-.915.708-1.188 1.826-1.289 2.927.202-.47.558-.797 1.176-.577.03.012.018.06-.012.065-.451.03-.73.19-.92.607-.137.297-.184.643-.256.958-.024.107-.202.101-.196-.012v-.024c-.398-1.309.107-3.445 1.485-3.98h-.006Z" fill="#263238"/><path d="M4.538 243.749c-.44-1.44.69-43.225 1.699-44.76.036-.054.119-.107.25-.155 1.247-.458 6.551.423 13.056.375.119 0 2.162.095 5.06.232 7.568.357 20.933 1.011 20.933 1.011l-.552 27.244-21.075-1.802-4.9-.417s-7.33 15.44-8.614 16.992c-1.295 1.553-5.417 2.719-5.857 1.292v-.012Z" fill="#D3766A"/><path d="M4.538 243.749c-.44-1.44.69-43.225 1.699-44.76.036-.054.119-.107.25-.155 1.247-.458 6.551.423 13.056.375.119 0 2.162.095 5.06.232l-.694 26.453-4.9-.417s-7.33 15.44-8.614 16.992c-1.295 1.553-5.417 2.719-5.857 1.292v-.012Z" fill="#fff"/><path d="M4.544 243.749c-.445-1.434.683-43.225 1.7-44.76.38-.583 5.933-.815 13.299.214l-.529 26.262s-7.324 15.434-8.619 16.993c-1.295 1.552-5.411 2.713-5.85 1.279v.012Z" fill="#FFC727"/><path d="M6.184 243.201c.326-6.824.992-34.383.79-41.148 0-.054-.042-.054-.042 0-.469 6.759-.909 34.318-.861 41.148 0 .143.107.149.113 0Zm5.732-3.32c.1-1.618-.63-3.218-1.568-4.123-.903-.868-2.192-1.624-3.606-1.612-.041 0-.041.077 0 .083 2.661.452 4.948 2.933 5.09 5.646 0 .054.084.06.084 0v.006Zm6.356-11.774c.1-2.731-.79-5.926-2.982-7.675-.083-.066-.178.053-.143.137 1.218 2.498 2.11 4.872 2.786 7.574.048.19.333.154.339-.042v.006Zm-.867 2.088c.1-2.731-.79-5.926-2.982-7.675-.083-.065-.178.054-.143.137 1.218 2.499 2.109 4.873 2.786 7.574.048.19.333.155.339-.042v.006Zm-.873 2.094c.1-2.73-.79-5.925-2.982-7.675-.084-.065-.179.054-.143.137 1.218 2.499 2.109 4.873 2.786 7.574.047.191.333.155.339-.041v.005Zm-.868 2.089c.1-2.731-.79-5.92-2.982-7.675-.083-.066-.178.053-.143.137 1.212 2.498 2.11 4.872 2.786 7.574.048.19.333.154.339-.042v.006Zm-2.251-30.439c.06-3.064-4.699-3.165-4.758-.095-.06 3.064 4.698 3.165 4.758.095Z" fill="#263238"/><path d="M25.483 231.225c1.176-1.357.095-3.124-1.07-4.005-1.894-1.428-4.573-2.439-6.92-2.641-.059 0-.082.035-.077.083-.196.053-.368.28-.231.488 1.3 1.975 2.441 4.254 4.306 5.771 1.087.887 2.881 1.595 3.992.309v-.005Zm-5.72-3.487c-.666-.958-1.271-1.94-1.972-2.874 1.348.518 2.714.976 4.01 1.636.617.316 1.247.649 1.817 1.042.885.612 3.107 3.349.13 3.552-1.639.113-3.195-2.214-3.985-3.356Z" fill="#263238"/><path d="M16.638 217.766c-.421 2.374.202 4.843.511 7.187.03.244.31.304.493.215.03.035.078.053.113.012 1.64-1.696 3.006-4.213 3.51-6.533.31-1.434-.029-3.475-1.805-3.731-1.681-.244-2.572 1.47-2.822 2.85Zm1.592-1.612c2.382-1.797 2.49 1.725 2.222 2.772-.172.673-.434 1.339-.695 1.976-.553 1.344-1.283 2.582-1.966 3.861-.083-1.16-.262-2.308-.386-3.463-.149-1.38-.493-4.159.825-5.146Zm45.073-73.057c-2.09 11.501 6.362 54.934 2.988 57.034-2.976 1.851-24.788 0-24.788 0v27.375s27.063 4.409 41.39-.678c2.353-.833 5.163-3.665 8.127-7.586 10.549-13.958-.962-76.669-.962-76.669l-26.755.524Z" fill="#263238"/><path d="M50.241 215.404h-5.47l5.744-14.678c1.746.083 3.593.161 5.387.196l-5.66 14.482Zm9.552 0h-5.465l5.655-14.458c2.465-.041 4.538-.196 5.679-.547l-5.869 15.005Z" fill="#FFC727"/><path d="m94.857 180.158-29.433-3.748c-1.467-12.888-3.202-27.363-2.12-33.307l26.754-.524s3.385 18.462 4.8 37.579Z" fill="#37474F"/><path d="M165.366 244.921c-1.432.458-43.161-.292-44.699-1.291-.054-.036-.107-.119-.161-.244-.469-1.25.357-6.569.256-13.084 0-.119.077-2.165.184-5.075l.261-19.057 26.992.304-.838 19.205-.374 4.909s15.48 7.199 17.042 8.472c1.562 1.279 2.762 5.397 1.343 5.855l-.006.006Z" fill="#D3766A"/><path d="M165.366 244.921c-1.432.458-43.161-.292-44.699-1.291-.054-.036-.107-.119-.161-.244-.469-1.25.357-6.569.256-13.084 0-.119.077-2.165.184-5.075l26.415.452-.374 4.909s15.48 7.199 17.042 8.472c1.562 1.279 2.762 5.397 1.343 5.855l-.006.006Z" fill="#fff"/><path d="M165.366 244.921c-1.426.458-43.161-.286-44.699-1.291-.588-.375-.867-5.938.095-13.322l26.225.286s15.474 7.193 17.048 8.472c1.562 1.279 2.762 5.391 1.331 5.849v.006Z" fill="#FFC727"/><path d="M164.801 243.285c-6.813-.262-34.333-.679-41.087-.417-.054 0-.054.042 0 .042 6.748.41 34.268.595 41.087.488.143 0 .143-.108 0-.113Zm-3.368-5.712c-1.615-.089-3.207.66-4.104 1.612-.861.916-1.604 2.208-1.574 3.624 0 .041.077.041.083 0 .428-2.666 2.887-4.98 5.595-5.153.054 0 .054-.083 0-.083Zm-11.814-6.259c-2.727-.078-5.905.845-7.633 3.058-.066.083.053.178.136.137 2.483-1.238 4.841-2.154 7.538-2.862.19-.048.155-.333-.041-.339v.006Zm2.096.85c-2.726-.077-5.904.845-7.633 3.059-.065.083.054.178.137.136 2.483-1.237 4.841-2.153 7.538-2.861.19-.048.154-.334-.042-.339v.005Zm2.097.851c-2.726-.077-5.904.845-7.633 3.058-.065.084.053.179.137.137 2.483-1.237 4.841-2.154 7.538-2.862.19-.047.154-.333-.042-.339v.006Zm2.097.851c-2.726-.077-5.904.845-7.633 3.058-.065.084.054.179.137.137 2.483-1.237 4.841-2.154 7.538-2.862.19-.047.154-.333-.042-.339v.006Zm-30.372 2.541c-3.059-.036-3.118 4.73-.053 4.765 3.065.036 3.118-4.73.053-4.765Z" fill="#263238"/><path d="M152.672 224.061c-1.366-1.166-3.119-.071-3.992 1.113-1.408 1.909-2.394 4.599-2.578 6.955 0 .059.042.083.083.077.054.196.285.363.487.226 1.961-1.321 4.224-2.487 5.721-4.367.873-1.101 1.562-2.897.273-4.004h.006Zm-3.428 5.765c-.95.673-1.924 1.291-2.851 1.999.505-1.356.951-2.725 1.592-4.028.309-.624.636-1.255 1.022-1.832.606-.893 3.314-3.142 3.546-.167.125 1.642-2.18 3.219-3.315 4.022l.006.006Z" fill="#263238"/><path d="M139.313 233.045c2.37.399 4.829-.244 7.169-.577.244-.036.303-.309.214-.494.036-.03.054-.077.012-.113-1.705-1.63-4.235-2.975-6.558-3.451-1.431-.297-3.469.06-3.707 1.845-.225 1.683 1.491 2.564 2.875 2.796l-.005-.006Zm-1.628-1.577c-1.812-2.368 1.699-2.51 2.75-2.249.671.167 1.337.423 1.984.679 1.349.541 2.59 1.261 3.873 1.933-1.158.09-2.299.28-3.457.417-1.378.16-4.146.529-5.15-.78Zm10.033-13.981h-26.754s1.021-43.547-1.854-43.463c-7.68.22-40.036 7.484-52.546-.911-12.385-8.305-4.858-30.016-4.858-30.016l28.874-.601s.41 1.119.339 2.683c0 0 38.848-2.314 49.148 5.159 3.374 2.445 7.734 8.883 8.322 15.136 1.669 17.808-.677 52.013-.677 52.013h.006Z" fill="#263238"/><path d="m132.63 195.092-11.488 5.075c0-1.827-.012-3.701-.036-5.557l11.298-4.992.226 5.474Zm.398 9.567-11.94 5.271c.018-1.689.036-3.581.048-5.586l11.666-5.153.226 5.468Z" fill="#FFC727"/><path d="M79.787 114.378c12.344 8.038 22.353 10.328 25.091 10.519 6.861.476 15.801 1.297 20.701.083 1.812-.446-4.217-16.79-6.166-16.374-6.106 1.309-15.854 2.636-16.091 2.648-1.699.077-14.31-2.612-23.018-3.463-3.784-.369-2.928 5.016-.51 6.587h-.007Z" fill="#D3766A"/><path d="M130.111 123.963c-3.326 1.475-11.304 1.838-13.258 1.178-1.96-.655-3.017-14.22-1.449-15.642 1.568-1.428 13.145-5.533 16.733-4.581 3.588.946 1.42 17.516-2.026 19.045Z" fill="#D3766A"/><path d="m136.285 101.378.014-5.867-17.19-.042-.015 5.867 17.191.042Zm-1.428-5.871.007-2.82-14.322-.036-.007 2.82 14.322.036Z" fill="#455A64"/><path d="m120.534 94.054-.003 1.41 14.321.035.004-1.41-14.322-.035Z" fill="#263238"/><path d="m119.031 124.819-.014 5.867 17.19.042.014-5.866-17.19-.043Zm1.422 5.875-.007 2.82 14.322.035.007-2.82-14.322-.035Z" fill="#455A64"/><path d="m120.445 130.686-.003 1.411 14.321.035.004-1.41-14.322-.036Z" fill="#263238"/><path d="m130.176 124.855.049-23.495-5.079-.011-.049 23.496 5.079.01Z" fill="#37474F"/><path d="M126.328 104.572c-1.105 1.583 1.39 1.976 1.39 1.976s-3.724.297-4.235 2.368c-.481 1.999 2.548 2.368 2.762 2.398-.196.017-3.612.38-3.909 2.516-.303 2.22 2.798 2.071 3 2.059-.178.077-2.554 1.107-2.412 2.778.25 2.874 6.392.405 8.495 1.41 0 0-1.295 3.767-1.313 3.886 0 0 5.892-2.231 7.092-5.147.63-1.541-.677-2.433-.677-2.433s1.978-.506 2.263-2.184c.143-.857-1.099-1.856-1.099-1.856s1.569-.476 1.729-1.975c.131-1.202-1.135-2.011-1.135-2.011s1.295-1.155 1.034-2.422c-.523-2.564-10.627-4.748-12.991-1.363h.006Z" fill="#D3766A"/><path d="M138.107 108.196c.035.012.053-.036.024-.048-3.149-1.529-7.075-2.249-10.538-1.636-.113.018-.131.214 0 .214 3.695.054 6.968.393 10.52 1.47h-.006Zm-.357 4.141c.036.012.06-.054.018-.071-3.249-1.559-7.692-2.244-11.607-1.071-.136.041-.213.214-.053.178 2.661-.583 8.453-.024 11.642.964Zm-12.652 3.73c3.796-.981 7.52-.648 11.304.244.048.012.06-.059.024-.077-1.729-.94-4.2-1.261-6.142-1.345-1.859-.083-3.552.22-5.216 1.047-.065.03-.047.155.036.131h-.006Z" fill="#263238"/><path d="M127.718 106.548c-.713.125-1.414.309-2.079.559-.66.256-1.319.601-1.723 1.125-.196.261-.309.571-.279.886.03.321.125.649.309.904.356.53 1.033.81 1.657.881l1.568.173-1.532.386a6.464 6.464 0 0 0-1.931.815c-.576.375-1.051.899-1.134 1.518-.101.642.166 1.225.748 1.487.564.28 1.313.345 1.978.297l1.865-.136-1.71.737c-.464.197-.933.47-1.337.786-.398.315-.748.708-.885 1.142-.131.428-.03.934.291 1.22.333.303.867.434 1.384.506 1.057.136 2.15.047 3.243.011a39.306 39.306 0 0 1 1.646-.041c.546.012 1.122.024 1.621.268-.516-.191-1.075-.137-1.615-.114-.547.036-1.087.102-1.634.161-1.087.125-2.186.238-3.314.161-.559-.06-1.159-.143-1.676-.554-.528-.428-.683-1.178-.498-1.784.184-.625.617-1.083 1.057-1.452a6.765 6.765 0 0 1 1.473-.899l.154.601c-.79.066-1.568.03-2.34-.327a1.9 1.9 0 0 1-.927-.904 2.115 2.115 0 0 1-.154-1.274c.143-.874.784-1.511 1.432-1.915.665-.417 1.378-.685 2.138-.863l.036.559c-.79-.113-1.551-.488-1.996-1.196a2.3 2.3 0 0 1-.321-1.142c-.018-.411.154-.821.41-1.119.523-.601 1.241-.874 1.936-1.094a9.705 9.705 0 0 1 2.139-.381v.012Z" fill="#263238"/><path d="M117.257 108.452s10.502-11.323 12.908-5.04c.713 1.869 1.432 10.383-.273 10.561-2.204.226-3.16-3.272-3.416-5.563 0 0-3.029 4.355-6.688 3.148-2.293-.756-2.531-3.1-2.531-3.1v-.006Z" fill="#D3766A"/><path d="M129.933 102.901c.398.684.6 1.457.778 2.219.179.767.286 1.553.357 2.338.125 1.577.208 3.136.059 4.736-.041.399-.101.809-.273 1.226a1.664 1.664 0 0 1-.398.601 1.098 1.098 0 0 1-.327.226 1.35 1.35 0 0 1-.38.101c-.499.059-.956-.119-1.325-.363a3.778 3.778 0 0 1-.885-.934c-.469-.702-.742-1.476-.938-2.255-.208-.779-.315-1.565-.404-2.356l.499.119c-.368.5-.778.928-1.218 1.339a8.814 8.814 0 0 1-1.437 1.076 6.015 6.015 0 0 1-1.664.673 4.529 4.529 0 0 1-1.764.083c.588 0 1.17-.083 1.711-.268.547-.184 1.051-.464 1.527-.779a8.315 8.315 0 0 0 1.312-1.107c.398-.41.773-.862 1.076-1.321l.386-.589.112.708c.119.762.238 1.524.458 2.255.208.726.463 1.452.879 2.047.398.583.998 1.089 1.598 1.017.529-.011.742-.844.832-1.576.1-.75.124-1.529.148-2.303.018-.779.03-1.553 0-2.332-.089-1.541-.166-3.124-.725-4.587l.006.006Zm-31.132 20.645c-4.675-1.44-11.405-4.212-19.02-9.168-2.24-1.464-3.136-6.194-.243-6.581L98.8 123.546Z" fill="#263238"/><path d="m89.915 131.614.671 10.888-28.875.601s.511-24.87 8.726-33.61c4.11-4.373 8.875-3.992 11.88-.869.76.792 8.56 10.18 9.48 14.833.797 4.105-1.876 8.163-1.876 8.163l-.006-.006Z" fill="#D3766A"/><path d="M91.792 123.451c.796 4.099-1.877 8.163-1.877 8.163l.534 3.671-28.738.315c.494-6.735 2.745-19.747 8.726-26.113a11.792 11.792 0 0 1 2.258-1.898c2.186 2.19 9.207 8.99 11.125 7.979 1.753-.923-.837-5.48-2.12-7.527.214.179.416.369.612.577.76.792 8.56 10.186 9.48 14.833Z" fill="#FFC727"/><path d="M88.364 130.674c-1.3-.297-2.667-.244-3.997-.071-1.343.178-2.685.535-4.016.892-.766.202-1.526.381-2.293.583-.018 0-.018.042 0 .042 1.343-.119 2.691-.44 4.028-.714a40.304 40.304 0 0 1 4.01-.625c.754-.077 1.508-.053 2.256 0 .048 0 .066-.095.018-.107h-.006Zm1.004.654c-1.354-.345-2.768-.297-4.14.006-.018 0-.018.042 0 .042.689-.03 1.378-.059 2.06-.053.69 0 1.385.035 2.074.059.024 0 .03-.048 0-.054h.006Zm-2.809 6.271c-.202.125-.339.304-.457.494a2.118 2.118 0 0 0-.262.607 3.12 3.12 0 0 0-.065 1.303c.041.208.136.375.285.393.154.036.273-.107.339-.31.059-.202.07-.428.047-.648a1.323 1.323 0 0 0-.202-.643c.339.34.44.857.368 1.345a.738.738 0 0 1-.166.369.492.492 0 0 1-.422.161.524.524 0 0 1-.386-.232 1.09 1.09 0 0 1-.154-.369c-.09-.5-.048-.976.119-1.446.184-.44.493-.881.956-1.024Z" fill="#263238"/><path d="M73.728 107.47c.208.607 5.31 4.694 6.6 3.921 1.555-.934.73-5.051.73-5.051l.623-5.373-6.57-3.314-.944-.428s-.077 1.481-.148 3.326c0 .083-.006.172-.012.261l-.018.298c-.012.273-.356 6.104-.267 6.36h.006Z" fill="#D3766A"/><path d="M74.025 100.545c1.936 4.022 5.447 5.378 7.032 5.795l.624-5.373-6.57-3.314-.944-.428s-.077 1.481-.148 3.326l.005-.006Z" fill="#263238"/><path d="M87.616 91.674c1.045 9.436-4.479 11.131-6.51 11.352-1.842.202-8.15.66-10.164-8.616-2.013-9.275 2.032-12.75 6.225-13.434 4.194-.69 9.398 1.261 10.449 10.698Z" fill="#D3766A"/><path d="M86.101 90.192c-.226-.006-.428-.048-.647-.077-.25-.03-.452-.036-.648-.209-.107-.095-.119-.297-.036-.41.19-.262.505-.298.802-.268.327.03.57.137.808.363.226.22.018.607-.279.595v.006Zm-6.261 1.297c.22.03.434.018.654.024.25.006.451.035.671-.101.119-.078.16-.28.101-.399-.142-.286-.451-.369-.754-.387a1.224 1.224 0 0 0-.856.238c-.261.185-.113.595.179.637l.006-.012Zm1.491 1.446s-.047.035-.041.06c.095.642.089 1.386-.464 1.665-.017.006-.012.042.012.036.695-.179.69-1.172.5-1.767l-.007.006Z" fill="#263238"/><path d="M80.684 92.328c-1.04.036-.891 2.118.077 2.082.95-.035.796-2.118-.077-2.082Z" fill="#263238"/><path d="M80.28 92.47c-.172.132-.333.352-.552.387-.25.042-.458-.16-.642-.357-.018-.017-.036 0-.036.024.024.399.208.797.636.827.392.024.647-.345.719-.755.011-.078-.06-.179-.131-.125h.006Zm4.615.066s.054.03.054.054c.024.648.154 1.38.754 1.558.018 0 .018.036 0 .036-.718-.053-.885-1.035-.802-1.648h-.005Z" fill="#263238"/><path d="M85.43 91.828c1.034-.149 1.248 1.928.291 2.065-.938.13-1.158-1.94-.29-2.065Z" fill="#263238"/><path d="M85.876 91.917c.172.096.356.274.552.268.226-.006.374-.25.493-.482.012-.024.03-.006.036.018.053.393-.036.821-.41.94-.339.107-.63-.208-.766-.595-.024-.071.017-.19.089-.149h.006Zm-4.236 6.319c.16.149.321.351.553.363.225.012.487-.095.689-.184.018-.006.041.011.03.03a.882.882 0 0 1-.808.374c-.291-.042-.446-.291-.523-.56-.012-.035.036-.053.06-.029v.006Zm2.495-2.558s.214.952.255 1.404c0 .041-.106.071-.255.095-.006 0-.012.006-.018 0-.79.19-1.616-.018-2.162-.63-.036-.042.018-.096.06-.072.635.387 1.306.446 2.013.399.024-.131-.422-1.619-.35-1.63.243-.042.748.083 1.051.148-.386-1.993-1.093-3.909-1.45-5.896-.011-.072.09-.101.114-.042.879 1.952 1.378 4.236 1.835 6.29.06.255-.903-.007-1.093-.066Z" fill="#263238"/><path d="M84.046 96.963s-.345.66-.915.97a1.175 1.175 0 0 1-.7.154c-.535-.053-.625-.523-.595-.946.024-.345.13-.654.13-.654s.862.583 2.074.47l.006.006Z" fill="#263238"/><path d="M83.131 97.939a1.176 1.176 0 0 1-.7.154c-.535-.053-.625-.523-.595-.946.558-.03 1.164.256 1.295.786v.006Z" fill="#FF99BA"/><path d="M72.267 95.54c-.47-.547-3.564-3.379-3.814-4.914-.148-.898 1.182-3.439 1.182-3.439l-1.3-.767 1.17.238-1.878-2.737 2.222 1.75s.232-2.327.398-2.898c.166-.572 3.7-3.808 3.7-3.808l-.997 2.023s6.623-3.195 7.478-3.177c2.15.047 6.974 3.189 6.974 3.189l-5.05-.482s4.925 1.695 5.959 2.522c1.033.828 1.865 5.13 1.865 5.13l-4.556-2.672 1.723 2.368s-3.802.815-4.925.844c-2.37.066-7.924-1.57-7.924-1.57s.256 2.07.208 2.725c-.089 1.136-1.04 3.564-1.04 3.564l-.689-1.863-.712 3.987.006-.012Z" fill="#263238"/><path d="M71.31 97.891c.16.053.303.09.44.101.16.024.309.024.445 0 .214-.024.392-.095.54-.19a1.702 1.702 0 0 0 .696-.827l-.588-2.523s-2.145-2.91-3.463-2.142c-1.325.774.326 5.028 1.918 5.575l.012.006Z" fill="#D3766A"/><path d="M69.89 93.518s-.03.036-.005.041c1.116.423 1.722 1.434 2.156 2.487-.339-.398-.79-.612-1.33-.208-.03.024 0 .066.03.06.45-.107.777-.036 1.092.315.22.25.38.571.54.869.054.095.232.041.19-.072l-.011-.023c-.006-1.41-1.147-3.362-2.667-3.463l.006-.006Z" fill="#263238"/><path d="M71.429 97.486a.439.439 0 0 0 .523.334.444.444 0 0 0 .332-.524.439.439 0 0 0-.855.19Zm-.915-.642a.306.306 0 0 0 .375.232.307.307 0 0 0 .231-.375.306.306 0 0 0-.374-.232.307.307 0 0 0-.232.375ZM77 91.46c-.664 0-.308-1.256-.165-1.69.136-.44.166-1.41.166-1.41s.036.97.172 1.41c.137.434.493 1.69-.172 1.69Zm-.95 1.285c-.48 0-.22-.91-.124-1.226.095-.322.124-1.018.124-1.018s.024.703.125 1.018c.101.315.356 1.225-.125 1.225Z" fill="#fff"/><path d="M71.477 115.3c-12.344 8.038-22.353 10.329-25.091 10.519-6.861.476-15.801-.315-20.702-1.529-1.811-.446 4.218-16.79 6.166-16.374 6.107 1.309 15.854 4.248 16.092 4.26 1.699.078 14.31-2.612 23.018-3.462 3.784-.369 2.928 5.015.51 6.586h.007Z" fill="#D3766A"/><path d="M20.392 123.005c3.202 1.719 11.132 2.677 13.134 2.171 2.001-.505 4.069-13.952 2.607-15.493-1.455-1.541-12.694-6.497-16.34-5.824-3.648.678-2.721 17.361.6 19.146Z" fill="#D3766A"/><path d="m32.177 100.637-.014-5.866-17.19.042.013 5.866 17.19-.042Z" fill="#455A64"/><path d="m30.724 94.776-.007-2.82-14.322.035.007 2.82 14.322-.035Z" fill="#455A64"/><path d="m30.718 93.371-14.322.035.004 1.41 14.321-.035-.003-1.41Z" fill="#263238"/><path d="m15.034 124.191.014 5.866 17.19-.042-.013-5.866-17.191.042Zm1.447 5.864.007 2.82 14.322-.035-.007-2.82-14.322.035Z" fill="#455A64"/><path d="m30.802 130.015-14.322.035.003 1.41 14.322-.035-.003-1.41Z" fill="#263238"/><path d="m26.169 124.151-.05-23.495-5.078.01.049 23.496 5.079-.011Z" fill="#37474F"/><path d="M25.613 103.954c.98 1.66-1.532 1.868-1.532 1.868s3.695.577 4.045 2.677c.333 2.029-2.715 2.172-2.934 2.184.196.03 3.575.648 3.712 2.802.137 2.237-2.946 1.857-3.142 1.827.172.089 2.465 1.297 2.198 2.951-.464 2.85-6.404-.072-8.578.773 0 0 1.01 3.856 1.016 3.969 0 0-5.708-2.666-6.689-5.664-.516-1.583.856-2.374.856-2.374s-1.937-.655-2.097-2.344c-.077-.869 1.236-1.768 1.236-1.768s-1.527-.589-1.575-2.1c-.041-1.208 1.283-1.922 1.283-1.922s-1.205-1.249-.849-2.493c.713-2.516 10.948-3.944 13.056-.386h-.006Z" fill="#D3766A"/><path d="M13.597 106.691c-.036.006-.054-.036-.018-.054 3.255-1.291 7.223-1.713 10.633-.845.113.03.113.22-.018.214-3.689-.226-6.974-.125-10.597.679v.006Zm.047 4.153c-.041.011-.053-.054-.012-.072 3.356-1.315 7.841-1.666 11.655-.196.13.047.196.226.041.178-2.607-.785-8.423-.654-11.684.09Zm12.338 4.664c-3.713-1.261-7.455-1.208-11.287-.601-.047.006-.053-.065-.017-.083 1.794-.809 4.282-.946 6.225-.881 1.86.06 3.528.482 5.126 1.434.06.036.036.155-.041.131h-.006Z" fill="#263238"/><path d="M24.075 105.822c.7.178 1.384.41 2.031.714.636.303 1.271.696 1.634 1.255.178.274.261.595.213.905a1.947 1.947 0 0 1-.374.88c-.392.5-1.093.732-1.716.75l-1.58.053 1.502.5c.654.22 1.32.542 1.866.958.546.417.98.976 1.015 1.595.054.648-.255 1.207-.861 1.422-.588.238-1.337.244-1.996.148l-1.853-.273 1.651.862c.446.232.897.542 1.271.887.375.345.695.761.796 1.208.101.44-.035.934-.38 1.196-.356.279-.897.369-1.414.404-1.063.06-2.15-.113-3.237-.232-.546-.059-1.093-.125-1.64-.16-.546-.03-1.116-.06-1.633.142.535-.148 1.087-.053 1.622.006.54.078 1.075.185 1.616.286 1.075.208 2.162.404 3.296.404.559-.017 1.165-.059 1.71-.428.56-.387.767-1.124.63-1.743-.136-.637-.534-1.125-.944-1.523a6.707 6.707 0 0 0-1.402-1.006l-.196.589c.784.119 1.563.143 2.358-.149.393-.148.773-.434.992-.833.226-.398.286-.832.25-1.255-.077-.88-.671-1.565-1.29-2.023-.635-.464-1.324-.785-2.066-1.023l-.077.553c.796-.053 1.586-.375 2.079-1.041.237-.333.362-.72.41-1.113.047-.41-.096-.827-.321-1.142-.476-.637-1.176-.964-1.848-1.232a9.674 9.674 0 0 0-2.108-.541h-.006Z" fill="#263238"/><path d="M34.369 108.499s-9.63-12.078-12.492-5.991c-.85 1.809-2.198 10.245-.511 10.549 2.18.393 3.398-3.029 3.82-5.295 0 0 2.696 4.569 6.433 3.635 2.34-.583 2.75-2.904 2.75-2.904v.006Z" fill="#D3766A"/><path d="M22.144 102.02c-.445.649-.707 1.41-.944 2.16a17.204 17.204 0 0 0-.529 2.302c-.243 1.559-.44 3.112-.41 4.724.012.405.042.816.178 1.244.072.214.179.44.351.625a1.14 1.14 0 0 0 .677.375c.493.095.962-.048 1.349-.268.38-.232.689-.542.95-.869.517-.666.85-1.416 1.105-2.177.261-.762.428-1.541.576-2.321l-.505.083c.333.524.707.988 1.117 1.428.41.441.861.839 1.354 1.184.493.339 1.04.613 1.604.798.57.184 1.17.261 1.752.22a5.233 5.233 0 0 1-1.687-.399c-.534-.22-1.015-.541-1.467-.892a8.414 8.414 0 0 1-1.23-1.202 8.84 8.84 0 0 1-.974-1.398l-.338-.613-.167.696c-.178.75-.35 1.505-.623 2.213-.262.708-.57 1.416-1.028 1.976-.44.553-1.075 1.011-1.67.898-.528-.054-.676-.898-.712-1.63-.042-.756-.006-1.535.024-2.309.036-.779.083-1.553.172-2.326.202-1.529.398-3.1 1.07-4.516l.005-.006Z" fill="#263238"/><path d="M71.815 108.714c4.158.321 1.972 12.351-2.66 11.994-4.64-.357-.927-12.268 2.66-11.994Z" fill="#D3766A"/><path d="M69.837 116.74c-.154.041-.303.095-.457.143a28.973 28.973 0 0 0 1.942-1.226c.012-.012 0-.03-.012-.024a49.8 49.8 0 0 0-2.31 1.208c-.357.202-.725.393-1.076.607-.398.244-.778.5-1.188.714-.047.024-.012.101.036.077.392-.208.796-.381 1.194-.571.344-.167.683-.357 1.016-.547.112-.024.231-.048.338-.084.184-.059.363-.119.547-.19.356-.143.707-.298 1.063-.446v-.006c-.356.136-.719.25-1.087.357l-.006-.012Z" fill="#263238"/><path d="M84.117 203.987h-4.36v5.021h4.36v-5.021Z" fill="#DBDBDB"/><path d="M85.496 207.384h-7.11v5.735h7.11v-5.735Z" fill="#455A64"/><path d="M90.39 220.223v26.257H73.485v-26.257c0-5.194 3.261-9.21 8.447-9.21 5.185 0 8.458 4.01 8.458 9.21Z" fill="#FFC727"/><path d="M81.029 212.977c0 .363-.297.66-.66.66a.662.662 0 0 1-.659-.66c0-.363.297-.661.66-.661.362 0 .659.298.659.661Zm8.393 5.932c0 .362-.297.66-.66.66a.662.662 0 0 1-.659-.66c0-.363.297-.661.66-.661.362 0 .66.298.66.661Zm-7.485.66c0 .363-.297.66-.659.66a.662.662 0 0 1-.66-.66c0-.363.298-.66.66-.66.362 0 .66.297.66.66Zm.001 6.967a.66.66 0 1 0-.002-1.32.66.66 0 0 0 .002 1.32Zm-6.148 5.926c0 .363-.298.66-.66.66a.662.662 0 0 1-.66-.66c0-.363.298-.66.66-.66.362 0 .66.297.66.66Zm-1.313-5.2a.66.66 0 1 0-.002-1.32.66.66 0 0 0 .002 1.32Zm.819-6.878c0 .363-.297.66-.66.66a.662.662 0 0 1-.658-.66c0-.363.297-.66.659-.66.362 0 .66.297.66.66Zm2.198-3.135a.66.66 0 1 0-.001-1.32.66.66 0 0 0 .001 1.32Zm1.319 5.878c0 .363-.297.66-.66.66a.662.662 0 0 1-.659-.66c0-.363.297-.661.66-.661.362 0 .659.298.659.661Zm5.786-6.456a.66.66 0 1 0 0-1.319.66.66 0 0 0 0 1.319Zm1.455 5.742c0 .363-.297.66-.66.66a.662.662 0 0 1-.659-.66c0-.363.297-.66.66-.66.362 0 .659.297.659.66Zm-6.891 6.854c0 .363-.297.66-.659.66a.662.662 0 0 1-.66-.66c0-.363.298-.66.66-.66.362 0 .66.297.66.66Zm7.099 5.206c0 .363-.297.66-.66.66a.662.662 0 0 1-.659-.66c0-.363.297-.66.66-.66.362 0 .66.297.66.66Zm-.101 4.962a.663.663 0 0 1-.66.661.663.663 0 0 1-.659-.661c0-.363.297-.66.66-.66.362 0 .659.297.659.66Zm-6.6-4.843c0 .363-.297.66-.659.66a.662.662 0 0 1-.66-.66c0-.363.298-.66.66-.66.362 0 .66.297.66.66Zm-3.207 7.729c0 .363-.297.66-.66.66a.662.662 0 0 1-.659-.66c0-.363.297-.661.66-.661.362 0 .659.298.659.661Zm6.617-10.698a.663.663 0 0 1-.66.661.663.663 0 0 1-.659-.661c0-.363.297-.66.66-.66.362 0 .659.297.659.66Zm.077 5.361c0 .363-.297.66-.66.66a.662.662 0 0 1-.659-.66c0-.363.297-.661.66-.661.362 0 .66.298.66.661Zm0 5.337c0 .363-.297.66-.66.66a.662.662 0 0 1-.659-.66c0-.363.297-.661.66-.661.362 0 .66.298.66.661Zm3.35 2.475c0 .363-.297.66-.66.66a.662.662 0 0 1-.658-.66c0-.363.297-.661.659-.661.362 0 .66.298.66.661Zm-10.786-6.842a.66.66 0 1 0-.002-1.32.66.66 0 0 0 .002 1.32Zm3.949 1.713a.663.663 0 0 1-.659.661.663.663 0 0 1-.66-.661c0-.363.298-.66.66-.66.362 0 .66.297.66.66Zm9.974 2.654c0 .363-.297.66-.66.66a.662.662 0 0 1-.659-.66c0-.363.297-.661.66-.661.362 0 .659.298.659.661Zm-9.825 2.528a.663.663 0 0 1-.66.661.663.663 0 0 1-.659-.661c0-.363.297-.66.66-.66.362 0 .659.297.659.66Zm9.926-13.047c0 .363-.297.66-.66.66a.662.662 0 0 1-.66-.66c0-.363.298-.661.66-.661.363 0 .66.298.66.661Zm0 5.182c0 .363-.297.66-.66.66a.662.662 0 0 1-.66-.66c0-.363.298-.661.66-.661.363 0 .66.298.66.661Zm-3.891-7.259a.66.66 0 1 0-.001-1.32.66.66 0 0 0 .001 1.32Zm4.224-3.945a.663.663 0 0 1-.66.661.663.663 0 0 1-.66-.661c0-.362.298-.66.66-.66.363 0 .66.298.66.66Z" fill="#fff"/><path d="M178.493 232.611h-6.748v15.433h6.748v-15.433Zm-6.748 1.66h-3.243v12.119h3.243v-12.119Z" fill="#455A64"/><path d="M171.745 234.271h-1.621v12.119h1.621v-12.119Z" fill="#37474F"/><path d="M198.47 248.044h6.748v-15.433h-6.748v15.433Zm6.748-1.66h3.243v-12.119h-3.243v12.119Z" fill="#455A64"/><path d="M206.839 234.265h-1.621v12.119h1.621v-12.119Zm-8.369 3.135h-19.977v5.861h19.977V237.4Z" fill="#37474F"/><path d="M205.027 238.566h-6.748V254h6.748v-15.434Zm-6.748 1.66h-3.243v12.12h3.243v-12.12Z" fill="#455A64"/><path d="M198.279 240.226h-1.621v12.12h1.621v-12.12Z" fill="#37474F"/><path d="M225.004 254h6.748v-15.434h-6.748V254Zm6.748-1.66h3.243v-12.12h-3.243v12.12Z" fill="#455A64"/><path d="M233.374 240.22h-1.622v12.12h1.622v-12.12Zm-8.37 3.136h-19.977v5.86h19.977v-5.86Z" fill="#37474F"/><path d="M145.401 14.464c.743 7.14 7.128 12.322 14.256 11.572a12.919 12.919 0 0 0 7.425-3.356l6.493.952-3.249-5.622a12.88 12.88 0 0 0 .891-6.26C170.474 4.612 164.088-.57 156.96.179c-7.128.744-12.302 7.14-11.553 14.28l-.006.006Z" fill="#fff"/><path d="M149.286 3.73a13.356 13.356 0 0 1 5.001-3.076 13.164 13.164 0 0 1 5.869-.541c1.966.268 3.885.964 5.536 2.082a13.285 13.285 0 0 1 4.063 4.332c2.02 3.457 2.37 7.871.802 11.584l-.018-.22 3.232 5.634.237.417-.469-.072-6.486-1 .154-.047A13.113 13.113 0 0 1 160.786 26c-.594.107-1.194.173-1.794.185-.6.053-1.2 0-1.8-.036-1.188-.143-2.382-.369-3.493-.833-1.116-.44-2.18-1.011-3.13-1.743-.499-.34-.921-.768-1.372-1.16-.398-.447-.838-.863-1.176-1.357-1.48-1.892-2.347-4.212-2.62-6.586-.422-3.915 1.016-8.003 3.885-10.734V3.73Zm-1.224 17.29c.345.494.784.899 1.182 1.345.452.387.873.815 1.372 1.148.945.726 2.02 1.274 3.131 1.69 1.105.446 2.293.643 3.463.762.594.023 1.182.065 1.776 0a10.832 10.832 0 0 0 1.758-.215 12.746 12.746 0 0 0 6.214-3.206l.065-.06.089.012 6.498.91-.231.345-3.267-5.61-.06-.107.048-.12a13.083 13.083 0 0 0 .915-5.664c-.155-1.921-.666-3.831-1.646-5.497a13.32 13.32 0 0 0-3.885-4.242c-1.586-1.113-3.445-1.827-5.358-2.118a12.916 12.916 0 0 0-5.773.434 13.036 13.036 0 0 0-5.002 2.957c-2.863 2.69-4.336 6.759-3.938 10.674.285 2.374 1.17 4.688 2.655 6.557l-.006.005Z" fill="#263238"/><path d="m156.426 20.527-5.542-5.623 1.859-1.838 3.237 3.278 6.73-10.56 2.204 1.41-8.488 13.333Z" fill="#FFC727"/></g></svg>