<svg width="232" height="255" viewBox="0 0 232 255" fill="none" xmlns="http://www.w3.org/2000/svg"><defs><clipPath id="a"><path fill="#fff" d="M0 0h232v255H0z"/></clipPath></defs><g clip-path="url(#a)"><path d="M116.349 255c63.54 0 115.049-30.511 115.049-68.148 0-37.638-51.509-68.149-115.049-68.149-63.54 0-115.048 30.511-115.048 68.149C1.3 224.489 52.81 255 116.349 255Z" fill="#F5F5F5"/><path d="M184.643 169.097c-8.106 4.657-8.106 12.215 0 16.871 8.107 4.657 21.244 4.657 29.35 0 8.106-4.662 8.106-12.214 0-16.871-8.106-4.662-21.243-4.662-29.35 0Zm-169.587 2.227c-7.245 4.164-7.245 10.919 0 15.083 7.246 4.165 18.992 4.165 26.238 0 7.246-4.164 7.246-10.919 0-15.083s-18.991-4.164-26.237 0ZM135.803 246.2 177 222.515c1.284-.738 1.284-1.937 0-2.676l-84.866-48.788c-1.285-.739-3.37-.739-4.655 0l-41.197 23.685c-1.285.738-1.285 1.937 0 2.676l84.866 48.788c1.285.739 3.37.739 4.655 0Z" fill="#E6E6E6"/><path d="m229.452 109.4-1.339.455-41.481-23.845 1.338-.46 41.482 23.85Z" fill="#FAFAFA"/><path d="m187.97 85.55 40.143 23.074V30.146L187.97 7.075v78.473Z" fill="#fff"/><path d="m184.105 86.834 46.535 26.752v-84.27L184.105 2.564v84.27Zm2.527-80.54 41.481 23.846v79.715L186.632 86.01V6.295Z" fill="#F0F0F0"/><path d="m186.632 86.01 1.338-.46V7.075l-1.338-.781V86.01Z" fill="#E0E0E0"/><path d="M228.113 90.592v1.225l-41.481-23.845 1.338-.46 40.143 23.08Zm0-45.909v1.226l-41.481-23.846 1.338-.46 40.143 23.08ZM184.105 2.564l1.36-.44L232 28.878l-1.36.439-46.535-26.752Z" fill="#FAFAFA"/><path d="m232 28.877-1.36.439v84.27l1.36-.439v-84.27Zm-21.34-8.767-1.355-.782v79.72l1.355-.444V20.11Z" fill="#E0E0E0"/><path d="m206.779 17.883 2.526 1.445v79.72l-2.526-1.455v-79.71Z" fill="#F0F0F0"/><path d="M184.105 20.613v2.274L230.64 49.64v-2.274l-46.535-26.752Zm0 45.897v2.28l46.535 26.753v-2.28L184.105 66.51Z" fill="#F0F0F0"/><path d="m209.305 35.096 1.355-.444 17.454 10.03v1.227l-18.809-10.813Zm0 45.894 1.355-.445 17.454 10.03v1.232l-18.809-10.818ZM34.623 87.375l1.09.647 22.33-12.84-1.091-.648-22.33 12.84Z" fill="#FAFAFA"/><path d="m56.952 74.534-21.238 12.21v-57.29L56.952 17.25v57.283Z" fill="#fff"/><path d="M60.097 13.076 33.66 28.272V91.56l26.436-15.195V13.076Zm-2.054 62.106L35.714 88.017V29.455l22.33-12.835v58.567-.005Z" fill="#F0F0F0"/><path d="m58.043 75.182-1.09-.648V17.251l1.09-.631v58.562Z" fill="#E0E0E0"/><path d="m60.096 13.076-1.107-.631-26.436 15.2 1.108.627 26.435-15.196Z" fill="#FAFAFA"/><path d="m32.553 27.646 1.108.626V91.56l-1.108-.631V27.646Z" fill="#E0E0E0"/><path d="M55.361 73.27 37.305 83.65V31.365l18.056-10.379V73.27Z" fill="#F0F0F0"/><path d="M55.361 73.27 37.305 83.65V31.365l18.056-10.379V73.27Z" fill="#F0F0F0"/><path d="M37.305 66.216c.855.07 1.726.043 2.58-.021 3-.225 5.972-.867 8.794-1.906 2.183-.803 4.37-1.846 6.682-1.91V73.27l-2.446 1.407c-.973-.856-2.096-1.525-3.349-1.851-3.477-.91-7.047.83-10.621 1.236-.543.064-1.092.08-1.634.08v-7.927h-.006Zm0-13.022c4.042-1.189 8.181-2.179 11.068-5.134 2.322-2.376 3.419-5.673 4.182-8.906.763-3.228 1.29-6.562 2.758-9.544.016-.032.032-.059.048-.085v24.043c-.226.337-.452.675-.694 1.001-2.65 3.58-6.557 6.568-11.019 6.798-2.096.107-4.263-.38-6.337-.375v-7.804l-.006.005Zm0-11.958c3.096-2.72 4.757-7.087 4-11.155-.054-.3-.13-.6-.205-.899l6.945-3.993c-.027.455-.048.91-.064 1.365-.076 2.639.021 5.315-.57 7.89-.99 4.319-3.962 8.146-7.913 10.185-.704.364-1.44.664-2.198.916v-4.31h.005ZM2.07 77.05l1.09.647 22.324-12.835-1.086-.648L2.07 77.05Z" fill="#FAFAFA"/><path d="M24.399 64.214 3.16 76.424V19.13L24.399 6.932v57.282Z" fill="#fff"/><path d="M27.543 2.757 1.107 17.952v63.289l26.436-15.196V2.757ZM25.49 64.862 3.16 77.697V19.13L25.486 6.295v58.567h.005Z" fill="#F0F0F0"/><path d="m25.485 64.862-1.086-.648V6.932l1.086-.637v58.567Z" fill="#E0E0E0"/><path d="m27.543 2.757-1.107-.632L0 17.32l1.107.631L27.543 2.757Z" fill="#FAFAFA"/><path d="m0 17.32 1.107.632v63.289L0 80.609V17.321Z" fill="#E0E0E0"/><path d="M22.808 62.951 4.752 73.33V21.046l18.056-10.384v52.29Z" fill="#F0F0F0"/><path d="M22.808 62.951 4.752 73.33V21.046l18.056-10.384v52.29Z" fill="#F0F0F0"/><path d="M4.752 55.891c.855.07 1.725.043 2.58-.021 3-.225 5.972-.867 8.794-1.906 2.183-.803 4.37-1.846 6.682-1.91v10.892l-2.446 1.407c-.973-.856-2.096-1.525-3.354-1.851-3.478-.91-7.047.83-10.622 1.236-.543.064-1.091.08-1.634.08v-7.927Zm0-13.017c4.042-1.189 8.181-2.179 11.068-5.133 2.322-2.377 3.418-5.674 4.182-8.907.763-3.227 1.29-6.562 2.757-9.543.017-.033.033-.06.049-.086v24.044c-.226.337-.452.674-.694 1-2.65 3.581-6.558 6.568-11.02 6.798-2.096.107-4.262-.38-6.337-.375v-7.804l-.005.006Zm0-11.964c3.096-2.718 4.757-7.086 4-11.154-.055-.3-.13-.6-.205-.9l6.945-3.992c-.027.455-.049.91-.065 1.365-.075 2.639.022 5.315-.57 7.89-.983 4.319-3.961 8.146-7.912 10.185-.704.364-1.44.664-2.198.916v-4.31h.005Z" fill="#FAFAFA"/><path d="M17.309 180.359c-5.817-5.974-9.23-30.29-3.559-35.027h28.855c5.671 4.737 2.258 29.043-3.553 35.022-.048.053-.108.107-.161.165l-.2.199a9.58 9.58 0 0 1-.526.471c-.048.037-.091.074-.14.112-.145.112-.285.225-.44.332a8.03 8.03 0 0 1-.753.482c-4.784 2.777-12.535 2.777-17.32 0a9.085 9.085 0 0 1-.757-.488c-.146-.101-.275-.208-.409-.31-.06-.048-.113-.086-.172-.134a7.12 7.12 0 0 1-.505-.455c-.076-.075-.156-.15-.231-.23-.043-.048-.092-.091-.135-.139h.006Z" fill="#37474F"/><path d="M40.1 143.426c6.585 3.828 6.585 10.036 0 13.864-6.585 3.827-17.26 3.827-23.845 0-6.585-3.828-6.585-10.036 0-13.864 6.585-3.827 17.26-3.827 23.845 0Z" fill="#455A64"/><path d="M36.934 145.268c4.838 2.81 4.833 7.37 0 10.18-4.832 2.81-12.675 2.81-17.507 0-4.833-2.81-4.833-7.37 0-10.18 4.832-2.81 12.675-2.81 17.507 0Z" fill="#263238"/><path d="M19.421 150.101c4.833-2.81 12.675-2.81 17.508 0 1.344.781 2.3 1.697 2.897 2.676-.597.974-1.553 1.895-2.897 2.677-4.833 2.81-12.675 2.81-17.508 0-1.344-.782-2.3-1.697-2.897-2.677.597-.974 1.553-1.895 2.897-2.676Z" fill="#37474F"/><path d="m16.492 106.526 9.605 7.585-9.288-4.272s-.065 4.646 1.612 8.762c0 0 4.575 2.719 7.236 5.107l-7.123-2.8s-.489 4.673 1.462 11.803c.511 1.868 2.618 5.432 3.951 8.098a30.558 30.558 0 0 0 2.07 3.559c.043.075.091.145.145.215a97.888 97.888 0 0 1 5.08-2.698c1.144-2.398 2.639-8.318 3.176-13.167 2.048-18.563-12.046-29.204-23.377-32.768 0 0 3.892 4.86 5.461 10.581l-.01-.005Z" fill="#BA68C8"/><path opacity=".5" d="m16.492 106.526 9.605 7.585-9.288-4.272s-.065 4.646 1.612 8.762c0 0 4.575 2.719 7.236 5.107l-7.123-2.8s-.489 4.673 1.462 11.803c.511 1.868 2.618 5.432 3.951 8.098a30.558 30.558 0 0 0 2.07 3.559c.043.075.091.145.145.215a97.888 97.888 0 0 1 5.08-2.698c1.144-2.398 2.639-8.318 3.176-13.167 2.048-18.563-12.046-29.204-23.377-32.768 0 0 3.892 4.86 5.461 10.581l-.01-.005Z" fill="#fff"/><path d="M24.523 107.302c1.962 1.965 3.106 4.55 3.988 7.13.87 2.601 1.424 5.304 1.704 8.034.57 5.449-.06 11.031-2.032 16.116-.054.145.016.3.156.354a.27.27 0 0 0 .35-.156c1.93-5.218 2.461-10.876 1.8-16.346-.328-2.741-.93-5.449-1.844-8.045-.924-2.58-2.123-5.155-4.117-7.087h-.005Z" fill="#FAFAFA"/><path d="M58.075 116.257s0 .005-.016.011c-.242.283-4.182 4.956-10.041 14.045l-9.746 1.563 7.187 1.252-3.86 6.086-9.594 1.975 7.493 1.215s-2.08 7.28-7.44 10.314c-2.961 1.676-4.407 1.933-5.294 1.092-.618-.588-.769-4.078-1.285-7.193-.516-3.116-.559-8.184 2.392-14.297.785-1.627 1.833-3.126 3.07-4.496 7.095-7.868 20.501-11.663 27.134-11.567Z" fill="#BA68C8"/><path opacity=".65" d="M58.075 116.257s0 .005-.016.011c-.242.283-4.182 4.956-10.041 14.045l-9.746 1.563 7.187 1.252-3.86 6.086-9.594 1.975 7.493 1.215s-2.08 7.28-7.44 10.314c-2.961 1.676-4.407 1.933-5.294 1.092-.618-.588-.769-4.078-1.285-7.193-.516-3.116-.559-8.184 2.392-14.297.785-1.627 1.833-3.126 3.07-4.496 7.095-7.868 20.501-11.663 27.134-11.567Z" fill="#fff"/><path d="M47.878 119.436c-5.042 2.2-9.81 5.224-13.556 9.324a26.634 26.634 0 0 0-4.645 6.862c-1.134 2.532-1.87 5.235-2.123 7.976 0 .016.011.026.027.026s.027-.01.027-.021c.554-2.692 1.354-5.31 2.559-7.756a29.717 29.717 0 0 1 4.477-6.803c3.623-4.111 8.29-7.22 13.261-9.565.016-.005.022-.021.011-.037-.005-.016-.021-.022-.038-.016v.01Z" fill="#FAFAFA"/><path d="M0 120.266c.731-.016 1.553.021 2.451.112 2.688.273 6.02 1.028 9.38 2.275 1.124.418 2.247.889 3.349 1.413.554.263 1.102.541 1.64.83 2.703 1.456 5.213 3.254 7.186 5.411a17.262 17.262 0 0 1 2.473 3.463c.086.161.183.322.263.488.21.428.398.851.575 1.263 2.075 4.667 2.247 7.905 2.118 11.497-.102 2.783-1.053 5.968-1.596 6.493a1.656 1.656 0 0 1-.242.182c-.796.508-2.064.208-4.435-1.108-4.751-2.645-6.617-9.346-6.617-9.346l6.601-1.119-8.477-1.686-3.445-5.347 6.337-1.145-8.611-1.317C3.736 124.628.226 120.528.01 120.277c-.01-.006-.01-.011-.01-.011Z" fill="#BA68C8"/><path opacity=".65" d="M0 120.266c.731-.016 1.553.021 2.451.112 2.688.273 6.02 1.028 9.38 2.275 1.124.418 2.247.889 3.349 1.413.554.263 1.102.541 1.64.83 2.703 1.456 5.213 3.254 7.186 5.411a17.262 17.262 0 0 1 2.473 3.463c.086.161.183.322.263.488.21.428.398.851.575 1.263 2.075 4.667 2.247 7.905 2.118 11.497-.102 2.783-1.053 5.968-1.596 6.493a1.656 1.656 0 0 1-.242.182c-.796.508-2.064.208-4.435-1.108-4.751-2.645-6.617-9.346-6.617-9.346l6.601-1.119-8.477-1.686-3.445-5.347 6.337-1.145-8.611-1.317C3.736 124.628.226 120.528.01 120.277c-.01-.006-.01-.011-.01-.011Z" fill="#fff"/><path opacity=".3" d="M2.451 120.378c2.688.273 6.02 1.028 9.38 2.275 1.124.418 2.247.889 3.349 1.413.554.263 1.102.541 1.64.83 2.703 1.456 5.213 3.254 7.186 5.411a17.262 17.262 0 0 1 2.473 3.463c.086.161.183.322.263.488.21.428.398.851.575 1.263 2.075 4.667 2.247 7.905 2.118 11.497-.102 2.783-1.053 5.968-1.596 6.493a1.517 1.517 0 0 1-.763.374c.585-4.319-1.549-15.27-4.78-19.772-3.359-4.683-11.33-11.481-22.29-13.826l.01-.01c.726-.016 1.543.021 2.43.112l.005-.011Z" fill="#BA68C8"/><path d="M27.108 153.88c.231-3.19-.027-6.407-.623-9.549-.635-3.137-1.592-6.236-3.183-9.056-1.623-2.821-3.956-5.123-6.44-7.162-2.531-1.991-5.305-3.688-8.261-4.93-.016-.005-.032 0-.038.016-.005.011 0 .027.01.032 2.818 1.52 5.505 3.26 7.946 5.299 1.23 1.001 2.413 2.072 3.488 3.233 1.091 1.151 2.113 2.371 2.92 3.726 1.6 2.729 2.606 5.791 3.289 8.896.661 3.109.994 6.305.833 9.495 0 .016.01.027.027.027a.026.026 0 0 0 .027-.027h.005Z" fill="#FAFAFA"/><path d="M188.637 141.938c0-.176.118-.358.355-.497.473-.273 1.247-.273 1.72 0 .237.139.355.315.355.492l-5.703 35.648c0 .123-.086.246-.253.342-.333.193-.882.193-1.215 0-.166-.096-.247-.219-.252-.342l4.988-35.648.005.005Zm21.066 0c0-.176-.118-.358-.355-.497-.473-.273-1.247-.273-1.72 0-.236.139-.355.315-.355.492l5.704 35.648c0 .123.086.246.252.342.339.193.882.193 1.215 0 .167-.096.247-.219.253-.342l-4.989-35.648-.005.005Zm-9.17 1.248c0-.177-.119-.359-.355-.498-.473-.273-1.247-.273-1.72 0-.237.139-.355.316-.355.492l.355 40.476c0 .123.086.246.252.343.339.192.882.192 1.215 0 .167-.097.248-.22.253-.343l.355-40.476v.006Z" fill="#455A64"/><path d="M221.126 132.866h-.022c0-3.206-2.107-6.418-6.369-8.864-8.515-4.897-22.324-4.897-30.839 0-4.257 2.446-6.37 5.658-6.364 8.864h-.022v1.723c.049 3.169 2.183 6.322 6.386 8.741 8.515 4.898 22.324 4.898 30.839 0 4.203-2.414 6.337-5.572 6.385-8.741v-1.723h.006Z" fill="#BA68C8"/><path opacity=".6" d="M221.126 132.866h-.022c0-3.206-2.107-6.418-6.369-8.864-8.515-4.897-22.324-4.897-30.839 0-4.257 2.446-6.37 5.658-6.364 8.864h-.022v1.723c.049 3.169 2.183 6.322 6.386 8.741 8.515 4.898 22.324 4.898 30.839 0 4.203-2.414 6.337-5.572 6.385-8.741v-1.723h.006Z" fill="#fff"/><path d="M183.896 124.002c-8.514 4.898-8.514 12.835 0 17.728 8.515 4.897 22.324 4.897 30.839 0 8.514-4.898 8.514-12.836 0-17.728-8.515-4.897-22.324-4.897-30.839 0Z" fill="#BA68C8"/><path d="M183.896 124.002c-8.514 4.898-8.514 12.835 0 17.728 8.515 4.897 22.324 4.897 30.839 0 8.514-4.898 8.514-12.836 0-17.728-8.515-4.897-22.324-4.897-30.839 0Z" fill="#fff" opacity=".8"/><path d="M204.096 128.723c2.715 1.563 2.715 4.095 0 5.658-2.714 1.563-7.122 1.563-9.836 0-2.715-1.563-2.715-4.095 0-5.658 2.714-1.563 7.122-1.563 9.836 0Z" fill="#BA68C8" opacity=".2"/><path d="M194.851 131.902c-2.365-2.403-3.757-8.403-1.446-10.314h11.74c2.306 1.906.919 7.906-1.446 10.309l-.065.064a2.62 2.62 0 0 1-.295.268c-.017.016-.038.027-.06.043-.059.043-.112.091-.177.134-.102.069-.204.139-.306.192-1.946 1.119-5.102 1.119-7.047 0a3.182 3.182 0 0 1-.307-.198c-.059-.043-.113-.085-.166-.123l-.07-.053c-.076-.059-.14-.123-.205-.182-.032-.032-.064-.059-.091-.091l-.054-.054-.005.005Z" fill="#F0F0F0"/><path d="M204.123 120.823c2.677 1.541 2.677 4.036 0 5.577-2.677 1.542-7.02 1.542-9.702 0-2.677-1.541-2.677-4.036 0-5.577 2.677-1.542 7.02-1.542 9.702 0Z" fill="#FAFAFA"/><path d="M202.22 121.915c1.629.936 1.629 2.456 0 3.393-1.628.937-4.273.937-5.902 0-1.629-.937-1.629-2.457 0-3.393 1.629-.937 4.274-.937 5.902 0Z" fill="#E0E0E0"/><path d="M196.318 123.526c1.629-.937 4.274-.937 5.902 0 .452.262.774.567.979.894-.199.326-.522.631-.979.894-1.628.936-4.273.936-5.902 0-.451-.263-.774-.568-.978-.894.199-.327.521-.632.978-.894Z" fill="#455A64"/><path d="M201.866 124.414s1.15-1.092 2.134-2.826 1.827-3.945 1.317-4.228c-.511-.289-3.247 1.91-3.247 1.91s.306-1.418.22-2.965-.467-2.949-.908-3.233c-.446-.283-1.441 1.665-1.865 3.083-.425 1.413-.597 2.291-.597 2.291s-.376-1.627-.849-2.97c-.516-1.467-.989-1.799-1.349-1.654-.366.144-.602.829-.71 2.783-.075 1.37.086 2.799.086 2.799s-.731-.803-1.543-1.579c-.892-.851-1.521-.851-1.779-.69-.253.16-.075 1.37 1.306 3.859 1.221 2.195 2.607 3.415 2.607 3.415s1.914 1.226 5.177 0v.005Z" fill="#BA68C8"/><path d="M201.866 124.414s1.15-1.092 2.134-2.826 1.827-3.945 1.317-4.228c-.511-.289-3.247 1.91-3.247 1.91s.306-1.418.22-2.965-.467-2.949-.908-3.233c-.446-.283-1.441 1.665-1.865 3.083-.425 1.413-.597 2.291-.597 2.291s-.376-1.627-.849-2.97c-.516-1.467-.989-1.799-1.349-1.654-.366.144-.602.829-.71 2.783-.075 1.37.086 2.799.086 2.799s-.731-.803-1.543-1.579c-.892-.851-1.521-.851-1.779-.69-.253.16-.075 1.37 1.306 3.859 1.221 2.195 2.607 3.415 2.607 3.415s1.914 1.226 5.177 0v.005Z" fill="#000" opacity=".2"/><path opacity=".2" d="M199.517 116.155c-.425 1.413-.597 2.291-.597 2.291l.258 1.221s.269-2.661.645-4.379c-.118.295-.22.589-.306.867Zm-2.957 2.136c-.344-1.247-.376-3.377-.376-3.388-.075.417-.14.969-.177 1.707-.075 1.371.086 2.8.086 2.8l1.887 1.969s-1.075-1.83-1.42-3.083v-.005Zm4.322 2.141 1.188-1.156s.307-1.419.221-2.965a11.538 11.538 0 0 0-.237-1.751c.027.198.188 1.547-.14 2.842-.354 1.403-1.026 3.03-1.026 3.03h-.006Z" fill="#000"/><path d="M169.146 204.231c-3.204 1.841-8.402 1.841-11.606 0-3.203-1.841-3.203-4.828 0-6.674 3.204-1.842 8.402-1.842 11.606 0 3.204 1.841 3.204 4.828 0 6.674Z" fill="#E6E6E6"/><path d="M169.92 174.3c0-2.473-2.279-4.828-3.268-5.759-.527-.493-.855-.739-1-1.044-.129-.273-.113-.423-.113-.948h-4.424c0 .525.016.675-.113.948-.145.305-.473.551-.999 1.044-.995.931-3.269 3.286-3.269 5.754 0 .224.033.449.103.669-.07.219-.103.444-.103.669v1.065c0 .209.033.417.092.626-.07.236-.097.471-.086.712v1.333c0 .444.134.872.387 1.242l.285.417a2.183 2.183 0 0 1 .134 2.259l-.559 1.065a2.173 2.173 0 0 0-.253 1.017v14.859c0 .968.645 1.937 1.93 2.681 2.575 1.477 6.746 1.477 9.321 0 1.285-.738 1.93-1.707 1.93-2.681v-14.859c0-.353-.086-.701-.253-1.017l-.559-1.065a2.173 2.173 0 0 1 .134-2.259l.285-.417c.253-.364.387-.798.387-1.242v-1.333a2.147 2.147 0 0 0-.086-.712c.059-.209.092-.417.092-.626v-1.065c0-.225-.033-.45-.102-.669.069-.22.102-.445.102-.669l.005.005Z" fill="#BA68C8"/><path opacity=".5" d="M169.92 174.3c0-2.473-2.279-4.828-3.268-5.759-.527-.493-.855-.739-1-1.044-.129-.273-.113-.423-.113-.948h-4.424c0 .525.016.675-.113.948-.145.305-.473.551-.999 1.044-.995.931-3.269 3.286-3.269 5.754 0 .224.033.449.103.669-.07.219-.103.444-.103.669v1.065c0 .209.033.417.092.626-.07.236-.097.471-.086.712v1.333c0 .444.134.872.387 1.242l.285.417a2.183 2.183 0 0 1 .134 2.259l-.559 1.065a2.173 2.173 0 0 0-.253 1.017v14.859c0 .968.645 1.937 1.93 2.681 2.575 1.477 6.746 1.477 9.321 0 1.285-.738 1.93-1.707 1.93-2.681v-14.859c0-.353-.086-.701-.253-1.017l-.559-1.065a2.173 2.173 0 0 1 .134-2.259l.285-.417c.253-.364.387-.798.387-1.242v-1.333a2.147 2.147 0 0 0-.086-.712c.059-.209.092-.417.092-.626v-1.065c0-.225-.033-.45-.102-.669.069-.22.102-.445.102-.669l.005.005Z" fill="#fff"/><path d="M156.734 176.703c0 .969.645 1.938 1.93 2.682 2.575 1.477 6.746 1.482 9.321 0 1.285-.739 1.93-1.708 1.93-2.682v-1.065c0 .969-.645 1.938-1.93 2.682-2.575 1.477-6.746 1.477-9.321 0-1.285-.739-1.93-1.708-1.93-2.682v1.065Z" fill="#BA68C8"/><path d="M156.734 179.401c0 .969.645 1.937 1.93 2.681 2.575 1.478 6.746 1.478 9.321 0 1.285-.738 1.93-1.707 1.93-2.681v-1.44c0 .969-.645 1.938-1.93 2.682-2.575 1.477-6.746 1.477-9.321 0-1.285-.739-1.93-1.708-1.93-2.682v1.44Z" fill="#BA68C8"/><path d="M169.92 174.3c0 .112-.011.225-.027.337 0 .027-.011.054-.016.075a3.717 3.717 0 0 1-.059.252c-.226.738-.839 1.439-1.828 2.012-2.574 1.483-6.746 1.477-9.32 0-.99-.567-1.602-1.274-1.828-2.012a.072.072 0 0 0-.011-.033c-.011-.032-.016-.058-.027-.091a2.376 2.376 0 0 1-.07-.546c0-2.472 2.28-4.828 3.269-5.759.526-.492.849-.733.999-1.044.129-.273.113-.422.113-.947h4.424c0 .525-.016.674.113.947.145.311.473.552 1 1.044.994.931 3.268 3.287 3.268 5.754v.011Zm-2.338 12.38c-2.349 1.349-6.155 1.349-8.504 0-1.607-.92-2.112-2.237-1.527-3.409v.01l-.564 1.066a2.167 2.167 0 0 0-.253 1.017v14.858c0 .969.645 1.938 1.93 2.682 2.575 1.477 6.746 1.477 9.321 0 1.285-.739 1.93-1.708 1.93-2.682v-14.858c0-.354-.086-.702-.253-1.017l-.559-1.066v-.01h-.005c.586 1.172.08 2.483-1.527 3.409h.011Z" fill="#BA68C8"/><g opacity=".7" fill="#fff"><path d="M156.734 176.703c0 .969.645 1.938 1.93 2.682 2.575 1.477 6.746 1.482 9.321 0 1.285-.739 1.93-1.708 1.93-2.682v-1.065c0 .969-.645 1.938-1.93 2.682-2.575 1.477-6.746 1.477-9.321 0-1.285-.739-1.93-1.708-1.93-2.682v1.065Z"/><path d="M156.734 179.401c0 .969.645 1.937 1.93 2.681 2.575 1.478 6.746 1.478 9.321 0 1.285-.738 1.93-1.707 1.93-2.681v-1.44c0 .969-.645 1.938-1.93 2.682-2.575 1.477-6.746 1.477-9.321 0-1.285-.739-1.93-1.708-1.93-2.682v1.44Z"/><path d="M169.92 174.3c0 .112-.011.225-.027.337 0 .027-.011.054-.016.075a3.717 3.717 0 0 1-.059.252c-.226.738-.839 1.439-1.828 2.012-2.574 1.483-6.746 1.477-9.32 0-.99-.567-1.602-1.274-1.828-2.012a.072.072 0 0 0-.011-.033c-.011-.032-.016-.058-.027-.091a2.376 2.376 0 0 1-.07-.546c0-2.472 2.28-4.828 3.269-5.759.526-.492.849-.733.999-1.044.129-.273.113-.422.113-.947h4.424c0 .525-.016.674.113.947.145.311.473.552 1 1.044.994.931 3.268 3.287 3.268 5.754v.011Zm-2.338 12.38c-2.349 1.349-6.155 1.349-8.504 0-1.607-.92-2.112-2.237-1.527-3.409v.01l-.564 1.066a2.167 2.167 0 0 0-.253 1.017v14.858c0 .969.645 1.938 1.93 2.682 2.575 1.477 6.746 1.477 9.321 0 1.285-.739 1.93-1.708 1.93-2.682v-14.858c0-.354-.086-.702-.253-1.017l-.559-1.066v-.01h-.005c.586 1.172.08 2.483-1.527 3.409h.011Z"/></g><path d="M169.13 175.178c.048.155.07.305.07.46v1.065c0 .145-.022.289-.059.428l-.06.198.06.198c.048.156.064.322.059.488l-.027.738h.032v.616c0 .299-.091.589-.258.835l-.285.417a2.9 2.9 0 0 0-.177 2.987l.559 1.065c.107.209.166.45.166.685v14.859c0 .744-.559 1.477-1.569 2.061-1.14.653-2.666 1.011-4.3 1.011-1.635 0-3.167-.358-4.301-1.011-1.016-.584-1.569-1.317-1.569-2.061v-14.859c0-.241.059-.476.166-.685l.559-1.065c.221-.412.334-.878.334-1.344 0-.588-.178-1.156-.511-1.643l-.285-.417a1.448 1.448 0 0 1-.258-.835v-.616h.027l-.027-.744a1.517 1.517 0 0 1 .059-.487l.059-.198-.059-.198a1.469 1.469 0 0 1-.059-.428v-1.065c0-.156.022-.311.07-.461l.064-.208-.064-.209a1.53 1.53 0 0 1-.07-.46c0-.868.333-1.74.806-2.538 0 0 0-.01.006-.01.016-.027.032-.059.054-.086.005-.016.016-.027.026-.043.258-.396.667-.765 1.221-1.081 2.08-1.199 5.45-1.199 7.536 0 .553.321.957.691 1.22 1.081.011.011.016.027.027.043l.054.086.005.01c.473.798.806 1.67.806 2.538 0 .155-.027.305-.07.46l-.064.209.064.208-.037.006Z" fill="#BA68C8"/><path opacity=".85" d="M169.13 175.178c.048.155.07.305.07.46v1.065c0 .145-.022.289-.059.428l-.06.198.06.198c.048.156.064.322.059.488l-.027.738h.032v.616c0 .299-.091.589-.258.835l-.285.417a2.9 2.9 0 0 0-.177 2.987l.559 1.065c.107.209.166.45.166.685v14.859c0 .744-.559 1.477-1.569 2.061-1.14.653-2.666 1.011-4.3 1.011-1.635 0-3.167-.358-4.301-1.011-1.016-.584-1.569-1.317-1.569-2.061v-14.859c0-.241.059-.476.166-.685l.559-1.065c.221-.412.334-.878.334-1.344 0-.588-.178-1.156-.511-1.643l-.285-.417a1.448 1.448 0 0 1-.258-.835v-.616h.027l-.027-.744a1.517 1.517 0 0 1 .059-.487l.059-.198-.059-.198a1.469 1.469 0 0 1-.059-.428v-1.065c0-.156.022-.311.07-.461l.064-.208-.064-.209a1.53 1.53 0 0 1-.07-.46c0-.868.333-1.74.806-2.538 0 0 0-.01.006-.01.016-.027.032-.059.054-.086.005-.016.016-.027.026-.043.258-.396.667-.765 1.221-1.081 2.08-1.199 5.45-1.199 7.536 0 .553.321.957.691 1.22 1.081.011.011.016.027.027.043l.054.086.005.01c.473.798.806 1.67.806 2.538 0 .155-.027.305-.07.46l-.064.209.064.208-.037.006Z" fill="#fff"/><path opacity=".7" d="M167.092 174.873c-2.08 1.193-5.45 1.193-7.536 0-1.462-.841-1.897-2.05-1.301-3.11 0 0 0-.011.006-.011.016-.027.032-.059.054-.086.005-.016.016-.026.026-.042.258-.396.667-.766 1.221-1.082 2.08-1.199 5.45-1.199 7.536 0 .554.322.957.691 1.22 1.082.011.01.016.026.027.042l.054.086.005.011c.591 1.06.161 2.269-1.301 3.11h-.011Z" fill="#fff"/><path d="M169.184 178.448a4.881 4.881 0 0 1-1.194.937c-2.575 1.482-6.746 1.482-9.321 0a4.8 4.8 0 0 1-1.198-.942l.01.31h-.026v.616c0 .117.016.235.043.353.301.326.688.637 1.171.91 2.575 1.483 6.746 1.483 9.321 0a5.002 5.002 0 0 0 1.172-.91c.027-.112.043-.23.043-.353v-.616h-.032l.011-.31v.005Zm-.705 5.171a2.867 2.867 0 0 1-.317-1.638c-.053.032-.113.069-.172.101-2.575 1.478-6.746 1.478-9.321 0-.059-.032-.118-.069-.172-.101a2.856 2.856 0 0 1-.317 1.638l-.559 1.065a1.444 1.444 0 0 0-.134.385c.252.594.779 1.156 1.586 1.617 2.349 1.348 6.154 1.348 8.503 0 .807-.466 1.333-1.023 1.586-1.617a1.444 1.444 0 0 0-.134-.385l-.559-1.065h.01Zm-.489-6.638c-2.575 1.483-6.746 1.478-9.321 0a4.826 4.826 0 0 1-1.214-.958v.686c0 .144.021.283.059.428l.059.198-.032.118c.295.31.672.604 1.128.867 2.575 1.477 6.746 1.477 9.321 0a5.003 5.003 0 0 0 1.129-.867l-.032-.118.059-.198c.043-.139.059-.284.059-.428v-.68a4.837 4.837 0 0 1-1.215.958v-.006Z" fill="#BA68C8"/><path opacity=".7" d="M169.184 178.448a4.881 4.881 0 0 1-1.194.937c-2.575 1.482-6.746 1.482-9.321 0a4.8 4.8 0 0 1-1.198-.942l.01.31h-.026v.616c0 .117.016.235.043.353.301.326.688.637 1.171.91 2.575 1.483 6.746 1.483 9.321 0a5.002 5.002 0 0 0 1.172-.91c.027-.112.043-.23.043-.353v-.616h-.032l.011-.31v.005Zm-.705 5.171a2.867 2.867 0 0 1-.317-1.638c-.053.032-.113.069-.172.101-2.575 1.478-6.746 1.478-9.321 0-.059-.032-.118-.069-.172-.101a2.856 2.856 0 0 1-.317 1.638l-.559 1.065a1.444 1.444 0 0 0-.134.385c.252.594.779 1.156 1.586 1.617 2.349 1.348 6.154 1.348 8.503 0 .807-.466 1.333-1.023 1.586-1.617a1.444 1.444 0 0 0-.134-.385l-.559-1.065h.01Zm-.489-6.638c-2.575 1.483-6.746 1.478-9.321 0a4.826 4.826 0 0 1-1.214-.958v.686c0 .144.021.283.059.428l.059.198-.032.118c.295.31.672.604 1.128.867 2.575 1.477 6.746 1.477 9.321 0a5.003 5.003 0 0 0 1.129-.867l-.032-.118.059-.198c.043-.139.059-.284.059-.428v-.68a4.837 4.837 0 0 1-1.215.958v-.006Z" fill="#fff"/><path d="M167.157 197.68c-2.112-1.162-5.542-1.162-7.654 0-1.054.583-1.586 1.343-1.586 2.103v.268c0 .658.516 1.306 1.451 1.82 1.049.578 2.457.894 3.962.894 1.505 0 2.919-.316 3.967-.894.935-.514 1.451-1.162 1.451-1.82v-.268c0-.765-.526-1.525-1.585-2.109l-.006.006Z" fill="#BA68C8"/><path opacity=".75" d="M167.157 197.68c-2.112-1.162-5.542-1.162-7.654 0-1.054.583-1.586 1.343-1.586 2.103v.268c0 .658.516 1.306 1.451 1.82 1.049.578 2.457.894 3.962.894 1.505 0 2.919-.316 3.967-.894.935-.514 1.451-1.162 1.451-1.82v-.268c0-.765-.526-1.525-1.585-2.109l-.006.006Z" fill="#fff"/><g opacity=".2" fill="#BA68C8"><path d="M159.997 200.169V185.31c0-.353.086-.701.253-1.017l.559-1.065a2.173 2.173 0 0 0-.134-2.259l-.285-.417a2.176 2.176 0 0 1-.387-1.242v-1.333a2.15 2.15 0 0 1 .086-.712 2.259 2.259 0 0 1-.092-.626v-1.065c0-.225.032-.45.102-.669a2.2 2.2 0 0 1-.102-.669c0-2.473 1.693-4.828 2.688-5.76.527-.492.855-.738 1-1.043.123-.263.113-.413.113-.894h-2.677c0 .524.016.674-.113.947-.145.305-.473.551-1 1.044-.994.931-3.268 3.286-3.268 5.754 0 .225.032.449.102.669a2.19 2.19 0 0 0-.102.669v1.065c0 .209.032.418.091.626-.07.236-.097.471-.086.712v1.333c0 .444.135.872.387 1.242l.285.417a2.176 2.176 0 0 1 .134 2.259l-.559 1.065a2.184 2.184 0 0 0-.252 1.017v14.859c0 .969.645 1.937 1.929 2.681 1.753 1.007 4.242 1.328 6.467.964-1.172-.15-2.29-.493-3.204-1.017-1.284-.739-1.929-1.708-1.929-2.682l-.006.006Z"/><path d="M167.99 189.544c-2.574 1.477-6.746 1.477-9.321 0-1.284-.739-1.929-1.708-1.929-2.682v6.52c0 .968.645 1.937 1.929 2.681 2.575 1.478 6.747 1.478 9.321 0 1.285-.738 1.93-1.707 1.93-2.681v-6.52c0 .969-.645 1.938-1.93 2.682Z"/></g><path d="M165.266 165.142c-1.07-.616-2.806-.616-3.876 0-.532.305-.801.706-.801 1.108v.439c0 .401.264.808.801 1.113 1.07.615 2.806.615 3.876 0 .537-.305.801-.712.801-1.113v-.439c0-.402-.264-.809-.801-1.114v.006Z" fill="#BA68C8"/><path opacity=".5" d="M165.266 165.142c-1.07-.616-2.806-.616-3.876 0-.532.305-.801.706-.801 1.108v.439c0 .401.264.808.801 1.113 1.07.615 2.806.615 3.876 0 .537-.305.801-.712.801-1.113v-.439c0-.402-.264-.809-.801-1.114v.006Z" fill="#fff"/><path d="M161.39 167.368c-1.07-.615-1.07-1.611 0-2.226 1.069-.616 2.806-.616 3.875 0 1.07.615 1.07 1.611 0 2.226-1.069.616-2.806.616-3.875 0Z" fill="#BA68C8"/><path opacity=".5" d="M161.39 167.368c-1.07-.615-1.07-1.611 0-2.226 1.069-.616 2.806-.616 3.875 0 1.07.615 1.07 1.611 0 2.226-1.069.616-2.806.616-3.875 0Z" fill="#fff"/><path opacity=".1" d="M161.39 167.368c-1.07-.615-1.07-1.611 0-2.226 1.069-.616 2.806-.616 3.875 0 1.07.615 1.07 1.611 0 2.226-1.069.616-2.806.616-3.875 0Z" fill="#000"/><path d="M165.212 164.569c-1.038-.6-2.726-.6-3.769 0-.516.3-.774.69-.779 1.076v.428c0 .391.258.781.779 1.081 1.038.6 2.726.6 3.769 0 .521-.3.779-.69.779-1.081v-.423c0-.391-.258-.781-.779-1.081Z" fill="#BA68C8"/><path opacity=".3" d="M165.212 164.569c-1.038-.6-2.726-.6-3.769 0-.516.3-.774.69-.779 1.076v.428c0 .391.258.781.779 1.081 1.038.6 2.726.6 3.769 0 .521-.3.779-.69.779-1.081v-.423c0-.391-.258-.781-.779-1.081Z" fill="#000"/><path d="M161.444 166.731c-1.038-.599-1.038-1.568 0-2.162 1.037-.6 2.725-.6 3.768 0 1.037.599 1.037 1.568 0 2.162-1.038.6-2.726.6-3.768 0Z" fill="#BA68C8"/><path opacity=".5" d="M161.444 166.731c-1.038-.599-1.038-1.568 0-2.162 1.037-.6 2.725-.6 3.768 0 1.037.599 1.037 1.568 0 2.162-1.038.6-2.726.6-3.768 0Z" fill="#000"/><path d="M165.266 162.316c-1.07-.616-2.806-.616-3.876 0-.532.305-.801.706-.801 1.108v2.098c0 .401.264.808.801 1.113 1.07.616 2.806.616 3.876 0 .537-.305.801-.712.801-1.113v-2.093c0-.402-.264-.808-.801-1.113Z" fill="#BA68C8"/><path opacity=".5" d="M165.266 162.316c-1.07-.616-2.806-.616-3.876 0-.532.305-.801.706-.801 1.108v2.098c0 .401.264.808.801 1.113 1.07.616 2.806.616 3.876 0 .537-.305.801-.712.801-1.113v-2.093c0-.402-.264-.808-.801-1.113Z" fill="#fff"/><path opacity=".76" d="M161.831 164.291c-.828-.477-.828-1.248 0-1.724s2.171-.476 2.999 0c.828.476.828 1.247 0 1.724-.828.476-2.171.476-2.999 0Z" fill="#BA68C8"/><path opacity=".3" d="M164.83 163.563c-.827-.477-2.171-.477-2.999 0a1.469 1.469 0 0 0-.43.364c.102.133.242.257.43.364.828.476 2.172.476 2.999 0 .188-.107.328-.236.43-.364a1.398 1.398 0 0 0-.43-.364Z" fill="#000"/><path opacity=".15" d="M160.589 163.445v2.077c0 .123.026.246.075.364a.948.948 0 0 0-.075.401v.402c0 .401.263.808.8 1.113.393.225.882.369 1.387.428v-.434l.323-.198v-.422l.107-.081h-.107v-2.098c-.624-.027-1.231-.182-1.71-.455-.526-.305-.795-.701-.8-1.097Z" fill="#BA68C8"/><path d="M165.835 164.424c-.183.455-.634.744-1.075.926-.452.188-.946.257-1.43.268-.484-.011-.978-.08-1.43-.268-.441-.187-.892-.471-1.075-.926.269.397.71.611 1.14.755.441.139.903.204 1.365.198.462.006.925-.064 1.365-.198.43-.144.871-.358 1.14-.755Z" fill="#BA68C8" opacity=".3"/><path d="M165.835 165.024c-.183.455-.634.744-1.075.926-.452.187-.946.257-1.43.268-.484-.011-.978-.081-1.43-.268-.441-.187-.892-.471-1.075-.926.269.396.71.61 1.14.755.441.139.903.208 1.365.198.462.005.925-.065 1.365-.198.43-.145.871-.359 1.14-.755Z" fill="#BA68C8" opacity=".3"/><path d="M165.835 165.65c-.183.455-.634.744-1.075.926-.452.187-.946.257-1.43.268-.484-.011-.978-.081-1.43-.268-.441-.187-.892-.471-1.075-.926.269.396.71.61 1.14.755.441.139.903.209 1.365.198.462.005.925-.064 1.365-.198.43-.145.871-.359 1.14-.755Z" fill="#BA68C8" opacity=".3"/><path d="M167.99 190.02c-2.574 1.478-6.746 1.478-9.321 0-1.284-.738-1.929-1.707-1.929-2.681v6.519c0 .969.645 1.938 1.929 2.682 2.575 1.477 6.747 1.477 9.321 0 1.285-.739 1.93-1.708 1.93-2.682v-6.519c0 .968-.645 1.937-1.93 2.681Z" fill="#BA68C8"/><path d="M169.92 192.225v-.396c-.29.273-.564.568-.838.862-.344.369-.699.75-1.081 1.087-1.467 1.29-3.107 1.707-5.02 1.279-1.382-.31-2.608-1.493-3.623-2.612-.215-.236-.42-.476-.619-.707-.629-.733-1.225-1.423-1.999-1.9v.337c.666.455 1.209 1.087 1.779 1.751.199.235.409.476.624.717 1.048 1.151 2.316 2.371 3.773 2.698a6.77 6.77 0 0 0 1.462.171c1.403 0 2.656-.503 3.811-1.515.393-.342.753-.733 1.102-1.108.21-.225.414-.444.629-.658v-.006Z" fill="#FAFAFA"/><path d="M168.092 194.955c-1.671 1.381-3.45 1.494-5.09 1.13-1.457-.327-2.784-1.397-3.757-2.468-.85-.931-1.548-1.916-2.516-2.542v2.301c0 .969.645 1.938 1.93 2.682 2.575 1.477 6.746 1.477 9.321 0 1.284-.739 1.929-1.708 1.929-2.682v-.278c-.612.594-1.15 1.301-1.822 1.857h.005Z" fill="#FAFAFA"/><path opacity=".1" d="M159.508 190.427a8.125 8.125 0 0 1-.844-.407c-1.285-.738-1.93-1.707-1.93-2.681v6.519c0 .969.645 1.938 1.93 2.682.264.149.548.289.844.406v-6.519Z" fill="#000"/><path d="M99.38 86.674c-1.387 6.605-1.043 8.756-.124 12.888.478 2.168 2.687 8.27 4.235 15.218 1.371 6.177 2.134 10.073 3.236 16.245.409 2.296.839 4.555.973 8.58.102 3.029.403 7.135 1.092 15.779.709 8.853 1.892 14.554 1.892 14.554s-.866 1.841-2.059 2.29c-1.193.445-2.247 2.184-3.43 1.67-1.182-.519-4.956-4.576-3.999-8.596 0 0-.247-2.13-1.306-5.325-1.876-5.669-6.79-14.677-4.37-21.785 0 0-9.219-15.983-10.703-19.103-1.483-3.121-6.434-11.053-6.251-17.498.183-6.444 20.808-14.912 20.808-14.912l.005-.005Z" fill="#F28F8F"/><path d="M123.993 181.991c.129.584.097.996-2.031 1.885-2.188.915-5.419 1.065-8.225.578s-5.364-2.768-6.628-4.395c-1.263-1.627-3.73-3.078-5.343-3.816-1.607-.739-1.956-1.049-1.865-1.568.092-.514.452-1.885.452-1.885l23.64 9.196v.005Z" fill="#EBEBEB"/><path d="M100.03 170.655c.285-1.713.435-2.735.355-4.116-.081-1.328.817-1.247.817-1.247s0 .669.075 1.172c.108.508.892.562 1.167.942.612.856.645 1.488 1.419 1.702.811.225.833-1.092 1.682-1.14.28-.016.57.128.871.38-.129-.439-.177-.803-.118-1.06.193-.83 2.263-1.108 3.719-1.456 1.462-.348.866.733 1.468 2.093.607 1.36 3.961 5.818 5.3 7.178 0 0 1.946 1.579 3.79 2.724 1.843 1.146 2.488 1.488 3.026 1.788.537.294.731 1.488.494 2.211-.236.722-4.208 2.687-8.589 1.98-4.381-.707-5.741-2.451-7.381-4.625a11.913 11.913 0 0 0-4.757-3.757c-1.113-.482-2.349-1.06-3.15-1.89 0 0-.478-1.172-.193-2.885l.005.006Z" fill="#BA68C8"/><path opacity=".2" d="M100.03 170.655c.285-1.713.435-2.735.355-4.116-.081-1.328.817-1.247.817-1.247s0 .669.075 1.172c.108.508.892.562 1.167.942.612.856.645 1.488 1.419 1.702.811.225.833-1.092 1.682-1.14.28-.016.57.128.871.38-.129-.439-.177-.803-.118-1.06.193-.83 2.263-1.108 3.719-1.456 1.462-.348.866.733 1.468 2.093.607 1.36 3.961 5.818 5.3 7.178 0 0 1.946 1.579 3.79 2.724 1.843 1.146 2.488 1.488 3.026 1.788.537.294.731 1.488.494 2.211-.236.722-4.208 2.687-8.589 1.98-4.381-.707-5.741-2.451-7.381-4.625a11.913 11.913 0 0 0-4.757-3.757c-1.113-.482-2.349-1.06-3.15-1.89 0 0-.478-1.172-.193-2.885l.005.006Z" fill="#000"/><path opacity=".2" d="M116.785 175.108c-1.333-1.359-4.693-5.818-5.3-7.178-.608-1.359-.011-2.44-1.468-2.092-1.462.347-3.531.626-3.719 1.455-.194.83.634 2.725 2.37 5.01 1.736 2.286 5.005 4.513 5.005 4.513l3.112-1.713v.005Z" fill="#000"/><path d="M123.316 180.38c-.769.241-1.613.493-1.629.787-.016.295.054 1.927-.333 2.494-.392.568-.898.739-1.645.846-.747.107-3.956.3-5.87-.155-1.913-.455-3.698-1.301-5.456-3.072-1.757-1.772-2.112-2.655-4.37-3.961s-3.085-1.483-4.09-2.286c0 0-.119.412-.135.685 0 0 .317.429 1.038.744.72.316 3.187 1.355 4.192 2.12 1 .765 2.161 2.066 3.15 3.142.984 1.076 3.204 2.623 5.687 3.078 2.484.455 5.865.353 8.026-.536 2.161-.883 2.247-1.338 2.424-1.605.177-.268.161-1.831.011-2.163-.151-.337-.441-.284-.995-.112l-.005-.006Z" fill="#263238"/><path d="M112.947 176.205c1.516-1.166 2.843-1.632 3.451-1.509 0 0 .489.225.618.599 0 0-1.193.022-3.344 1.526 0 0-.655-.032-.725-.61v-.006Zm2.155-3.072c-1.139.07-2.542.642-4.182 1.718 0 0-.521-.037-.682-.61 0 0 2.188-1.777 4.354-1.756 0 0 .521.241.51.653v-.005Zm-1.655-2.178c-.984-.295-3.666 1.156-4.44 1.948 0 0-.618.032-.694-.691 0 0 2.118-2.055 4.543-2.087 0 0 .688.257.591.83Zm-1.43-2.083c-.484-.058-3.177.188-4.693 1.686 0 0-.516-.155-.559-.733 0 0 1.839-1.905 4.79-1.75 0 0 .365.251.456.792l.006.005Z" fill="#FAFAFA"/><path d="M95.45 147.2c.984.594 1.661.803 1.661.803l.5-5.385.978 6s5.736.124 9.515-2.076c-.167-2.414-.167-5.819-.167-8.388s-1.193-9.484-2.112-15.056c-.92-5.567-3.984-16.641-5.231-19.896-1.247-3.254-2.392-10.255-1.215-16.528 0 0-4.472 1.563-11.653 5.55-7.182 3.988-9.326 6.338-9.6 8.917-.275 2.58 1.166 7.772 3.972 13.655 2.806 5.882 13.051 23.385 13.051 23.385s-1.134 4.18.301 9.014v.005Z" fill="#BA68C8"/><path opacity=".2" d="M95.45 147.2c.984.594 1.661.803 1.661.803l.5-5.385.978 6s5.736.124 9.515-2.076c-.167-2.414-.167-5.819-.167-8.388s-1.193-9.484-2.112-15.056c-.92-5.567-3.984-16.641-5.231-19.896-1.247-3.254-2.392-10.255-1.215-16.528 0 0-4.472 1.563-11.653 5.55-7.182 3.988-9.326 6.338-9.6 8.917-.275 2.58 1.166 7.772 3.972 13.655 2.806 5.882 13.051 23.385 13.051 23.385s-1.134 4.18.301 9.014v.005Z" fill="#000"/><path opacity=".2" d="M97.66 132.845c-.77-3.244-8.634-24.991-13.219-32.217l-.44.278c4.558 7.188 12.384 28.829 13.148 32.056.344 1.451.311 3.019.263 5.39-.032 1.676-.075 3.726 0 6.38l.194-2.114.322 1.975c-.07-2.585-.032-4.592 0-6.235.048-2.414.08-4.009-.28-5.524l.011.011Z" fill="#000"/><path opacity=".2" d="M97.396 125.164c-1.376 1.959-4.537 4.812-6.182 6.225-3.204-5.583-7.46-13.119-9.122-16.593-1.822-3.811-3.058-7.328-3.633-10.042l9.342-4.373c-1.597-2.312-3.424-4.1-5.096-5.074a7.418 7.418 0 0 0-1.414-.642c.506 0 1.097.16 1.72.433 2.785 1.189 6.23 4.448 6.23 4.448s4.957-2.9 7.343-6.781c-.446 2.258-4.268 6.867-5.999 8.002 2.58 4.341 6.585 10.823 7.8 14.644 1.215 3.811.903 7.05-.99 9.758v-.005Z" fill="#000"/><path d="m94.8 169.996-3.898-2.237c-.414-.235-.79-.251-1.08-.086-.344.204-3.951 2.275-4.242 2.447-.349.203-.57.663-.57 1.327v3.581l7.193 4.132 4.246-2.446v-3.581c0-1.21-.736-2.612-1.65-3.137Z" fill="#37474F"/><path d="m90.553 172.443-3.897-2.238c-.909-.524-1.65.032-1.65 1.242v3.581l7.192 4.132v-3.581c0-1.21-.737-2.612-1.65-3.136h.005Z" fill="#263238"/><path d="m90.311 172.748-3.779-2.173c-.397-.231-.758-.236-1.037-.075l-.01-.011-33.656 19.355c-.339.198-.559.642-.559 1.284v1.103l6.972 4.009 33.655-19.349v-1.103c0-1.172-.715-2.532-1.597-3.04h.011Z" fill="#455A64"/><path d="m58.725 190.738-3.897-2.238c-.414-.235-.79-.251-1.08-.085-.344.203-3.95 2.274-4.241 2.446-.35.203-.57.663-.57 1.327v3.581l7.192 4.132 4.247-2.446v-3.581c0-1.21-.737-2.612-1.65-3.136Z" fill="#37474F"/><path d="m54.479 193.178-3.897-2.237c-.909-.525-1.65.032-1.65 1.242v3.581l7.192 4.132v-3.581c0-1.21-.737-2.612-1.65-3.137h.005Z" fill="#263238"/><path d="M150.434 223.747v2.59l-2.123 1.221v-2.586l-24.7-19.419c-2.037-1.6-4.101-2.901-6.154-3.87l-42.826-20.237-3.526-2.034 1.769-1.023 46.7 22.069c2.054.974 4.123 2.275 6.155 3.87l24.7 19.419h.005Z" fill="#455A64"/><path d="M148.317 224.978v2.585l-24.7-19.419c-2.037-1.595-4.102-2.896-6.155-3.87l-41.046-19.398v-.224c0-1.012-.527-2.168-1.231-2.821a2.268 2.268 0 0 0-.42-.311l-.123-.075 42.825 20.238c2.054.969 4.118 2.27 6.155 3.87l24.7 19.419-.005.006Zm23.828-10.518-3.897-2.237c-.414-.236-.79-.252-1.081-.086-.344.203-3.951 2.275-4.241 2.446-.349.203-.57.664-.57 1.327v3.581l7.193 4.132 4.246-2.446v-3.581c0-1.209-.736-2.612-1.65-3.136Z" fill="#37474F"/><path d="m167.898 216.906-3.897-2.237c-.908-.525-1.65.032-1.65 1.241v3.581l7.192 4.132v-3.58c0-1.21-.736-2.612-1.65-3.137h.005Z" fill="#263238"/><path d="m167.657 217.211-3.779-2.173c-.398-.23-.758-.236-1.037-.075l-.011-.011-33.655 19.355c-.339.198-.559.642-.559 1.285v1.102l6.972 4.009 33.655-19.349v-1.103c0-1.172-.715-2.531-1.597-3.04h.011Z" fill="#455A64"/><path d="m136.071 235.201-3.897-2.237c-.414-.236-.79-.252-1.08-.086-.344.203-3.951 2.275-4.241 2.446-.35.203-.57.664-.57 1.328v3.58l7.192 4.133 4.246-2.447v-3.58c0-1.21-.736-2.612-1.65-3.137Z" fill="#37474F"/><path d="m131.825 237.647-3.897-2.237c-.909-.525-1.651.032-1.651 1.242v3.58l7.193 4.133v-3.581c0-1.21-.737-2.612-1.651-3.137h.006Zm-5.929-90.415 3.085-.466a27.766 27.766 0 0 1 8.074 13.066l18.013 64.295-3.833-2.206-17.26-61.618a27.743 27.743 0 0 0-8.074-13.06h-.005v-.011Z" fill="#263238"/><path d="m155.073 224.121-18.012-64.289a27.785 27.785 0 0 0-8.08-13.066l-1.225-4.03 2.349 2.168a27.791 27.791 0 0 1 7.929 12.926l18.356 65.531-1.317.76Z" fill="#37474F"/><path d="m130.384 149.989-2.306-8.259c-7.708 2.162-13.653 3.923-19.625 7.574-4.972 2.687-9.816 6.487-15.551 12.728-6.65 7.237-14.159 15.934-16.862 20.077l7.81 3.693 2.129-1.225c2.698-4.143 5.192-7.355 11.841-14.591 5.596-6.091 10.23-10.063 14.96-12.953 4.612-2.5 9.455-4.133 15.476-5.824l2.128-1.226v.006Z" fill="#263238"/><path d="m128.073 141.73-2.134 1.22c-6.762 1.9-12.164 3.479-17.416 6.305 5.945-3.618 11.869-5.374 19.545-7.525h.005Z" fill="#455A64"/><path d="m76.034 182.109 7.81 3.693c2.699-4.142 5.193-7.354 11.842-14.591 11.826-12.872 19.373-16.298 32.564-19.997l-2.306-8.259c-13.196 3.704-21.222 6.204-33.047 19.077-6.65 7.237-14.159 15.934-16.863 20.077Z" fill="#37474F"/><path d="m116.715 155.807-2.989-1.472-.726-1.745 7.37-2.328 1.322 3.912-4.977 1.633Z" fill="#263238"/><path opacity=".2" d="m113.726 154.335 7.246-2.296.726 2.135-4.983 1.633-2.989-1.472Z" fill="#000"/><path d="M120.365 151.621c0 .295-.177.428-.403.3-.226-.129-.403-.471-.403-.766 0-.294.177-.428.403-.299.226.128.403.471.403.765Zm-5.902 1.815c0 .294-.178.428-.404.299-.22-.128-.403-.471-.403-.765 0-.294.178-.428.403-.3.226.129.404.471.404.766Z" fill="#455A64"/><path d="M150.982 195.913c0-11.261-6.875-24.343-15.357-29.224-3.843-2.211-7.359-2.35-10.052-.803-.704.406-3.542 2.028-4.263 2.446-3.236 1.873-5.289 6.203-5.289 12.348 0 11.262 6.875 24.343 15.357 29.225 3.844 2.211 7.354 2.35 10.047.803.709-.407 3.537-2.023 4.252-2.436 3.247-1.873 5.3-6.203 5.3-12.359h.005Z" fill="#BA68C8"/><path opacity=".65" d="M150.982 195.913c0-11.261-6.875-24.343-15.357-29.224-3.843-2.211-7.359-2.35-10.052-.803-.704.406-3.542 2.028-4.263 2.446-3.236 1.873-5.289 6.203-5.289 12.348 0 11.262 6.875 24.343 15.357 29.225 3.844 2.211 7.354 2.35 10.047.803.709-.407 3.537-2.023 4.252-2.436 3.247-1.873 5.3-6.203 5.3-12.359h.005Z" fill="#fff"/><path d="M140.613 211.121c6.78-2.873 8.143-14.875 3.044-26.808-5.1-11.934-14.73-19.278-21.51-16.406-6.78 2.873-8.143 14.875-3.043 26.809 5.099 11.933 14.729 19.278 21.509 16.405Z" fill="#BA68C8"/><path opacity=".45" d="M140.613 211.121c6.78-2.873 8.143-14.875 3.044-26.808-5.1-11.934-14.73-19.278-21.51-16.406-6.78 2.873-8.143 14.875-3.043 26.809 5.099 11.933 14.729 19.278 21.509 16.405Z" fill="#fff"/><path d="M138.576 206.353c5.283-2.238 6.344-11.592 2.37-20.892-3.974-9.3-11.479-15.025-16.762-12.786-5.283 2.238-6.344 11.592-2.37 20.892 3.974 9.3 11.478 15.025 16.762 12.786Z" fill="#263238"/><path d="M135.669 199.552c3.15-1.335 3.783-6.911 1.414-12.454-2.369-5.544-6.843-8.956-9.992-7.621-3.15 1.334-3.783 6.91-1.414 12.453 2.369 5.544 6.842 8.956 9.992 7.622Z" fill="#BA68C8"/><path d="M134.217 200.099c-.936 0-1.941-.294-2.968-.888-4.004-2.302-7.267-8.495-7.267-13.799 0-2.848.946-5.021 2.596-5.974 1.376-.792 3.129-.658 4.929.375 4.005 2.302 7.268 8.494 7.268 13.799 0 2.847-.946 5.02-2.596 5.973a3.874 3.874 0 0 1-1.962.514Zm-5.671-20.65c-.619 0-1.194.145-1.704.439-1.484.851-2.333 2.864-2.333 5.518 0 5.144 3.144 11.128 7.004 13.35 1.634.936 3.198 1.07 4.408.374 1.483-.851 2.332-2.863 2.332-5.518 0-5.139-3.144-11.128-7.004-13.349-.94-.541-1.859-.814-2.703-.814Z" fill="#FAFAFA"/><path d="M131.384 169.124c2.532 1.36 4.719 3.308 6.601 5.481 1.881 2.178 3.445 4.619 4.762 7.172 1.28 2.575 2.322 5.267 3.021 8.056l.457 2.103.333 2.125.172 2.141.011 2.147-.15-2.136-.285-2.114-.403-2.093-.522-2.066a41.775 41.775 0 0 0-3.101-7.922 38.729 38.729 0 0 0-4.607-7.151c-.425-.572-.925-1.081-1.398-1.606-.462-.545-1.005-1-1.515-1.504-.13-.123-.253-.251-.388-.369l-.413-.337-.828-.68c-.269-.241-.581-.412-.871-.621l-.882-.615.006-.011Z" fill="#fff"/><path d="M116.715 155.807c7.923 7.344 19.12 14.842 22.485 14.088l-1.425-4.989c-1.666.974-9.944-5.583-14.072-11.39l-6.988 2.286v.005Z" fill="#37474F"/><path d="M139.2 169.895s.172-.353.065-.75l-1.807-6.326.323 2.087 1.424 4.989h-.005Z" fill="#263238"/><path d="m129.513 150.262-5.81 3.259c4.128 5.808 12.406 12.359 14.072 11.391-.118-3.785-2.806-7.649-8.262-14.645v-.005Z" fill="#455A64"/><path d="m99.24 190.845-11.514-56.748-3.505-.466-2.129 1.226 11.278 55.447 3.741 1.766 2.129-1.225Z" fill="#263238"/><path d="m82.092 134.857 2.129-1.226 3.505.466-2.129 1.226-3.505-.466Z" fill="#455A64"/><path d="m93.37 190.304-11.278-55.447 3.505.466 11.514 56.747-3.741-1.766Z" fill="#37474F"/><path d="m87.108 134.017-2.58-12.702-2.753-1.579-1.908 1.097 2.844 13.949 2.489.332 1.908-1.097Z" fill="#263238"/><path d="m82.625 122.412-2.758-1.579 2.844 13.949 2.489.332-2.575-12.702Z" fill="#37474F"/><path opacity=".2" d="m84.528 121.315-2.753-1.579-1.908 1.097.882 4.315 2.752 1.584 1.903-1.097-.876-4.32Z" fill="#000"/><path d="m92.58 121.69-16.228-9.33-4.242 2.436v2.601l16.223 9.335 4.247-2.441v-2.601Z" fill="#263238"/><path d="m88.333 124.131-16.223-9.335v2.601l16.223 9.335v-2.601Z" fill="#37474F"/><path d="m88.333 124.131 4.247-2.441-16.228-9.33-4.242 2.436 16.223 9.335Z" fill="#455A64"/><path d="m82.275 117.354-3.258-16.052-2.757-1.579-1.903 1.097 3.263 16.047 2.752 1.585 1.903-1.098Z" fill="#263238"/><path d="m77.115 102.399-2.758-1.579 3.263 16.047 2.752 1.585-3.257-16.053Z" fill="#37474F"/><path opacity=".2" d="m79.017 101.302-2.757-1.579-1.903 1.097.876 4.314 2.758 1.579 1.903-1.091-.877-4.32Z" fill="#000"/><path d="M86.113 99.996c-1.204-2.29-4.16-5.716-4.16-5.716s-7.446-11.578-16.922-6.975c-1.909.926-2.935 2.221-3.478 4.25-.204.76-.215 1.675-.204 1.964.053 1.269.279 1.794.935 2.837 1.086 1.735 4.38 3.324 8.375 4.63l.86.273c1.43.434 2.87.814 4.31 1.21 1.425.391 2.855.787 4.253 1.263.575.198 1.145.407 1.698.653.226.102.452.209.667.332.295.166.414.23.763.348.199.069.51.096.72.075.194-.022.387-.048.57-.107.167-.054.323-.134.468-.23.548-.359.967-.9 1.225-1.499.452-1.06.463-2.28-.075-3.308h-.005Z" fill="#37474F"/><path d="M65.025 87.31c-2.87 1.398-4.59 4.213-2.628 7.35 1.086 1.734 4.38 3.324 8.375 4.63 3.993 1.306 10.874 2.708 12.497 4.228 1.618 1.515 4.252-.824 2.844-3.517-1.199-2.29-4.16-5.716-4.16-5.716S74.506 82.707 65.03 87.31h-.006Zm70.079 108.539-4.489-16.025s-5.681-4.769-10.369-8.388c-4.687-3.618-20.007-15.008-26.393-18.68-2.558-1.472-4.902-1.568-6.697-.541-.72.412-3.537 2.034-4.252 2.441-2.172 1.247-3.543 4.138-3.543 8.248 0 7.51 4.585 16.24 10.246 19.489 6.988 4.014 15.991 7.012 22.63 9.533 6.639 2.521 18.615 6.359 18.615 6.359l4.246-2.441.006.005Z" fill="#455A64"/><path d="m126.374 182.264 4.247-2.44 4.483 16.025-4.242 2.436-4.488-16.021Z" fill="#263238"/><path d="M126.374 182.264s-5.682-4.769-10.369-8.387c-4.687-3.618-20.007-15.008-26.393-18.68-5.66-3.255-10.245.198-10.245 7.713s4.585 16.239 10.245 19.488c6.988 4.015 15.992 7.012 22.63 9.533 6.639 2.521 18.615 6.359 18.615 6.359l-4.488-16.026h.005Z" fill="#37474F"/><path d="M89.805 180.643c-4.902-2.789-9.052-10.47-9.035-16.968.016-6.45 3.972-9.42 8.842-6.621 6.053 3.479 20.007 13.959 25.189 18.177 3.935 3.206 8.316 7.189 10.374 8.966.382.326.699.856.855 1.418l2.526 9.024c.156.562-.059.985-.44.857-3.865-1.263-11.364-3.747-16.073-5.535-1.236-.471-2.537-.947-3.913-1.456-5.988-2.21-12.772-4.71-18.32-7.868l-.005.006Z" fill="#455A64"/><path d="M112.42 185.369a6.603 6.603 0 0 0-2.317-3.426c-2.618-2.023-7.66-5.887-11.095-8.318-.79-.562-1.747-1.225-2.795-1.943-5.29-3.623-12.89-8.639-13.035-8.735a9.837 9.837 0 0 0-.199 2.029c0 4.865 2.973 10.512 6.633 12.621.06.032.113.064.172.096 7.096 4.025 23.254 9.849 23.254 9.849l-.618-2.178v.005Z" fill="#BA68C8"/><path opacity=".25" d="M112.42 185.369a6.603 6.603 0 0 0-2.317-3.426c-2.618-2.023-7.66-5.887-11.095-8.318-.79-.562-1.747-1.225-2.795-1.943-5.29-3.623-12.89-8.639-13.035-8.735a9.837 9.837 0 0 0-.199 2.029c0 4.865 2.973 10.512 6.633 12.621.06.032.113.064.172.096 7.096 4.025 23.254 9.849 23.254 9.849l-.618-2.178v.005Z" fill="#fff"/><path d="M93.966 171.297c0 3.19-1.95 4.657-4.354 3.276-2.402-1.381-4.354-5.09-4.354-8.281 0-3.19 1.946-4.656 4.354-3.275 2.403 1.381 4.354 5.09 4.354 8.28Z" fill="#37474F"/><path d="M92.682 170.558c0 2.248-1.371 3.282-3.064 2.307-1.694-.974-3.064-3.586-3.064-5.834 0-2.248 1.37-3.281 3.064-2.307 1.693.974 3.064 3.586 3.064 5.834Z" fill="#263238"/><path d="M90.972 170.082c0 1.365-.833 1.997-1.865 1.402-1.032-.594-1.865-2.178-1.865-3.548 0-1.371.833-1.997 1.865-1.403 1.032.594 1.865 2.179 1.865 3.549Z" fill="#37474F"/><path d="m113.247 187.349-.123-.042c-.162-.059-16.218-5.867-23.222-9.838-.054-.027-.107-.059-.161-.091-3.585-2.061-6.504-7.622-6.504-12.397 0-2.462.79-4.325 2.16-5.117 1.119-.642 2.57-.519 4.08.348 2.828 1.627 5.306 3.249 7.924 4.967l.586.38a3.088 3.088 0 0 0 3.784-.305l1.016-.931c.059-.054.124-.102.188-.139l4.22-2.425c-.156-.113-.307-.225-.463-.332l-4.015 2.307a1.516 1.516 0 0 0-.28.203l-1.015.932a2.567 2.567 0 0 1-3.145.251l-.586-.38c-2.629-1.718-5.106-3.345-7.95-4.978-1.677-.963-3.311-1.092-4.601-.348-1.543.884-2.425 2.918-2.425 5.567 0 4.94 3.037 10.705 6.763 12.846.059.038.118.07.172.097 6.703 3.805 21.641 9.27 23.167 9.821l1.43 4.925c.199.075.403.144.608.219l-1.608-5.545v.005Z" fill="#263238"/><path d="M125.165 182.586c0 .39-.242.572-.538.401-.295-.171-.537-.626-.537-1.017 0-.391.242-.573.537-.401.296.171.538.626.538 1.017Zm4.741 14.227c0 .39-.242.572-.538.401-.296-.171-.537-.626-.537-1.017 0-.391.241-.573.537-.401.296.171.538.626.538 1.017Z" fill="#455A64"/><path d="m86.677 170.376-.37.279c.145.305.3.605.472.894l.371-.279c.13-.096.13-.38 0-.626-.129-.246-.338-.369-.473-.273v.005Zm-.881-4.223-.522-.299a5.638 5.638 0 0 0 0 .883l.522.299c.183.108.333-.005.333-.251s-.15-.53-.333-.632Zm3.816 7.264c-.182-.107-.333.005-.333.251v.691a4.57 4.57 0 0 0 .667.38v-.691c0-.246-.15-.53-.334-.631Zm2.462.059c-.129.096-.129.38 0 .626l.371.701c.167-.096.328-.214.473-.353l-.37-.701c-.13-.247-.34-.37-.474-.273Zm1.876-2.634-.521-.3c-.183-.107-.333.006-.333.252s.15.53.333.632l.521.299a6.264 6.264 0 0 0 0-.883Z" fill="#263238"/><path d="M90.133 169.6c0 .755-.462 1.103-1.032.776-.57-.326-1.032-1.204-1.032-1.959 0-.754.463-1.102 1.032-.776.57.327 1.032 1.205 1.032 1.959Z" fill="#BA68C8"/><path d="m120.897 145.375.161 5.791a50.305 50.305 0 0 0 1.855 12.22l18.045 64.477 3.832 2.205 1.317-.76-18.469-65.975a50.445 50.445 0 0 1-1.855-12.242l-1.806-6.176-3.085.465.005-.005Z" fill="#455A64"/><path d="M135.26 207.502a336.899 336.899 0 0 1 3.026 10.127c.489 1.691.957 3.388 1.419 5.09a278.01 278.01 0 0 1 1.366 5.106l-.054-.069c1.268.754 2.521 1.525 3.773 2.307a236.178 236.178 0 0 1-3.892-2.104l-.037-.021-.016-.049a321.22 321.22 0 0 1-1.484-5.074 286.805 286.805 0 0 1-1.43-5.085 337.262 337.262 0 0 1-2.671-10.223v-.005Zm10.847 21.8-18.469-65.975a50.43 50.43 0 0 1-1.855-12.241l-1.806-6.177.161 5.775a50.445 50.445 0 0 0 1.855 12.242l18.797 67.137 1.317-.761Z" fill="#37474F"/><path d="M146.107 229.302a3075.137 3075.137 0 0 1-5.531-19.461l-5.493-19.473-5.43-19.488-1.354-4.871c-.446-1.627-.93-3.244-1.306-4.892a49.234 49.234 0 0 1-1.247-10.031v.011l-1.769-6.188 1.844 6.166v.011a52.223 52.223 0 0 0 1.322 9.998c.382 1.638.871 3.255 1.322 4.877l1.371 4.865 5.478 19.478 5.413 19.494a4039.756 4039.756 0 0 1 5.375 19.504h.005Zm-59.935-57.828a.782.782 0 0 1-.65-.348l-10.611-15.86a.774.774 0 0 1 .215-1.081.783.783 0 0 1 1.085.214l10.203 15.25 2.016-1.157a.788.788 0 0 1 1.07.284.782.782 0 0 1-.286 1.065l-2.65 1.526a.807.807 0 0 1-.392.107Z" fill="#263238"/><path d="m81.936 158.649-9.434-9.592a1.101 1.101 0 0 0-1.053-.294l-9.536 2.441c-.382.096-.677.39-.785.765l-.145.525c-.107.374 0 .781.274 1.059l9.445 9.603c.274.278.677.391 1.059.294l9.525-2.446c.376-.096.677-.391.784-.765l.146-.525a1.09 1.09 0 0 0-.274-1.06l-.006-.005Z" fill="#BA68C8"/><path opacity=".2" d="m81.936 158.649-9.434-9.592a1.101 1.101 0 0 0-1.053-.294l-9.536 2.441c-.382.096-.677.39-.785.765l-.145.525c-.107.374 0 .781.274 1.059l9.445 9.603c.274.278.677.391 1.059.294l9.525-2.446c.376-.096.677-.391.784-.765l.146-.525a1.09 1.09 0 0 0-.274-1.06l-.006-.005Z" fill="#000"/><path d="M71.212 161.443c.253.257.63.364.984.273l10.02-2.574a1.083 1.083 0 0 0-.28-.493l-3.628-3.688-5.806-5.904a1.101 1.101 0 0 0-1.053-.294l-1.156.294-8.38 2.141c-.188.049-.36.145-.494.279l9.799 9.961-.006.005Z" fill="#BA68C8"/><path d="M75.126 77.59c-3.473 4.132-7.596 8.12-9.455 14.324-1.86 6.203-.248 11.358 3.101 15.324 3.349 3.966 4.376 5.122 8.407 8.976a275.45 275.45 0 0 0 4.919 4.55s-3.193 1.525-5.607 6.021c-1.806 3.367-4.263 9.127-7.353 13.087l-.656.937s-2.682 4.689-1.914 5.347c.866.739 3.596-1.386 5.209-1.247 1.613.139 5.725 2.419 5.725 2.419s-1.097-3.249-.135-5.047c.398-.739 2.113-2.446 3.032-3.297 3.397-3.153 9.487-8.778 13.519-12.546 4.413-4.133 3.773-7.371 2.607-10.882-.978-2.96-8.67-14.35-9.541-15.394 0 0 1.397-.6 3.596-2.013 2.704-1.734 4.494-3.334 6.069-5.92 1.978-3.238 2.72-5.555 2.72-5.555s-1.479.936-7.182-.22c-5.703-1.161-14.841-4.475-17.072-8.864h.01Z" fill="#FFA8A7"/><path d="M76.792 125.774c.258 1.568 1.398 2.858 1.398 2.858l3.241-3.088-2.327 4.121s1.919 2.928 3.612 4.041c1.688 1.114 3.628 0 3.628 0s4.714-4.346 6.757-6.102c2.037-1.75 4.44-4.308 4.515-7.697.07-3.393-1.075-5.459-2.988-8.997-1.914-3.538-6.822-10.518-6.822-10.518s4.623-2.44 7.386-5.77c2.57-3.094 3.29-5.368 4.188-7.943l-24.254-10.31s-1.494 1.74-4.542 5.402c-2.5 2.997-5.112 5.454-6.123 10.838-1.01 5.385.113 9.218 3.462 14.26 3.349 5.036 13.46 13.798 13.46 13.798s-2.634 1.745-4.585 5.112l-.006-.005Z" fill="#BA68C8"/><path opacity=".2" d="M72.357 105.873c-5.224-7.135-3.569-14.393-1.3-17.294a89.386 89.386 0 0 1 2.031-2.473c1.731-2.055 3.521-4.18 5.225-7.167l-.451-.257c-1.683 2.95-3.457 5.053-5.171 7.092a90.699 90.699 0 0 0-2.043 2.49c-2.365 3.018-4.107 10.555 1.29 17.92 2.258 3.083 4.908 5.754 7.246 8.103 3.032 3.051 5.424 5.46 5.09 6.98-.182.83-2.29 3.42-3.907 5.299l1.07-1.017-.947 1.675c1.522-1.745 4.064-4.785 4.295-5.845.398-1.798-1.962-4.169-5.225-7.456-2.327-2.339-4.961-4.994-7.197-8.045l-.006-.005Zm10.649-10.774c-.623-.273-1.21-.434-1.72-.434.457.14.93.358 1.414.642 1.677.98 3.5 2.762 5.096 5.074l1.435-.835s-3.446-3.26-6.23-4.448h.005Z" fill="#000"/><path d="M85.834 162.985c-.049.621-.2 1.017-2.58 1.268-2.446.257-5.698-.551-8.343-1.873-2.645-1.322-4.5-4.341-5.263-6.338-.768-1.991-2.907-4.506-4.284-5.721-1.376-1.215-1.628-1.628-1.381-2.109.242-.487 1.016-1.735 1.016-1.735l20.84 16.502-.005.006Z" fill="#EBEBEB"/><path d="M65.31 144.256c.796-1.616 1.855-1.873 2.189-3.27.322-1.338 1.644-1.114 1.644-1.114l-.656.937c-.048.535.162.819.318 1.279.354 1.033.193 1.665.903 2.109.742.466 1.15-.835 2.016-.631.284.064.526.299.752.637 0-.471.064-.851.199-1.087.44-.771 2.58-.428 4.134-.337 1.553.085.64.985.827 2.515.194 1.531 2.188 6.959 3.107 8.704 0 0 1.457 2.146 2.946 3.832s2.027 2.221 2.467 2.671c.447.455.28 1.691-.172 2.344-.451.648-4.983 1.419-9.122-.588-4.139-2.008-4.966-4.143-5.94-6.793a12.376 12.376 0 0 0-3.596-5.149c-.962-.808-2.139-2.093-2.682-3.152 0 0-.124-1.306.672-2.923l-.005.016Z" fill="#BA68C8"/><path opacity=".2" d="M65.31 144.256c.796-1.616 1.855-1.873 2.189-3.27.322-1.338 1.644-1.114 1.644-1.114l-.656.937c-.048.535.162.819.318 1.279.354 1.033.193 1.665.903 2.109.742.466 1.15-.835 2.016-.631.284.064.526.299.752.637 0-.471.064-.851.199-1.087.44-.771 2.58-.428 4.134-.337 1.553.085.64.985.827 2.515.194 1.531 2.188 6.959 3.107 8.704 0 0 1.457 2.146 2.946 3.832s2.027 2.221 2.467 2.671c.447.455.28 1.691-.172 2.344-.451.648-4.983 1.419-9.122-.588-4.139-2.008-4.966-4.143-5.94-6.793a12.376 12.376 0 0 0-3.596-5.149c-.962-.808-2.139-2.093-2.682-3.152 0 0-.124-1.306.672-2.923l-.005.016Z" fill="#000"/><path opacity=".2" d="M80.738 154.003c-.92-1.745-2.919-7.172-3.107-8.703-.194-1.531.726-2.425-.828-2.516-1.553-.085-3.693-.428-4.133.337-.441.771-.189 2.896.854 5.679 1.043 2.784 3.612 5.974 3.612 5.974l3.602-.776v.005Z" fill="#000"/><path d="M85.645 161.181c-.838.011-1.752.011-1.854.294-.102.284-.522 1.932-1.08 2.377-.56.444-1.113.465-1.887.353-.774-.112-4.021-.878-5.784-1.9-1.763-1.022-3.285-2.393-4.494-4.673-1.215-2.28-1.3-3.265-3.15-5.235-1.849-1.969-2.741-2.729-3.5-3.827 0 0-.241.375-.338.643 0 0 .183.519.806 1.049.619.53 2.887 2.633 3.65 3.688.764 1.054 1.527 2.697 2.183 4.057.656 1.359 2.392 3.559 4.725 4.747 2.332 1.189 5.719 2.093 8.127 1.858 2.414-.236 2.634-.659 2.887-.873.252-.214.71-1.771.66-2.146-.047-.375-.349-.412-.95-.407v-.005Z" fill="#263238"/><path d="M76.599 153.95c1.854-.707 3.311-.777 3.88-.471 0 0 .42.369.431.776 0 0-1.188-.332-3.779.519 0 0-.64-.225-.537-.824h.005Zm3.059-2.409c-1.156-.268-2.72-.118-4.666.46 0 0-.505-.192-.495-.808 0 0 2.704-1.113 4.849-.45 0 0 .446.391.312.798Zm-.99-2.66c-.887-.584-3.988.059-4.993.61 0 0-.624-.155-.479-.889 0 0 2.72-1.413 5.14-.722 0 0 .601.46.338 1.001h-.006Zm-.795-2.489c-.462-.198-3.215-.76-5.166.278 0 0-.467-.305-.333-.894 0 0 2.397-1.349 5.284-.31 0 0 .285.358.22.926h-.005Z" fill="#FAFAFA"/><path d="M105.255 43.43c4.687.504 7.644 2.12 10.299 7.317.731 1.435 2.161 3.993 5.048 9.127 2.736 4.87 5.45 9.864 5.45 9.864s4.736 3.185 8.165 5.406c3.43 2.227 8.509 5.535 9.966 5.786 1.451.252 5.209.011 5.209.011l-5.623 9.704c-1.671-.696-1.365-1.065-3.994-2.467-2.972-1.58-15.223-6.36-17.357-7.424-4.246-2.115-5.009-3.046-7.418-6.836-4.036-6.353-8.256-13.89-8.256-13.89l-1.489-16.608v.01Z" fill="#FFA8A7"/><path d="M75.126 76.37c2.677-3.404 4.322-9.185 4.193-12.579-.13-3.393-1.672-12.064-.505-14.928 1.166-2.863 8.154-4.758 16.303-5.855 8.149-1.098 11.487 1.172 13.1 4.271 1.618 3.104 3.934 11.465 3.59 16.887-.344 5.422-5.069 7.767-5.069 7.767s-2.849 3.864-4.284 5.802c-1.43 1.938-3.075 8.939-3.075 8.939s-2.177 2.933-10.911 1.894C76.884 87.188 75.126 76.37 75.126 76.37Z" fill="#FFA8A7"/><path d="M95.117 43.008C86.967 44.105 79.98 46 78.813 48.863c-1.166 2.864.371 11.535.505 14.928.044 1.135-.118 2.543-.44 4.036.957 2.516 9.256 8.971 17.416 8.923 6.397-.037 8.455-2.21 8.858-2.67.038-.054.076-.103.113-.15.828-1.125 1.473-1.997 1.473-1.997s5.574-2.559 6.504-8.987c.774-5.38-2.338-11.626-4.117-14.64-1.822-3.082-3.279-4.5-3.865-4.88 0 0-4.757-1.146-10.138-.424l-.005.006Z" fill="#263238"/><path d="M86.796 44.554c1.01.953 2.811 2.96 4.886 6.375 2.021 3.324 5.542 5.139 10.573 4.7 5.472-.476 3.935-3.827 2.753-6.798-1.188-2.976-2.285-4.528-3.382-5.941-1.811-.075-8.455-.112-14.83 1.67v-.006Z" fill="#FFA8A7"/><path d="M102.691 70.985c-2.032 2.2-9.977 3.469-14.45-1.83.7 4.47 10.08 7.852 14.45 1.83Z" fill="#000"/><path d="m73.933 77.772 3.128-4.608s1.032 3.206 3.618 5.941c5.343 5.658 12.272 6.155 15.53 5.433 3.257-.723 4.165-1.6 4.165-1.6l-1.199 4.972s-1.822 1.841-5.58 2.018c-4.767.225-11.245-.605-16.115-6.701-2.354-2.95-3.547-5.455-3.547-5.455Z" fill="#BA68C8"/><path opacity=".4" d="m73.933 77.772 3.128-4.608s1.032 3.206 3.618 5.941c5.343 5.658 12.272 6.155 15.53 5.433 3.257-.723 4.165-1.6 4.165-1.6l-1.199 4.972s-1.822 1.841-5.58 2.018c-4.767.225-11.245-.605-16.115-6.701-2.354-2.95-3.547-5.455-3.547-5.455Z" fill="#000"/><path d="M113.554 24.723c-.312 2.002-.79 3.999-1.747 5.781-.35.653-17.115 6.552-20.147 7.793 0 0-2.053-5.111-3.795-7.852-2.612-4.116-2.72-10.314 2.268-12.503 0 0 1.118-5 6.118-6.407 8.546-2.409 19.034 2.06 17.308 13.188h-.005Z" fill="#263238"/><path d="M97.987 17.171c1.72-1.836 2-5.02.376-7.012a4.887 4.887 0 0 0-3.677-1.772c-.096-1.011-.73-1.926-1.57-2.5-1.359-.93-3.267-1.08-4.858-.786-1.258.236-2.468.862-3.236 1.879-.769 1.017-1.043 2.435-.538 3.602-.924-.075-1.865.492-2.23 1.338-.366.846-.124 1.916.57 2.532a2.884 2.884 0 0 0-1.065 2.505 2.87 2.87 0 0 0 1.548 2.237c-2.806.188-3.827 2.762-3.897 4.207-.097 1.938.898 3.94 2.671 4.737-.715-.824-1.311-1.782-1.553-2.847s-.08-2.248.586-3.115c.666-.862 1.892-1.322 2.919-.948-.586.07-1.006.626-1.178 1.188-.166.563.065 1.531.516 1.911.662.557 1.156.776 2.844.664.43-.027.194.16.607.278.602.177 1.269-.016 1.796-.353.526-.343.951-.819 1.381-1.274a28.534 28.534 0 0 1 4.757-4.041c1.118-.755 2.301-1.445 3.22-2.43h.011Z" fill="#263238"/><path d="M111.957 19.74s2.452 3.083.57 12.413c-1.155 5.727-3.144 8.318-5.214 9.142-1.242.498-4.128.289-5.88-.177 0 0-.076.16-.242.744-.258.905.43 1.028.43 1.028s4.327 8.95-1 8.885c-2.661-.032-6.203-1.466-8.585-3.04-2.983-1.97-3.977-3.206-5.047-4.229 2.129-.551 2.15-1.118 2.677-2.97.946-3.324 1.79-8.655 1.79-8.655s-1.645 1.52-3.457-.434c-2.042-2.205-1.918-5.85.162-7.055 2.537-1.466 4.171.29 4.746 2.067.527 1.621 2.016 1.862 2.672.01.94-2.65 1.15-7.654 3.677-8.152 3.128-.615 6.025 6.236 12.696.423h.005Z" fill="#FFA8A7"/><path d="M111.727 19.328a6.52 6.52 0 0 1 4.391 2.789 6.48 6.48 0 0 1 .882 5.111 6.512 6.512 0 0 0-1.839-4.731 6.58 6.58 0 0 0-4.708-1.949" fill="#263238"/><path d="M91.316 28.62c-.01.428-.247.83-.607 1.06-.22.139-.447.198-.667.214-.145.01-.102.225 0 .889l.065.422a.42.42 0 0 1-.817.193l-.592-2.446c-.177-.733.242-1.52.979-1.692a1.342 1.342 0 0 1 1.644 1.355l-.005.005Z" fill="#FAFAFA"/><path d="M95.81 30.162c-.086.952.946 1.825 2.312 1.948 1.365.128 2.547-.54 2.634-1.494.086-.952-.947-1.825-2.312-1.948-1.365-.128-2.548.54-2.634 1.494Zm14.008 1.011c-.086.953.946 1.825 2.311 1.948 1.366.129 2.548-.54 2.634-1.493.086-.953-.946-1.825-2.311-1.948-1.365-.129-2.548.54-2.634 1.493Z" fill="#F28F8F"/><path d="m101.831 33.962 3.37 1.295c-.344.964-1.376 1.45-2.306 1.092-.93-.358-1.403-1.429-1.059-2.387h-.005Z" fill="#874C4C"/><path d="m102.61 24.777-2.602.846a1.31 1.31 0 0 1 .823-1.713 1.439 1.439 0 0 1 1.779.867Zm6.955.433 2.21 1.612c.473-.595.36-1.44-.248-1.884-.607-.445-1.489-.322-1.962.272Z" fill="#263238"/><path d="m105.69 26.741-.43 6.14 3.682-.68-3.252-5.46Zm-12.82 7.221s-.602 3.217 1.22 5.133c2.155 2.264 5.655 3.11 7.085 3.377-.049-.15-.06-.342.016-.61.161-.578.242-.744.242-.744-1.538-.423-4.629-1.306-6.376-2.82-.935-.809-2.01-2.088-2.187-4.336Z" fill="#F28F8F"/><path d="M108.561 28.09a1.072 1.072 0 0 0 .827 1.237 1.006 1.006 0 0 0 1.215-.787 1.072 1.072 0 0 0-.828-1.237 1.005 1.005 0 0 0-1.214.787Zm-7.655-.53a1.072 1.072 0 0 0 .828 1.237 1.005 1.005 0 0 0 1.214-.787 1.072 1.072 0 0 0-.827-1.237 1.004 1.004 0 0 0-1.215.787Z" fill="#263238"/><path d="M101.755 34.957c.14.006.28.017.42.049a2.55 2.55 0 0 1 1.757 1.413 1.74 1.74 0 0 1-1.042-.065 1.83 1.83 0 0 1-1.135-1.397Z" fill="#F28F8F"/><path d="m126.235 118.628-3.306-.439-3.054 1.756 7.999 36.836a160.868 160.868 0 0 1 4.134 4.234l3.053-1.756-8.826-40.631Z" fill="#263238"/><path d="m123.181 120.384 3.054-1.756-3.306-.439-3.054 1.756 3.306.439Z" fill="#455A64"/><path d="m119.875 119.945 7.999 36.836a159.335 159.335 0 0 1 4.134 4.234l-8.827-40.631-3.306-.439Z" fill="#37474F"/><path d="m125.353 118.842-3.876-17.759-2.612-.343-2.123 1.22 3.886 17.755 2.602.348 2.123-1.221Z" fill="#263238"/><path d="m116.742 101.96 3.886 17.755 2.602.348-3.876-17.76-2.612-.343Z" fill="#37474F"/><path d="M95.186 113.313c-.09 0-.182-.005-.279-.021-1.903-.327-2.37-1.392-2.478-1.997-.108-.605-.043-1.766 1.629-2.73l31.827-18.305c1.58-.91 4.123-1.36 5.924-1.055l11.068 1.895c.338.059.623.006.881-.444l7.278-12.563a1.628 1.628 0 0 1 2.215-.594 1.613 1.613 0 0 1 .597 2.206l-7.279 12.562c-.903 1.563-2.494 2.312-4.241 2.013l-11.068-1.895c-1.042-.182-2.832.139-3.752.669l-30.95 17.802c.198.321.29.718.22 1.124a1.617 1.617 0 0 1-1.597 1.339l.005-.006Z" fill="#37474F"/><path d="m130.282 80.588-12.734 7.322-6.364 18.295 2.123 1.22 12.729-7.317 6.364-18.3-2.118-1.22Z" fill="#455A64"/><path d="m113.307 107.425 6.364-18.295 12.729-7.322-6.365 18.3-12.728 7.317Z" fill="#263238"/><path d="m117.548 87.91 2.123 1.22-6.364 18.295-2.123-1.22 6.364-18.295Z" fill="#37474F"/><path d="M106.727 115.251a4.54 4.54 0 0 1-.747-.064l-11.068-1.895a1.614 1.614 0 1 1 .548-3.18l11.068 1.895c.339.059.624.005.887-.444L114.688 99a1.628 1.628 0 0 1 2.215-.594 1.612 1.612 0 0 1 .596 2.206l-7.278 12.562c-.774 1.333-2.042 2.077-3.494 2.077Z" fill="#37474F"/><path d="M98.852 105.643c1.586 1.782 3.537 3.886 5.295 5.374.952.803 4.44 1.686 5.451 1.691 1.091 0 2.768-1.14 4.198-2.366 1.043-.251 1.516-1.033 1.817-1.718.682-.053 1.016-.235 1.155-.38 1.108-1.102.581-2.944-.306-5.855 0 0-.946 1.637-1.231 2.125-.247.422-1.355.492-2.075-.006-.742-.514-.967-1.199-.967-1.199l1.537-2.649c-1.758-.3-2.134-.675-3.661-.84-1.677-.188-3.096.139-4.434-.675-1.339-.814-3.043-2.831-5.263-5.213-5.225-5.62-10.003-11.83-10.003-11.83l-4.016-20.275s-.21-12.996-4.225-15.688c-2.757.61-8.627 2.922-9.45 8.36-.71 4.7 1.2 8.35 1.667 10.524.462 2.173 1.93 8.532 3.51 16.609.887 4.538 1.462 6.562 6.144 10.597 4.349 3.747 13.266 11.637 14.852 13.419l.005-.005Z" fill="#FFA8A7"/><path d="M100.373 93.92c-1.817-1.83-3.607-3.794-5.327-5.71-1.736-1.906-3.203-3.982-4.864-5.958l-.038-.048-.01-.064a324.67 324.67 0 0 1-1.006-5.069l-.978-5.074c-.618-3.388-1.242-6.776-1.79-10.18.79 3.355 1.505 6.722 2.225 10.094l1.032 5.064a310.9 310.9 0 0 1 1.005 5.069l-.053-.107c1.629 1.99 3.198 4.137 4.848 6.107l4.962 5.877h-.006Zm11.725 16.262-1.796-.236-.01.038c.575.182 1.161.348 1.746.498l1.242.289.484-.402a17.432 17.432 0 0 1-1.666-.187Zm-.205 1.429c-.306.037-.924.005-1.451-.075l-1.774-.278-.011.037a32.56 32.56 0 0 0 1.747.498l1.065.246c.279-.16.564-.348.849-.551-.075.043-.199.091-.43.123h.005Zm3.72-2.992h.006a17.44 17.44 0 0 1-1.742-.193l-1.795-.235-.011.037a32.56 32.56 0 0 0 1.747.498l1.559.364c.091-.155.166-.316.236-.466v-.005Zm-6.246-7.231c.844.139 2.564 1.429 2.827 1.916l.371-.61s-1.548-1.467-3.193-1.312l-.005.006Zm43.379-19.783c.462.626 2.23 2.681 2.306 3.768.075 1.087-1.156 1.777-1.156 1.777s.511 2.018-1.156 2.639c0 0 .183 1.28-1.505 1.729-.408 1.188-.704 1.166-2.172 1.247-1.467.08-1.806.182-2.494-.503-.688-.686-1.247-2.034-1.198-3.04.048-1.007.897-1.927 1.36-1.317-.242-1.96.134-4.529 3.268-4.876.634-.07.957 1.654.957 1.654l1.784-3.084.006.006Z" fill="#F28F8F"/><path d="M142.097 80.026c1.532.738 3.537.54 5.51.562 1.973.021 2.698.626 3.171 2.114.468 1.488-.774 3.865-.774 5.208 0 1.344-1.87.878-2.392-.562-.521-1.44-.516-2.44-.516-2.44l-4.993-4.882h-.006Z" fill="#FFA8A7"/><path d="M142.984 42.387c.785 1.927.742 7.413-2.182 10.041l2.704 1.558s1.886-1.028 2.725-2.19c2.843-3.944 3.634-8.077 2.446-12.664l-5.693 3.255Z" fill="#E0E0E0"/><path d="m162.002 1.943-29.414 16.909c-.317.182-.575.626-.575.99v33.812c0 .364.258.514.575.332l13.777-7.922c.049 2.029-.86 6.123-2.859 7.916 4.655-1.568 6.961-6.733 7.649-10.673l10.847-6.235c.317-.182.575-.627.575-.99V2.268c0-.363-.258-.513-.575-.331v.005Z" fill="#FAFAFA"/><path d="M162.04 2.537v33.544c0 .177-.156.445-.307.53l-10.847 6.236-.22.123-.043.246c-.586 3.356-2.28 7.264-5.343 9.298 1.182-2.179 1.655-5.026 1.623-6.466l-.022-.905-.784.45-13.546 7.782V19.842c0-.177.156-.44.306-.53L162.04 2.537Zm.22-.674a.533.533 0 0 0-.258.08l-29.414 16.909c-.317.182-.575.626-.575.99v33.812c0 .257.129.407.317.407a.527.527 0 0 0 .258-.08l13.777-7.922c.049 2.028-.86 6.123-2.859 7.916 4.655-1.568 6.961-6.734 7.649-10.673l10.847-6.236c.317-.182.575-.626.575-.99V2.27c0-.256-.129-.406-.317-.406Z" fill="#BA68C8"/><g opacity=".5"><path d="M162.04 2.537v33.544c0 .177-.156.445-.307.53l-10.847 6.236-.22.123-.043.246c-.586 3.356-2.28 7.264-5.343 9.298 1.182-2.179 1.655-5.026 1.623-6.466l-.022-.905-.784.45-13.546 7.782V19.843c0-.177.156-.439.306-.53L162.04 2.537Zm.22-.674a.533.533 0 0 0-.258.08l-29.414 16.909c-.317.182-.575.626-.575.99v33.812c0 .257.129.407.317.407a.526.526 0 0 0 .258-.08l13.777-7.922c.049 2.028-.86 6.123-2.859 7.916 4.655-1.568 6.961-6.733 7.649-10.673l10.847-6.236c.317-.182.575-.626.575-.99V2.27c0-.257-.129-.407-.317-.407Z" fill="#BA68C8"/><path d="m142.361 54.655.968-.867c1.73-1.553 2.682-5.085 2.762-7.253l-13.368 7.686c-.489.284-.978-.016-.978-.562V19.842c0-.46.311-.996.709-1.226l29.414-16.909c.489-.278.978.017.978.563v33.812c0 .46-.311.995-.709 1.225l-10.74 6.177c-.763 4.207-3.204 9.206-7.805 10.759l-1.231.417v-.005Zm2.682-8.136-12.621 7.258.032-.016 12.589-7.237v-.005Zm17.126-44.362-.032.016-29.414 16.909c-.237.134-.441.492-.441.76 0-.268.204-.626.441-.76l29.446-16.93v.005ZM144.936 52.6a7.86 7.86 0 0 1-.452.696c.032-.016.065-.032.102-.053l.35-.643Zm16.835-49.596-28.779 16.544c-.07.038-.172.22-.172.295v33.084l14.32-8.232.032 1.354c.027 1.135-.28 3.479-1.167 5.588 2.145-1.847 3.742-4.924 4.36-8.457l.064-.37 11.176-6.422c.07-.038.172-.22.172-.3V3.003h-.006Zm-12.858 45.855c-.865 1.51-1.94 2.767-3.16 3.661 1.301-.953 2.349-2.237 3.16-3.661Zm-2.295-3.244.011.45v.128-.128l-.011-.45Zm4.29-2.467 4.252-2.441-4.252 2.44Z" fill="#fff"/></g><path d="M132.588 53.991c-.306.177-.876.198-1.166.021l-2.053-1.166c-.318-.177-.581-.621-.581-.985V18.043c0-.192.07-.401.183-.583l3.204 1.825c-.108.177-.172.38-.172.562V53.66c0 .337.236.53.575.332h.01Z" fill="#E0E0E0"/><path d="M162.572 2.168c-.043-.29-.28-.391-.57-.23l-29.414 16.908a1.162 1.162 0 0 0-.408.428l-3.209-1.825c.102-.171.242-.32.397-.407L158.782.14c.318-.182.834-.187 1.156 0l2.059 1.151c.29.166.532.54.57.883l.005-.005Z" fill="#F0F0F0"/><path d="M138.641 29.39c-.064.038-.118.033-.161-.01-.048-.043-.07-.112-.07-.209v-1.6l-2.672 1.536c-.064.038-.118.032-.161-.01-.048-.043-.07-.113-.07-.215v-.936c0-.123.022-.241.054-.354.038-.112.081-.24.134-.374l2.634-6.563c.113-.283.232-.465.355-.535l.656-.375c.064-.037.118-.032.167.011.043.043.069.113.069.214v5.283l.742-.428c.065-.037.119-.032.162.01.043.044.069.113.069.21v.936a.639.639 0 0 1-.069.29.453.453 0 0 1-.162.197l-.742.428v1.6a.638.638 0 0 1-.069.29c-.049.096-.103.166-.167.198l-.699.401v.006Zm-.231-3.473v-2.826l-1.473 3.672 1.473-.846Zm3.263-7.157a.64.64 0 0 1 .07-.288.446.446 0 0 1 .161-.199l3.242-1.862c.064-.038.118-.032.161.01.048.043.07.113.07.21v.936a.64.64 0 0 1-.07.289.452.452 0 0 1-.161.198l-2.419 1.392-.097 1.745a2.52 2.52 0 0 1 .462-.44 3.51 3.51 0 0 1 .376-.24c.323-.187.619-.29.898-.316.274-.027.516.032.715.177.199.144.36.374.473.685.113.31.172.717.172 1.21 0 .561-.059 1.08-.177 1.546-.119.471-.28.894-.484 1.269a4.245 4.245 0 0 1-1.597 1.665c-.397.23-.736.353-1.021.374-.285.022-.521-.032-.704-.166-.188-.133-.328-.331-.425-.588a2.82 2.82 0 0 1-.161-.894.572.572 0 0 1 .065-.295.484.484 0 0 1 .166-.198l.699-.401c.059-.032.107-.032.156 0 .048.032.075.09.097.177a.876.876 0 0 0 .161.4c.07.087.161.135.258.156a.606.606 0 0 0 .328-.037c.118-.043.247-.102.381-.177.328-.187.592-.476.791-.867.199-.39.301-.819.301-1.295 0-.396-.102-.67-.301-.82-.205-.15-.468-.133-.791.049a2.295 2.295 0 0 0-.408.294 2.16 2.16 0 0 0-.247.279c-.065.09-.119.166-.172.235a.575.575 0 0 1-.199.171l-.79.455c-.065.038-.119.032-.162-.01-.048-.043-.07-.113-.07-.21l.258-4.624-.005.006Zm5.977-1.182c.065-.038.118-.032.161.01.049.043.07.113.07.21v1.295a.627.627 0 0 1-.07.288.415.415 0 0 1-.161.199l-.801.46c-.064.037-.118.032-.161-.01-.048-.044-.07-.113-.07-.21v-1.295a.64.64 0 0 1 .07-.289.446.446 0 0 1 .161-.198l.801-.46Zm0 4.624c.065-.037.118-.032.161.011.049.043.07.112.07.214v1.295a.628.628 0 0 1-.07.29.415.415 0 0 1-.161.197l-.801.46c-.064.038-.118.033-.161-.01-.048-.043-.07-.112-.07-.209v-1.295a.64.64 0 0 1 .07-.289.445.445 0 0 1 .161-.198l.801-.46v-.006Zm5.903-7.182c.005.165.01.347.01.55v1.242c0 .204 0 .391-.01.562-.017.52-.065 1.023-.151 1.51a6.25 6.25 0 0 1-.398 1.365 4.9 4.9 0 0 1-.704 1.161 3.9 3.9 0 0 1-1.064.883c-.425.247-.78.359-1.07.343a.956.956 0 0 1-.704-.348c-.183-.22-.312-.52-.398-.91a7.347 7.347 0 0 1-.15-1.333 34.13 34.13 0 0 1-.017-1.135c0-.428.006-.813.017-1.15.016-.52.069-1.028.15-1.52.081-.493.215-.953.398-1.387a4.84 4.84 0 0 1 .704-1.177 3.815 3.815 0 0 1 1.07-.9c.419-.24.774-.353 1.064-.342.29.016.527.128.704.348.183.22.312.519.398.91.081.39.134.835.151 1.333v-.006Zm-3.473 4.28c.027.616.129 1.055.296 1.3.166.253.457.263.854.028.404-.23.688-.568.86-1.017.172-.445.269-.99.296-1.644.011-.342.016-.711.016-1.118 0-.407-.005-.771-.016-1.098-.027-.615-.129-1.049-.296-1.3-.166-.252-.456-.262-.86-.027a1.88 1.88 0 0 0-.854 1.017c-.172.444-.269.996-.296 1.643-.011.343-.016.712-.016 1.119 0 .407.005.77.016 1.097Zm4.343-2.113c0-.514.065-.98.183-1.397.113-.417.247-.835.398-1.247l1.634-4.48c.021-.064.054-.14.091-.225a.39.39 0 0 1 .178-.193l.774-.444c.064-.037.118-.032.161.01.043.044.07.113.07.21 0 .042 0 .08-.011.112a1.488 1.488 0 0 1-.032.086l-1.07 2.965c.339-.188.651-.284.936-.29.284 0 .526.076.731.242.204.166.36.412.473.744.113.332.166.738.166 1.21 0 .47-.059.957-.172 1.428a5.73 5.73 0 0 1-.484 1.306 4.89 4.89 0 0 1-.741 1.092 3.925 3.925 0 0 1-.946.782c-.344.198-.662.3-.946.305a1.112 1.112 0 0 1-.742-.24c-.205-.167-.366-.418-.484-.756-.113-.331-.172-.744-.172-1.23l.005.01Zm3.516-2.023c0-.45-.102-.766-.307-.953-.204-.187-.494-.171-.865.043a2.11 2.11 0 0 0-.865.953 2.955 2.955 0 0 0-.307 1.306c0 .45.102.77.307.968.204.198.494.188.865-.026s.661-.536.865-.97a3.01 3.01 0 0 0 .307-1.316v-.005Z" fill="#455A64"/><path d="m145.715 30.857-.011-.01c-.516-.46-1.462-.413-2.295 0-1.134.572-2.075 1.809-2.779 3.902-.704-1.285-1.64-1.322-2.779-.59-.833.541-1.398 1.237-1.914 2.297l-.011.021c-.44.91-.714 1.933-.714 2.886-.011 2.215.913 3.275 2.096 4.068a7.341 7.341 0 0 0 2.338 1.016l1.167.273 1.166-1.616a37.456 37.456 0 0 0 2.338-3.71c1.188-2.156 2.107-4.27 2.097-6.481 0-.948-.274-1.654-.721-2.061l.022.005Z" fill="#BA68C8"/><path d="m145.591 36.82-2.279 1.312-.839-3.062a.223.223 0 0 0-.215-.16.212.212 0 0 0-.204.17l-1.317 5.99-1.107-3.019a.21.21 0 0 0-.21-.139.212.212 0 0 0-.199.155l-.747 2.65-2.505 1.44c.086.123.172.235.269.342l2.532-1.456a.223.223 0 0 0 .102-.128l.591-2.093 1.134 3.088a.208.208 0 0 0 .215.14.216.216 0 0 0 .199-.172l1.29-5.855.683 2.483a.217.217 0 0 0 .129.145.21.21 0 0 0 .188-.011l2.021-1.162c.097-.219.199-.439.285-.663l-.016.005Z" fill="#fff"/><path d="m149.897 27.362 7.568-4.351c.323-.188.581-.054.581.294s-.258.776-.581.963l-7.568 4.352c-.323.187-.581.053-.581-.294 0-.348.258-.777.581-.964Zm-1.581 3.463a.135.135 0 0 1-.118-.064.132.132 0 0 1 .049-.182l10.917-6.279a.133.133 0 1 1 .134.23l-10.917 6.28s-.043.015-.065.015Zm0 1.258a.148.148 0 0 1-.118-.064.132.132 0 0 1 .049-.182l10.917-6.279a.133.133 0 1 1 .134.23l-10.917 6.28s-.043.015-.065.015Z" fill="#E0E0E0"/><path d="M148.542 41.14a.258.258 0 0 1-.129-.032c-.091-.054-.14-.156-.14-.295v-7.188c0-.257.178-.562.398-.69l10.165-5.846c.118-.07.237-.08.328-.027.091.054.14.156.14.295v7.188a.87.87 0 0 1-.404.69l-10.164 5.846a.424.424 0 0 1-.199.059h.005Zm10.493-13.976a.262.262 0 0 0-.129.043l-10.165 5.845a.738.738 0 0 0-.333.573v7.188c0 .086.027.15.075.177.048.026.118.016.194-.027l10.164-5.845a.74.74 0 0 0 .334-.573v-7.188c0-.086-.027-.15-.076-.177a.113.113 0 0 0-.064-.016Z" fill="#000" opacity=".15"/><path opacity=".3" d="m158.626 31.912-.564-.546c-.21-.198-.527-.096-.79.251l-.016.022c-.28.375-.619.46-.823.214l-.242-.29c-.247-.299-.677-.1-.967.44l-.21.39c-.21.397-.505.621-.752.573-.285-.053-.635.262-.839.76l-.323.793c-.182.444-.483.749-.757.765l-.291.01c-.161.006-.338.118-.5.316l-.311.38c-.301.375-.656.418-.839.113l-.016-.022c-.274-.45-.855-.117-1.134.643l-.344.953v1.867l9.708-5.582v-2.05h.01Z" fill="#BA68C8"/><path d="M148.918 37.714h-.01c-.022-.005-.027-.027-.022-.048l.344-.953c.178-.492.5-.84.801-.873.161-.016.301.065.398.22l.016.021c.07.113.161.177.274.188.161.01.344-.097.505-.3l.312-.38c.167-.203.35-.321.527-.326l.29-.011c.258-.01.549-.31.726-.739l.323-.792c.209-.514.569-.84.876-.781.231.042.51-.177.709-.557l.21-.39c.188-.349.441-.574.677-.6a.383.383 0 0 1 .35.15l.241.288c.07.086.156.124.253.124h.005c.162 0 .35-.129.506-.338l.016-.021c.167-.22.36-.353.543-.364.113-.01.22.027.301.112l.564.546s.016.038 0 .054-.037.016-.054 0l-.564-.546a.305.305 0 0 0-.247-.091c-.161.01-.333.134-.489.337l-.016.022c-.178.23-.377.363-.565.369a.392.392 0 0 1-.317-.15l-.242-.289a.317.317 0 0 0-.285-.123c-.215.021-.446.23-.623.556l-.21.391c-.215.407-.527.643-.79.594-.264-.048-.602.263-.796.734l-.322.792c-.188.465-.5.77-.79.787l-.291.01c-.15.006-.317.113-.467.3l-.312.38c-.183.225-.387.343-.57.327a.418.418 0 0 1-.328-.22l-.016-.021c-.081-.134-.193-.198-.328-.188-.274.027-.57.36-.742.825l-.344.953s-.021.026-.032.026l.005-.005Z" fill="#455A64"/><path d="M157.712 34.535s-.037-.016-.037-.038v-.22s.016-.037.037-.037c.022 0 .038.016.038.038v.22s-.016.037-.038.037Zm0-.44s-.037-.015-.037-.037v-.22s.016-.037.037-.037c.022 0 .038.016.038.038v.22s-.016.037-.038.037Zm0-.438s-.037-.016-.037-.038v-.22s.016-.037.037-.037c.022 0 .038.016.038.038v.22s-.016.037-.038.037Zm0-.44s-.037-.015-.037-.037v-.22s.016-.037.037-.037c.022 0 .038.017.038.038v.22s-.016.037-.038.037Zm0-.438s-.037-.016-.037-.038v-.219s.016-.038.037-.038c.022 0 .038.017.038.038v.22s-.016.037-.038.037Zm0-.439s-.037-.016-.037-.038v-.219s.016-.037.037-.037c.022 0 .038.016.038.037v.22s-.016.037-.038.037Zm0-.439s-.037-.016-.037-.037v-.22s.016-.037.037-.037c.022 0 .038.016.038.037v.22s-.016.037-.038.037Zm0-.439s-.037-.016-.037-.037v-.134s.016-.038.037-.038c.022 0 .038.017.038.038v.134s-.016.037-.038.037Zm-3.94 5.337s-.037-.016-.037-.038v-.22s.016-.037.037-.037c.022 0 .038.016.038.038v.22s-.016.037-.038.037Zm0-.44s-.037-.015-.037-.037v-.22s.016-.037.037-.037c.022 0 .038.016.038.038v.22s-.016.037-.038.037Zm0-.438s-.037-.016-.037-.038v-.22s.016-.037.037-.037c.022 0 .038.017.038.038v.22s-.016.037-.038.037Zm0-.44s-.037-.015-.037-.037v-.219s.016-.038.037-.038c.022 0 .038.017.038.038v.22s-.016.037-.038.037Zm0-.438s-.037-.016-.037-.038v-.219s.016-.037.037-.037c.022 0 .038.016.038.037v.22s-.016.037-.038.037Zm0-.439s-.037-.016-.037-.037v-.22s.016-.037.037-.037c.022 0 .038.016.038.037v.22s-.016.037-.038.037Zm0-.439s-.037-.016-.037-.037v-.22s.016-.037.037-.037c.022 0 .038.016.038.037v.22s-.016.037-.038.037Zm0-.439s-.037-.016-.037-.037v-.22s.016-.037.037-.037c.022 0 .038.016.038.037v.22s-.016.037-.038.037Zm0-.439s-.037-.016-.037-.037v-.059s.016-.037.037-.037c.022 0 .038.016.038.037v.059s-.016.037-.038.037Zm-1.972 4.646s-.038-.016-.038-.037v-.22s.016-.037.038-.037c.021 0 .037.016.037.037v.22s-.016.037-.037.037Zm0-.438s-.038-.017-.038-.038v-.22s.016-.037.038-.037c.021 0 .037.016.037.038v.219s-.016.038-.037.038Zm0-.44s-.038-.016-.038-.037v-.22s.016-.037.038-.037c.021 0 .037.016.037.038v.22s-.016.037-.037.037Zm0-.438s-.038-.016-.038-.038v-.22s.016-.037.038-.037c.021 0 .037.016.037.038v.22s-.016.037-.037.037Zm0-.44s-.038-.015-.038-.037v-.22s.016-.037.038-.037c.021 0 .037.016.037.038v.22s-.016.037-.037.037Zm0-.438s-.038-.016-.038-.038v-.22s.016-.037.038-.037c.021 0 .037.017.037.038v.22s-.016.037-.037.037Zm-1.968 3.329s-.038-.016-.038-.037v-.22s.017-.037.038-.037c.022 0 .038.016.038.037v.22s-.016.037-.038.037Zm0-.439s-.038-.016-.038-.037v-.22s.017-.037.038-.037c.022 0 .038.016.038.037v.22s-.016.037-.038.037Zm0-.439s-.038-.016-.038-.037v-.22s.017-.037.038-.037c.022 0 .038.016.038.037v.22s-.016.037-.038.037Zm0-.439s-.038-.016-.038-.037v-.22s.017-.037.038-.037c.022 0 .038.016.038.038v.219s-.016.037-.038.037Zm0-.438s-.038-.017-.038-.038v-.22s.017-.037.038-.037c.022 0 .038.016.038.038v.22s-.016.036-.038.036Zm0-.44s-.038-.015-.038-.037v-.22s.017-.037.038-.037c.022 0 .038.016.038.038v.22s-.016.037-.038.037Zm0-.438s-.038-.016-.038-.038v-.22s.017-.037.038-.037c.022 0 .038.016.038.038v.22s-.016.037-.038.037Zm0-.445s-.038-.016-.038-.037c0 0 .017-.043.038-.043.022 0 .038.016.038.038a.037.037 0 0 1-.038.037v.005Zm5.913-.32s-.037-.017-.037-.038v-.22s.016-.037.037-.037c.022 0 .038.016.038.037v.22s-.016.037-.038.037Zm0-.44s-.037-.016-.037-.037v-.22s.016-.037.037-.037c.022 0 .038.016.038.037v.22s-.016.037-.038.037Zm0-.439s-.037-.016-.037-.037v-.22s.016-.037.037-.037c.022 0 .038.016.038.038v.219s-.016.037-.038.037Zm0-.438s-.037-.017-.037-.038v-.22s.016-.037.037-.037c.022 0 .038.016.038.038v.22s-.016.036-.038.036Zm0-.44s-.037-.015-.037-.037v-.22s.016-.037.037-.037c.022 0 .038.016.038.038v.22s-.016.037-.038.037Zm0-.438s-.037-.016-.037-.038v-.22s.016-.037.037-.037c.022 0 .038.016.038.038v.22s-.016.037-.038.037Zm0-.44s-.037-.015-.037-.037v-.22s.016-.037.037-.037c.022 0 .038.017.038.038v.22s-.016.037-.038.037Zm0-.438s-.037-.016-.037-.038v-.219s.016-.038.037-.038c.022 0 .038.017.038.038v.22s-.016.037-.038.037Zm0-.439s-.037-.016-.037-.038v-.219s.016-.037.037-.037c.022 0 .038.016.038.037v.22s-.016.037-.038.037Zm0-.439s-.037-.016-.037-.037v-.214s.016-.038.037-.038c.022 0 .038.016.038.038v.214s-.016.037-.038.037Z" fill="#BA68C8"/><path d="M157.804 31.232c0-.075-.038-.112-.092-.086-.048.027-.091.113-.091.188s.038.112.091.085c.054-.026.092-.112.092-.187Zm-1.973.171c0-.075-.037-.112-.091-.085-.049.026-.092.112-.092.187s.038.112.092.086c.048-.027.091-.113.091-.188Zm-1.967 1.729c0-.075-.038-.112-.091-.085-.049.026-.092.112-.092.187s.038.112.092.085c.048-.026.091-.112.091-.187Zm-1.973 2.2c0-.075-.037-.112-.091-.086-.049.027-.092.113-.092.188s.038.112.092.085c.048-.026.091-.112.091-.187Zm-1.973.562c0-.075-.038-.112-.091-.086-.049.027-.092.113-.092.188s.038.112.092.085c.048-.026.091-.112.091-.187Z" fill="#E0E0E0"/></g></svg>