<?xml version="1.0" encoding="UTF-8"?><svg id="_이어_2" xmlns="http://www.w3.org/2000/svg" viewBox="0 0 471.3 443.94"><g id="Floor"><ellipse id="Floor-2" cx="235.65" cy="310.18" rx="235.65" ry="133.75" fill="#f5f5f5"/></g><g id="Shadows"><ellipse id="Shadow" cx="386.45" cy="332.01" rx="61.46" ry="35.48" fill="#e0e0e0"/><polygon id="Shadow-2" points="16.02 290.87 250.48 426.23 359.68 363.19 125.22 227.82 16.02 290.87" fill="#e0e0e0"/><path id="Shadow-3" d="M288.9,266.15l-3.58-2.06c-2.43-1.4-2.42-3.67,0-5.07l7.97-4.6-28.83-16.65-7.97,4.6c-2.42,1.4-6.36,1.4-8.78,0l-3.58-2.06c-2.42-1.4-2.43-3.67,0-5.07l24.17-13.95c2.42-1.4,6.36-1.4,8.78,0l3.58,2.06c2.43,1.4,2.43,3.67,0,5.07l-8.8,5.08,28.83,16.65,8.8-5.08c2.42-1.4,6.36-1.4,8.78,0l3.58,2.06c2.42,1.4,2.42,3.67,0,5.07l-24.17,13.95c-2.43,1.4-6.36,1.4-8.78,0Z" fill="#e0e0e0"/><path id="Shadow-4" d="M195.72,225.67c6.4,3.69,6.4,9.68,0,13.37-6.4,3.69-16.77,3.69-23.16,0s-6.4-9.68,0-13.37c6.4-3.69,16.77-3.69,23.16,0Z" fill="#e0e0e0"/></g><g id="Mat"><g id="Mat-2"><polygon points="16.02 284.98 250.48 420.34 359.68 357.29 125.22 221.93 16.02 284.98" fill="#27debf"/><polygon points="16.02 284.98 250.48 420.34 359.68 357.29 125.22 221.93 16.02 284.98" fill="#fff" opacity=".7"/><path d="M262.22,370.85c5.13,2.86,8.94,7.69,14.69,9.32,5.81,1.64,12.18,1.34,17.77-.97,2.44-1.01,4.86-2.5,6.04-4.86,1.18-2.36,.63-5.73-1.72-6.93-.6-.3-1.28-.46-1.81-.87-.53-.41-.86-1.22-.45-1.75,.51-.66,1.55-.34,2.31,0,6.93,3.15,15.44,2.57,21.87-1.5,1.86-1.18,3.67-2.82,4.02-5,.32-2.01-.72-4.05-2.22-5.42-3.04-2.79-7.36-3.56-11.2-4.62-4.33-1.19-8.66-2.38-12.99-3.58-6.86-1.89-13.43-5.66-19.95-8.59-9.79-4.41-19.83-8.98-27.33-16.66-5.07-5.19-8.99-11.79-15.36-15.28-8.64-4.73-19.37-3.02-28.68-5.45-9.8-2.56-19.49-5.22-29.07-8.78-20.03-7.43-39.31-16.9-57.41-28.25,4.85-9.53,8.23-19.81,10-30.36-6.37-2.23-12.54,3.28-18.82,5.74-4.92,1.93-9.84,1.85-14.75,1.1l-20.86,12.05c.86,3.07,2.25,6.04,3.21,9.1,1.45,4.65,1.61,10.41-2.02,13.66-2.09,1.87-4.98,2.48-7.73,3.03-3.84,.76-7.67,1.52-11.51,2.27-3.28,.65-7.06,1.68-8.34,4.77-1.56,3.78,1.76,7.81,5.25,9.95,6.49,3.98,14.24,5.27,21.39,7.88,16.78,6.12,29.92,19.33,45.55,27.98,10.82,5.99,22.87,9.76,35.18,11.01,12.75,1.29,25.75-.08,38.32,2.37,9.88,1.93,19.94,4.62,29.63,7.54,4.05,1.22,8.03,2.7,11.79,4.66,3.38,1.77,6.49,2.96,8.95,6.08,1.78,2.26,3.37,4.78,5.81,6.31,2.43,1.53,5.4,1.87,8.07,2.9,.83,.32,1.63,.7,2.4,1.13Z" fill="#27debf" opacity=".1"/><path d="M262.22,370.85c5.13,2.86,8.94,7.69,14.69,9.32,5.81,1.64,12.18,1.34,17.77-.97,2.44-1.01,4.86-2.5,6.04-4.86,1.18-2.36,.63-5.73-1.72-6.93-.6-.3-1.28-.46-1.81-.87-.53-.41-.86-1.22-.45-1.75,.51-.66,1.55-.34,2.31,0,6.93,3.15,15.44,2.57,21.87-1.5,1.86-1.18,3.67-2.82,4.02-5,.32-2.01-.72-4.05-2.22-5.42-3.04-2.79-7.36-3.56-11.2-4.62-4.33-1.19-8.66-2.38-12.99-3.58-6.86-1.89-13.43-5.66-19.95-8.59-9.79-4.41-19.83-8.98-27.33-16.66-5.07-5.19-8.99-11.79-15.36-15.28-8.64-4.73-19.37-3.02-28.68-5.45-9.8-2.56-19.49-5.22-29.07-8.78-20.03-7.43-39.31-16.9-57.41-28.25,4.85-9.53,8.23-19.81,10-30.36-6.37-2.23-12.54,3.28-18.82,5.74-4.92,1.93-9.84,1.85-14.75,1.1l-20.86,12.05c.86,3.07,2.25,6.04,3.21,9.1,1.45,4.65,1.61,10.41-2.02,13.66-2.09,1.87-4.98,2.48-7.73,3.03-3.84,.76-7.67,1.52-11.51,2.27-3.28,.65-7.06,1.68-8.34,4.77-1.56,3.78,1.76,7.81,5.25,9.95,6.49,3.98,14.24,5.27,21.39,7.88,16.78,6.12,29.92,19.33,45.55,27.98,10.82,5.99,22.87,9.76,35.18,11.01,12.75,1.29,25.75-.08,38.32,2.37,9.88,1.93,19.94,4.62,29.63,7.54,4.05,1.22,8.03,2.7,11.79,4.66,3.38,1.77,6.49,2.96,8.95,6.08,1.78,2.26,3.37,4.78,5.81,6.31,2.43,1.53,5.4,1.87,8.07,2.9,.83,.32,1.63,.7,2.4,1.13Z" opacity=".05"/><polygon points="16.02 284.98 16.02 287.1 250.48 422.47 250.48 420.34 16.02 284.98" fill="#27debf"/><polygon points="16.02 284.98 16.02 287.1 250.48 422.47 250.48 420.34 16.02 284.98" fill="#fff" opacity=".5"/><polygon points="250.48 420.34 359.68 357.29 359.68 359.42 250.48 422.47 250.48 420.34" fill="#27debf"/><polygon points="250.48 420.34 359.68 357.29 359.68 359.42 250.48 422.47 250.48 420.34" fill="#fff" opacity=".4"/></g></g><g id="Water_Bottle"><g id="Water"><g><path d="M195.67,212.15c-.37-1.65-1.22-3.41-1.92-4.95-.08-.18-.17-.36-.26-.54-1.53-3.02-1.52-6.6,.14-9.56,.06-.1,.11-.2,.17-.3,1.03-1.88,1.48-3.49,1.48-5.63,0-1.63-1.06-4.07-3.21-5.32-.47-.28-.97-.52-1.49-.72-.97-.39-1.62-1.31-1.62-2.36v-2.91l-9.31-.04v2.91c-.02,1.05-.67,1.96-1.65,2.35-.53,.2-1.03,.44-1.5,.71-2.16,1.23-3.25,3.66-3.25,5.29-.01,2.14,.42,3.75,1.44,5.64,.05,.09,.1,.19,.16,.29,1.64,2.97,1.63,6.56,.08,9.58-.09,.18-.18,.36-.26,.54-.71,1.53-1.58,3.29-1.95,4.93-.36,1.6-.45,3.31-.46,5.02l-.05,13.57c0,1.76,1.15,3.52,3.46,4.87,1.89,1.1,4.28,1.76,6.74,1.97,1.12,.1,2.25,.1,3.37,.01,2.46-.2,4.82-.84,6.71-1.92,2.33-1.33,3.5-3.08,3.5-4.84l.04-9.81c0-1.22,.05-2.5,.06-3.78,0-1.7-.06-3.41-.41-5Z" fill="#27debf"/><path d="M195.67,212.15c-.37-1.65-1.22-3.41-1.92-4.95-.08-.18-.17-.36-.26-.54-1.53-3.02-1.52-6.6,.14-9.56,.06-.1,.11-.2,.17-.3,1.03-1.88,1.48-3.49,1.48-5.63,0-1.63-1.06-4.07-3.21-5.32-.47-.28-.97-.52-1.49-.72-.97-.39-1.62-1.31-1.62-2.36v-2.91l-9.31-.04v2.91c-.02,1.05-.67,1.96-1.65,2.35-.53,.2-1.03,.44-1.5,.71-2.16,1.23-3.25,3.66-3.25,5.29-.01,2.14,.42,3.75,1.44,5.64,.05,.09,.1,.19,.16,.29,1.64,2.97,1.63,6.56,.08,9.58-.09,.18-.18,.36-.26,.54-.71,1.53-1.58,3.29-1.95,4.93-.36,1.6-.45,3.31-.46,5.02l-.05,13.57c0,1.76,1.15,3.52,3.46,4.87,1.89,1.1,4.28,1.76,6.74,1.97,1.12,.1,2.25,.1,3.37,.01,2.46-.2,4.82-.84,6.71-1.92,2.33-1.33,3.5-3.08,3.5-4.84l.04-9.81c0-1.22,.05-2.5,.06-3.78,0-1.7-.06-3.41-.41-5Z" opacity=".3"/><path d="M193.63,197.11c.06-.1,.11-.2,.17-.3,.89-1.61,1.34-3.03,1.45-4.76-.22,.68-.51,1.33-.88,1.93-1.07,1.73-2.63,3.1-4.2,4.38-1.6,1.3-3.37,2.79-3.57,4.84-.19,1.99,1.21,3.79,2.8,4.99,1.59,1.2,3.46,2.05,4.89,3.44,.62,.61,1.14,1.3,1.62,2.03-.06-.51-.13-1.01-.24-1.5-.37-1.65-1.22-3.41-1.92-4.95-.08-.18-.17-.36-.26-.54-1.53-3.02-1.52-6.6,.14-9.56Z" opacity=".1"/><g><path d="M178.07,183.08v1.57c-.02,.93,.6,1.88,1.84,2.6,2.47,1.44,6.47,1.45,8.96,.03,.62-.35,1.08-.76,1.39-1.21,.31-.44,.46-.9,.47-1.37v-1.59c0-.14,0-.28-.04-.42-.15-.79-.75-1.56-1.79-2.17-.03-.02-.06-.04-.09-.05-2.48-1.39-6.42-1.38-8.86,.01-1.05,.6-1.66,1.36-1.82,2.15-.04,.15-.05,.29-.05,.44Z" fill="#27debf"/><path d="M178.07,183.08v1.57c-.02,.93,.6,1.88,1.84,2.6,2.47,1.44,6.47,1.45,8.96,.03,.62-.35,1.08-.76,1.39-1.21,.31-.44,.46-.9,.47-1.37v-1.59c0-.14,0-.28-.04-.42-.15-.79-.75-1.56-1.79-2.17-.03-.02-.06-.04-.09-.05-2.48-1.39-6.42-1.38-8.86,.01-1.05,.6-1.66,1.36-1.82,2.15-.04,.15-.05,.29-.05,.44Z" opacity=".1"/><path d="M188.87,185.69c2.48-1.42,2.49-3.73,.02-5.17-2.47-1.44-6.48-1.45-8.95-.03-2.48,1.42-2.49,3.73-.02,5.17,2.47,1.44,6.48,1.45,8.95,.03Z" opacity=".2"/><path d="M178.08,181.25v.94c0,.15,0,.3,.04,.44,.15,.79,.76,1.56,1.8,2.16,1.1,.64,2.52,1,3.95,1.07,1.79,.09,3.63-.25,5-1.04,.62-.35,1.08-.76,1.39-1.2,.22-.3,.35-.62,.42-.94,.04-.14,.05-.29,.05-.43v-.97c0-.94-.6-1.88-1.84-2.6-.11-.06-.22-.12-.34-.18-2.48-1.26-6.25-1.21-8.62,.14-1.24,.71-1.87,1.65-1.87,2.59Z" fill="#27debf"/><path d="M178.08,181.25v.94c0,.15,0,.3,.04,.44,.15,.79,.76,1.56,1.8,2.16,1.1,.64,2.52,1,3.95,1.07,1.79,.09,3.63-.25,5-1.04,.62-.35,1.08-.76,1.39-1.2,.22-.3,.35-.62,.42-.94,.04-.14,.05-.29,.05-.43v-.97c0-.94-.6-1.88-1.84-2.6-.11-.06-.22-.12-.34-.18-2.48-1.26-6.25-1.21-8.62,.14-1.24,.71-1.87,1.65-1.87,2.59Z" opacity=".1"/><path d="M178.08,181.22c0,2.01,2.82,3.65,6.32,3.66,3.5,.01,6.34-1.6,6.35-3.62,0-2.01-2.82-3.65-6.32-3.66-3.5-.01-6.34,1.61-6.35,3.62Z" fill="#27debf"/></g></g><path d="M182.23,177.48v3.28c-.01,.05,0,.1,0,.15,.05,.27,.26,.54,.62,.75,.38,.22,.87,.35,1.37,.37,.62,.03,1.26-.09,1.73-.36,.21-.12,.37-.26,.48-.42,.07-.1,.12-.21,.14-.33,.01-.05,.02-.1,.02-.15v-3.29c.01-.33-.2-.65-.62-.9-.04-.02-.08-.04-.12-.06-.86-.44-2.17-.42-2.99,.05-.43,.25-.65,.57-.65,.9Z" fill="#27debf"/><path d="M182.23,177.48v3.28c-.01,.05,0,.1,0,.15,.05,.27,.26,.54,.62,.75,.38,.22,.87,.35,1.37,.37,.62,.03,1.26-.09,1.73-.36,.21-.12,.37-.26,.48-.42,.07-.1,.12-.21,.14-.33,.01-.05,.02-.1,.02-.15v-3.29c.01-.33-.2-.65-.62-.9-.04-.02-.08-.04-.12-.06-.86-.44-2.17-.42-2.99,.05-.43,.25-.65,.57-.65,.9Z" opacity=".1"/><path d="M182.23,177.47c0,.7,.98,1.27,2.19,1.27,1.21,0,2.2-.56,2.2-1.25,0-.7-.98-1.27-2.19-1.27-1.21,0-2.2,.56-2.2,1.25Z" fill="#27debf"/><path d="M183.65,177.48c0,.25,.35,.45,.78,.45,.43,0,.78-.2,.78-.44,0-.25-.35-.45-.78-.45s-.78,.2-.78,.44Z" fill="#27debf" opacity=".5"/><path d="M183.65,177.48c0,.25,.35,.45,.78,.45,.43,0,.78-.2,.78-.44,0-.25-.35-.45-.78-.45s-.78,.2-.78,.44Z" opacity=".3"/></g></g><g id="Dumbbell"><g id="Dumbbell-2"><g><path d="M274.21,208.13h0c-1.9-6.21-9.66-11.35-16.92-9.32h0c-1.04,.28-2.14,.74-3.27,1.4-7.04,4.06-12.75,13.95-12.75,22.08,0,1.52,.2,2.87,.57,4.04h0c1.9,6.21,9.66,11.32,16.92,9.29h0c1.04-.28,2.13-.74,3.26-1.4,7.04-4.06,12.75-13.95,12.75-22.08,0-1.51-.2-2.85-.56-4.01Z" fill="#455a64"/><path d="M262.02,234.21c7.04-4.06,12.75-13.95,12.75-22.08,0-8.13-5.71-11.43-12.75-7.37-7.04,4.06-12.75,13.95-12.75,22.08s5.71,11.43,12.75,7.37Z" fill="#37474f"/><path d="M262.02,213.78c2.71-1.56,4.9-.3,4.9,2.83s-2.19,6.93-4.9,8.49c-2.71,1.56-4.9,.3-4.9-2.83,0-3.13,2.19-6.93,4.9-8.49Z" fill="#455a64"/><path d="M263.7,218.48c0,1.07-.75,2.37-1.67,2.91-.43,.25-.83,.29-1.13,.15-.05-.02-.08-.05-.12-.07-.27-.19-.43-.55-.43-1.05,0-1.07,.75-2.37,1.68-2.91,.43-.25,.82-.29,1.12-.15l.12,.07c.27,.19,.43,.55,.43,1.05Z" fill="#37474f"/></g><path d="M290.63,234.02c0,1.07-.75,2.37-1.67,2.91-.27,.16-.51,.23-.73,.23-.2,0-.38-.06-.56-.16l-26.77-15.46s-.08-.05-.12-.07c-.27-.19-.43-.55-.43-1.05,0-1.07,.75-2.37,1.68-2.91,.43-.25,.82-.29,1.12-.15l.12,.07,26.77,15.45c.38,.22,.59,.55,.59,1.15Z" fill="#27debf"/><g><path d="M316.9,232.77h0c-1.9-6.21-9.66-11.35-16.92-9.32h0c-1.04,.28-2.14,.74-3.27,1.4-7.04,4.06-12.75,13.95-12.75,22.08,0,1.52,.2,2.87,.57,4.04h0c1.9,6.21,9.66,11.32,16.92,9.29h0c1.04-.28,2.13-.74,3.26-1.4,7.04-4.06,12.75-13.95,12.75-22.08,0-1.51-.2-2.85-.56-4.01Z" fill="#455a64"/><path d="M304.72,258.85c7.04-4.06,12.75-13.95,12.75-22.08,0-8.13-5.71-11.43-12.75-7.37-7.04,4.06-12.75,13.95-12.75,22.08,0,8.13,5.71,11.43,12.75,7.37Z" fill="#37474f"/><path d="M304.72,238.43c2.71-1.56,4.9-.3,4.9,2.83s-2.19,6.93-4.9,8.49c-2.71,1.56-4.9,.3-4.9-2.83,0-3.13,2.19-6.93,4.9-8.49Z" fill="#455a64"/><path d="M306.39,243.12c0,1.07-.75,2.37-1.67,2.91-.43,.25-.83,.29-1.13,.15-.05-.02-.08-.05-.12-.07-.27-.19-.43-.55-.43-1.05,0-1.07,.75-2.37,1.68-2.91,.43-.25,.82-.29,1.12-.15l.12,.07c.27,.19,.43,.55,.43,1.05Z" fill="#37474f"/></g><path d="M310.45,245.46c0,1.07-.75,2.37-1.67,2.91-.27,.16-.51,.23-.73,.23-.2,0-.38-.06-.56-.16l-3.9-2.25s-.08-.05-.12-.07c-.27-.19-.43-.55-.43-1.05,0-1.07,.75-2.37,1.68-2.91,.43-.25,.82-.29,1.12-.15l.12,.07,3.9,2.25c.38,.22,.59,.55,.59,1.15Z" fill="#27debf"/><path d="M310.45,245.45c0,1.07-.75,2.37-1.67,2.91-.43,.25-.83,.29-1.13,.15-.05-.02-.08-.05-.12-.07-.27-.19-.43-.55-.43-1.05,0-1.07,.75-2.37,1.68-2.91,.43-.25,.82-.29,1.12-.15l.12,.07c.27,.19,.43,.55,.43,1.05Z" opacity=".2"/></g></g><g id="Character_2"><g id="Character"><g><path d="M363.5,72.45c-4.77,7.76-13.69,26.23-16.42,30.13-4.38-5.08-13.19-16.22-15.15-18.47-2.49-2.86-10.24-7.45-10.24-7.45l-2.64,11.65s17.06,26.77,22.18,31.88c3.25,3.24,7,5.31,14.64-2.77,7.11-7.53,24.01-30.03,24.01-30.03l.5-26.75c-8.18-.55-10.69,1.76-16.86,11.8Z" fill="#ffa8a7"/><path d="M347.08,102.58c1.83,2.03,3.95,4.95,4.53,6.71,0,0-.05-4.01-3.39-8.55l-1.14,1.84Z" fill="#f28f8f"/><g><g><g><path d="M318.1,63.76l-6.84-3.95s0,36.45,0,37.64-1.37,2.37-1.37,2.37l6.84,3.95s1.37-1.19,1.37-2.37V63.76Z" fill="#37474f"/><path d="M311.26,75s-1.93,.5-2.61,3.53c-.68,3.02-.93,8.78,.84,10.64,1.77,1.86,4.15,2.63,5.7,1.92,2.91-1.34,1.89-7.27-.49-8.59-3.8-2.11-3.4-4.54-3.4-4.54l-.03-2.95Z" fill="#ffa8a7"/><path d="M326.41,63.7l-2.88,3.67,.02,25.71,3.11,4.96-9.93,5.73c.86-.78,1.3-1.57,1.37-2.37v-32.9l8.31-4.8Z" fill="#455a64"/><polygon points="326.66 98.03 326.66 99.61 316.73 105.34 316.73 103.77 326.66 98.03" fill="#27debf"/><polygon points="316.73 105.34 309.89 101.4 309.89 99.82 316.73 103.77 316.73 105.34" fill="#27debf"/><polygon points="316.73 105.34 309.89 101.4 309.89 99.82 316.73 103.77 316.73 105.34" opacity=".1"/></g><g><path d="M318.41,47.15h0c1.16-.69,2.78-.61,4.57,.42l.07,.04c3.54,2.04,6.4,7.01,6.4,11.09v.08c0,2.11-.77,3.58-2,4.21h0l-5.18,3.05-8.64-16.06,4.78-2.82Z" fill="#27debf"/><path d="M318.41,47.15h0c1.16-.69,2.78-.61,4.57,.42l.07,.04c3.54,2.04,6.4,7.01,6.4,11.09v.08c0,2.11-.77,3.58-2,4.21h0l-5.18,3.05-8.64-16.06,4.78-2.82Z" fill="#fafafa" opacity=".8"/><path d="M327.44,62.99h0l-5.18,3.05-2.86-5.32,9.45-5.45c.38,1.16,.6,2.34,.6,3.44v.08c0,2.11-.77,3.58-2,4.21Z" fill="#27debf" opacity=".2"/><path d="M307.24,51.08h0c1.31-.75,3.08-.72,5.04,.24,.21,.1,.41,.21,.63,.33,.25,.14,.49,.3,.73,.46,.4,.27,.79,.57,1.17,.9,.7,.6,1.36,1.28,1.97,2.02,1.64,2,2.94,4.44,3.62,6.89,.34,1.23,.53,2.46,.53,3.64,0,2.49-.86,4.27-2.25,5.13l4.94-2.85h0c1.73-1.11,2.92-3.07,2.92-5.52,0-1.12-.17-2.3-.49-3.47-.67-2.49-1.98-5-3.66-7.05-.61-.74-1.27-1.43-1.97-2.02-.38-.33-.77-.63-1.17-.9-.24-.17-.49-.32-.73-.46-.21-.12-.42-.23-.63-.33-1.94-.88-3.96-.76-5.6,.09h0l-.14,.07c-.06,.03-.12,.07-.18,.1l-4.73,2.72Z" fill="#27debf"/><path d="M323.63,67.84h0c1.73-1.11,2.92-3.07,2.92-5.52,0-1.12-.17-2.3-.49-3.47l-5.65,3.07c.34,1.23,.53,2.46,.53,3.64,0,2.49-.86,4.27-2.25,5.13l4.94-2.85Z" opacity=".1"/><path d="M304.88,56.29c0,5.12,3.59,11.35,8.03,13.91,2.23,1.29,4.25,1.4,5.7,.55,.03-.01,.05-.03,.08-.05,1.39-.86,2.25-2.64,2.25-5.13,0-5.12-3.59-11.35-8.03-13.91-2.21-1.28-4.22-1.4-5.67-.57-1.46,.84-2.36,2.64-2.36,5.2Z" fill="#27debf"/><path d="M304.88,56.29c0,5.12,3.59,11.35,8.03,13.91,2.23,1.29,4.25,1.4,5.7,.55,.03-.01,.05-.03,.08-.05,1.39-.86,2.25-2.64,2.25-5.13,0-5.12-3.59-11.35-8.03-13.91-2.21-1.28-4.22-1.4-5.67-.57-1.46,.84-2.36,2.64-2.36,5.2Z" opacity=".2"/><path d="M280.26,54.96s8.1,4.16,15.02,16.14c1.36,2.35,2.43,4.6,3.28,6.68,3.47,8.52,3.19,14.39,3.19,14.39,2.41-5.91,5.42-12.03,10.42-16.72,3.1-2.9,6.16-5.15,6.16-5.15h0c1.33-.77,2.1-2.45,2.1-4.75,0-1.52-.33-3.13-.91-4.72-.36-1-.83-2-1.37-2.94-1.41-2.44-3.35-4.57-5.49-5.8-1.99-1.15-3.83-1.32-5.16-.55h0s-3.47,1.52-7.54,2.75c-6.56,1.99-13.37,1.53-19.69,.67Z" fill="#27debf"/><path d="M280.26,54.96s8.1,4.16,15.02,16.14c1.36,2.35,2.43,4.6,3.28,6.68,3.47,8.52,3.19,14.39,3.19,14.39,2.41-5.91,5.42-12.03,10.42-16.72,3.1-2.9,6.16-5.15,6.16-5.15h0c1.33-.77,2.1-2.45,2.1-4.75,0-1.52-.33-3.13-.91-4.72-.36-1-.83-2-1.37-2.94-1.41-2.44-3.35-4.57-5.49-5.8-1.99-1.15-3.83-1.32-5.16-.55h0s-3.47,1.52-7.54,2.75c-6.56,1.99-13.37,1.53-19.69,.67Z" fill="#fafafa" opacity=".8"/><path d="M298.56,77.78c3.47,8.52,3.19,14.39,3.19,14.39,2.41-5.91,5.42-12.03,10.42-16.72,3.1-2.9,6.16-5.15,6.16-5.15h0c1.33-.77,2.1-2.45,2.1-4.75,0-1.52-.33-3.13-.91-4.72-6.14,3.07-16.07,8.74-20.95,16.94Z" fill="#27debf" opacity=".2"/><path d="M265,66.52c0,5.34,1.64,11.19,4.38,16.58h0c3.51,6.92,8.8,13.09,14.73,16.51,10.55,6.09,19.1,1.15,19.1-11.03,0-2.79-.45-5.71-1.26-8.64-2.01-7.21-6.26-14.42-11.58-19.62-.75-.73-1.52-1.42-2.3-2.07-.33-.27-.66-.53-.99-.78h0c-.47-.36-.95-.7-1.44-1.03-.51-.34-1.01-.66-1.53-.95-10.55-6.09-19.11-1.15-19.11,11.03Z" fill="#27debf"/><path d="M269.39,83.11c3.51,6.91,8.8,13.08,14.73,16.5,10.55,6.09,19.1,1.15,19.1-11.03,0-2.79-.45-5.71-1.26-8.64h0c-.71,1.58-3.28,3.82-4.43,2.25,.72,2.62,1.11,5.21,1.11,7.66,0,3.5-.78,6.33-2.26,8.18-1.26,1.58-2.99,2.38-5.14,2.37-2.09,0-4.52-.77-7.03-2.21-5.04-2.91-9.67-8.14-12.96-14.06,0,0-.66,.56-1.86-1.02Z" opacity=".1"/><path d="M266.31,67.2c0,5.38,1.89,11.45,4.93,16.93,3.29,5.92,7.92,11.15,12.96,14.06,2.51,1.44,4.94,2.22,7.03,2.21,2.15,0,3.88-.8,5.14-2.37,1.47-1.85,2.26-4.67,2.26-8.18,0-2.45-.39-5.04-1.11-7.66-.27-.99-.59-1.98-.95-2.97-.63-1.72-1.38-3.45-2.25-5.11-.18-.34-.36-.68-.55-1.02-.31-.56-.63-1.12-.96-1.67-1.13-1.88-2.4-3.66-3.77-5.3-.01-.02-.03-.04-.05-.06-.91-1.09-1.87-2.11-2.85-3.06-.71-.68-1.44-1.32-2.18-1.91-.31-.25-.62-.49-.94-.72-.38-.28-.76-.54-1.15-.8-.38-.25-.76-.48-1.14-.7-2.52-1.45-4.95-2.22-7.04-2.22-4.63,0-7.4,3.95-7.4,10.55Z" fill="#27debf"/><path d="M266.31,67.2c0,5.38,1.89,11.45,4.93,16.93,3.29,5.92,7.92,11.15,12.96,14.06,2.51,1.44,4.94,2.22,7.03,2.21,2.15,0,3.88-.8,5.14-2.37,1.47-1.85,2.26-4.67,2.26-8.18,0-2.45-.39-5.04-1.11-7.66-.27-.99-.59-1.98-.95-2.97-.63-1.72-1.38-3.45-2.25-5.11-.18-.34-.36-.68-.55-1.02-.31-.56-.63-1.12-.96-1.67-1.13-1.88-2.4-3.66-3.77-5.3-.01-.02-.03-.04-.05-.06-.91-1.09-1.87-2.11-2.85-3.06-.71-.68-1.44-1.32-2.18-1.91-.31-.25-.62-.49-.94-.72-.38-.28-.76-.54-1.15-.8-.38-.25-.76-.48-1.14-.7-2.52-1.45-4.95-2.22-7.04-2.22-4.63,0-7.4,3.95-7.4,10.55Z" opacity=".3"/></g><path d="M282.55,70.2l6.7,12.51c1.88-.71,5.07-1.84,7.67-2.5-.11-.33-.22-.66-.34-.99-.63-1.72-1.38-3.45-2.25-5.11-.18-.34-.36-.68-.55-1.02-.31-.56-.63-1.12-.96-1.67-1.13-1.88-2.4-3.66-3.77-5.3-.01-.02-.03-.04-.05-.06-.2-.24-.4-.48-.61-.71-2.51,2.58-5.85,4.84-5.85,4.84Z" fill="#27debf"/><g opacity=".6"><path d="M282.55,70.2l6.7,12.51c1.88-.71,5.07-1.84,7.67-2.5-.11-.33-.22-.66-.34-.99-.63-1.72-1.38-3.45-2.25-5.11-.18-.34-.36-.68-.55-1.02-.31-.56-.63-1.12-.96-1.67-1.13-1.88-2.4-3.66-3.77-5.3-.01-.02-.03-.04-.05-.06-.2-.24-.4-.48-.61-.71-2.51,2.58-5.85,4.84-5.85,4.84Z" fill="#fafafa"/></g><path d="M288.69,82.68c1.52,0,2.42-1.22,2.42-3.27v-.06c0-3.22-2.27-7.15-5.06-8.77l-.05-.03c-.74-.43-1.48-.66-2.11-.66-1.51,0-2.42,1.22-2.42,3.27v.06c0,3.22,2.27,7.15,5.06,8.77l.05,.03c.74,.43,1.48,.66,2.11,.66h0Z" fill="#27debf"/><g opacity=".8"><path d="M288.69,82.68c1.52,0,2.42-1.22,2.42-3.27v-.06c0-3.22-2.27-7.15-5.06-8.77l-.05-.03c-.74-.43-1.48-.66-2.11-.66-1.51,0-2.42,1.22-2.42,3.27v.06c0,3.22,2.27,7.15,5.06,8.77l.05,.03c.74,.43,1.48,.66,2.11,.66h0Z" fill="#fafafa"/></g></g><g><path d="M281.46,47.43c.83,0,1.51-.67,1.51-1.51v-14.58c0-.83-.67-1.51-1.51-1.51s-1.51,.67-1.51,1.51v14.58c0,.83,.67,1.51,1.51,1.51Z" fill="#e0e0e0"/><path d="M294.73,50.98c.52,0,1.03-.27,1.31-.75l7.29-12.62c.42-.72,.17-1.64-.55-2.06-.72-.42-1.64-.17-2.06,.55l-7.29,12.62c-.42,.72-.17,1.64,.55,2.06,.24,.14,.5,.2,.75,.2Z" fill="#e0e0e0"/><path d="M308.53,121.23c.26,0,.52-.06,.75-.2,.72-.42,.97-1.34,.55-2.06l-7.29-12.62c-.42-.72-1.34-.97-2.06-.55-.72,.42-.97,1.34-.55,2.06l7.29,12.62c.28,.48,.79,.75,1.31,.75Z" fill="#e0e0e0"/><path d="M281.46,123.18c.83,0,1.51-.68,1.51-1.51v-14.58c0-.83-.67-1.51-1.51-1.51s-1.51,.67-1.51,1.51v14.58c0,.83,.67,1.51,1.51,1.51Z" fill="#e0e0e0"/><path d="M260.91,109.55c.52,0,1.03-.27,1.31-.75l7.29-12.62c.42-.72,.17-1.64-.55-2.06-.72-.42-1.64-.17-2.06,.55l-7.29,12.62c-.42,.72-.17,1.64,.55,2.06,.24,.14,.5,.2,.75,.2Z" fill="#e0e0e0"/><path d="M245.87,94.51c.26,0,.52-.06,.75-.2l12.62-7.29c.72-.42,.97-1.34,.55-2.06-.42-.72-1.34-.97-2.06-.55l-12.62,7.29c-.72,.42-.97,1.34-.55,2.06,.28,.48,.79,.75,1.31,.75Z" fill="#e0e0e0"/><path d="M240.36,73.96h14.58c.83,0,1.51-.68,1.51-1.51s-.67-1.51-1.51-1.51h-14.58c-.83,0-1.51,.68-1.51,1.51s.67,1.51,1.51,1.51Z" fill="#e0e0e0"/><path d="M258.49,60.69c.52,0,1.03-.27,1.31-.75,.42-.72,.17-1.64-.55-2.06l-12.62-7.29c-.72-.42-1.64-.17-2.06,.55-.42,.72-.17,1.64,.55,2.06l12.62,7.29c.24,.14,.5,.2,.75,.2Z" fill="#e0e0e0"/><path d="M268.2,50.98c.26,0,.52-.06,.75-.2,.72-.42,.97-1.34,.55-2.06l-7.29-12.62c-.42-.72-1.34-.97-2.06-.55-.72,.42-.97,1.34-.55,2.06l7.29,12.62c.28,.48,.79,.75,1.31,.75Z" fill="#e0e0e0"/></g><path d="M331.93,84.11c-2.95-3.59-3.11-5.87-5.39-7.6-2.28-1.74-4.54-1.81-7.85-.78-2.5,.78-5.46,.48-6.46,1.43-.28,.2,.2,1.81,1.39,2.36,1.43,.67,3.73,.45,5.42,.42,3.85-.06,.77,3.79,4.57,7.54,1.64,2.72,8.32-3.37,8.32-3.37Z" fill="#ffa8a7"/></g></g><g><path d="M402.38,54.95c1.44-4.41,6.6-9.8,10.34-14.72,4.25-5.58,8.07-16.95-.13-24.4,0,0,.56-12.94-12.62-15.36-11.69-2.14-21.85,3.77-34.21,2.08-6.05-.82-8.81,6.09-2.26,12.7,0,0-4.54,4.74-1.96,10.27s10.51,4.64,10.51,4.64l30.32,24.78Z" fill="#263238"/><path d="M409.52,14.55c.34-.5,.78-.95,1.27-1.3,1.22-.86,2.71-1.23,4.19-1.42,5.34-.66,11.06,1.03,14.77,4.94,3.56,3.75,4.98,9.11,5.15,14.28,.16,5.17-.79,10.3-1.35,15.45-.39,3.57-.58,7.21-.08,10.78,.43,3.04,1.45,6.76,3.5,9.15,1.33,1.55,3.47,2.82,3.42,5.06-.05,2.29-2.06,3.4-4.13,3.73-5.92,.95-12.35-1.92-16.03-6.54-.19-.24-.38-.49-.56-.75-3.2-4.5-3.33-9.61-3.3-14.91,.03-5.73,1.61-11.3,2.59-16.91,.5-2.83,.97-5.69,1.06-8.57,.05-1.83,.07-4.09-1.06-5.65-1.27-1.76-3.22-2.6-5.36-2.37-.92,.1-1.71,.47-2.64,.18-1.17-.37-2.05-1.44-2.14-2.67-.07-.88,.21-1.75,.71-2.49Z" fill="#263238"/></g><g><path d="M405.47,269.58l21.21-.38c-.32,14.16-2.57,29.87-2.93,43.15-.07,2.5,.06,19.43-.88,24.57-1.42,7.73-10.59,6.69-11.08,2.06-.49-4.63,.59-24.39,.56-26.43,.08-8.52-3.91-22.9-6.01-38.19-.1-.75-.77-4.05-.87-4.79Z" fill="#ffa8a7"/><path d="M408.32,342.2c-.19,4.54,.21,7.61,1.55,10.42s4.28,3.95,7.41,3.48c3.14-.47,7.27-2.15,8.54-5.95,1.27-3.81,1.36-6.5,1.09-10.75l-18.58,2.81Z" fill="#263238"/><path d="M423.8,310.73c1.25,.23,1.01,6.33,1.13,12.47,.12,6.59,1.8,9.47,1.96,14.88,.18,6.18-.41,8.87-2.92,12.34-2.51,3.47-10.43,6.33-13.63,.67-2.61-4.61-2.25-9.39-1.36-15.45,.92-6.26,1.62-10.66,1.84-15.47,.21-4.59,.34-9.04,1.49-9.44,.02,.68,.01,1.54,.04,2.2,.02,.51-.1,3,.6,3.09,.12-.58,.17-1.12,.19-1.72,.02-.52,.12-1.08,.49-1.44,.38-.36,.94-.43,1.46-.48,1.27-.12,2.54-.22,3.81-.2,.63,0,1.27,.04,1.9,.11,.51,.06,1.11,.16,1.58,.39,.29,.14,.54,.38,.62,.69,.06,.23,.02,.47,0,.7-.04,.42-.03,.85,.03,1.27,.03,.18,.13,.42,.32,.39,.15-.02,.23-.2,.24-.35,.08-.73,.04-1.28,.09-2.14,.02-.4,.01-.94,.05-1.34,.03-.39,.07-.78,.08-1.17Z" fill="#455a64"/><path d="M426.77,336.31c.03,.89,.19,6.79-1.5,7.68-1.83,.96-2.31-3.71-2.31-3.71,0,0-3.9-1.64-10.02,.34,.21,.97-1.01,4-2.55,3.18-1.53-.81-1.49-7.56-1.49-7.64-.83,5.81-1.09,10.46,1.44,14.93,3.2,5.65,11.12,2.8,13.63-.67,2.51-3.47,3.1-6.16,2.92-12.34-.02-.62-.06-1.2-.11-1.76Z" fill="#37474f"/><path d="M422.46,340.63c-.2,2.21,2.05,1.68,2.46-1.42s-.55-10.66,0-16.01c-.12-6.14,.12-12.25-1.13-12.47,0,.08-.01,.15-.02,.22l-.14,3.1c0,.45-.01,.85-.06,1.33-.42,4.5-.66,13.25-.69,17.4-.03,4.15-.23,5.65-.42,7.85Z" fill="#263238"/><path d="M413.63,340.63c-.2-2.21-.4-3.7-.42-7.85-.03-4.12-.26-12.76-.68-17.29-.23-.78-.17-2.18-.19-2.55-.02-.62-.02-1.41-.03-2.06,0-.05,0-.09,0-.14-.83,.3-1.12,2.73-1.3,5.8-.02,1.78,.04,3.99,.17,6.67,.55,5.35-.42,12.95-.01,16.05,.41,3.1,2.67,3.58,2.47,1.38Z" fill="#263238"/><path d="M366.28,297.56c.16-4.38-2.78-45.1-2.78-45.1l20.07,12.72c-4.31,25.74-5.23,31.81-5.31,36.02h0c.03,.1,.12,.46,.11,1.08-.02,5-5.66,7.7-10.07,11.03-1.74,1.32-6.8,5.21-11.91,7.77-3.2,1.61-9.7,1.75-10.5-.3,5.36-4.09,13.15-10.21,17.41-14.89,2.03-2.23,2.81-3.95,2.96-8.33Z" fill="#ffa8a7"/><path d="M336.77,326.16c-.27,0-.6,2.74,.89,4.02,1.72,1.49,6.69,4.04,13.37,3.18,6.68-.86,10.3-2.76,12.97-5,2.67-2.24,6.42-5.39,9.44-6.06,2.81-.62,5.86-1.89,6.75-2.76,.9-.87,.77-4.73,.77-4.73l-44.2,11.34Z" fill="#263238"/><path d="M378.3,299.97s.84,0,1.01,.9c.21,1.06,.43,4.15,.87,5.9,.61,2.43,1.02,7.4,.66,9.37-.37,1.98-4.94,3.35-7.87,4.46-2.99,1.14-6.44,3.48-9.47,5.98-3.14,2.59-9.74,5.28-14.1,5.25-5.15-.04-10.95-1.7-12.28-4.09-1.64-2.96-.36-4.67,7.28-8.21,1.45-.67,6.52-3.68,8.26-4.77,4.68-2.95,9.32-7.05,11.48-12.27,.25-.61,.52-1.29,1.1-1.6,.45-.24,.98-.2,1.49-.13,1.27,.18,2.52,.56,3.68,1.11,1.03,.49,2.48,1.06,2.46,2.37,0,.46-.14,.9-.29,1.33-.09,.27-.16,.62,.07,.78,.22,.15,.52-.02,.71-.2,.8-.72,1.39-1.63,2.06-2.47,.36-.45,.75-.88,1.21-1.23,.41-.32,.94-.48,1.31-.85,.46-.46,.35-1.04,.38-1.65Z" fill="#455a64"/><path d="M363.5,326.6c1.33-1.1,2.75-2.16,4.17-3.11h0s-8.98,5.45-12.61,2.98c-2.34-1.6-1.23-3.54-1.17-4.16,.06-.62-5.71-3.28-7.98-3.54h0c-.63,.35-1.16,.63-1.5,.79-7.64,3.54-8.93,5.25-7.28,8.21,1.33,2.39,5.53,4.25,12.19,4.25,4.35,0,11.05-2.82,14.19-5.41Z" fill="#37474f"/><path d="M354.51,320.5c-4.75,1.9-2.72,2.79-1.39,2.98,1.33,.19,9.32-4.48,14.2-8.34,5.09-4.02,8.29-8.42,10.18-9.9,.7-.55,1.46-1.23,2.14-1.86-.13-1.05-.23-2-.32-2.5-.17-.89-1.01-.9-1.01-.9-.02,.62,.09,1.19-.38,1.65-.37,.37-.89,.53-1.31,.85-.46,.35-.85,.78-1.21,1.23-.67,.84-1.26,1.76-2.06,2.47-4.15,5.26-14.09,12.42-18.84,14.32Z" fill="#263238"/><g><path d="M353.46,322.31c-1.2-1.47-4.88-3.63-8.29-3.26" fill="none" stroke="#ebebeb" stroke-linecap="round" stroke-linejoin="round" stroke-width=".94"/><path d="M357.6,319.76c-1.2-1.47-4.88-3.63-8.29-3.26" fill="none" stroke="#ebebeb" stroke-linecap="round" stroke-linejoin="round" stroke-width=".94"/><path d="M361.74,317.34c-1.2-1.47-4.88-3.63-8.29-3.26" fill="none" stroke="#ebebeb" stroke-linecap="round" stroke-linejoin="round" stroke-width=".94"/><path d="M365.58,314.58c-1.2-1.47-4.88-3.63-8.29-3.26" fill="none" stroke="#ebebeb" stroke-linecap="round" stroke-linejoin="round" stroke-width=".94"/><path d="M369.35,311.82c-1.68-2.12-5.68-3.67-9.08-3.3" fill="none" stroke="#ebebeb" stroke-linecap="round" stroke-linejoin="round" stroke-width=".94"/></g><path d="M409.86,119.2c2.87,6.12,10.93,16.17,13.51,23.05,5.29,14.08,2.76,24.27,1.23,42.79-1.64,19.84-3.21,35.53-3.21,35.53,.3,3.53,5.2,10.41,5.83,25.99,.59,14.57-1,33.09-1,33.09,0,0-11,6.1-19.14-.05,0,0-7.85-37.49-10.15-55.73-2.01-15.92-4.3-28.77-4.3-28.77l-6.22,29.6s.45,7.99,1.1,14.79c1.04,10.73-4.96,31.79-4.96,31.79,0,0-11.37,3.39-18.31-2.76,0,0-2.69-30.74-2.41-46,.32-17.35,3.35-75.52,5.48-100.32l42.54-3.01Z" fill="#27debf"/><path d="M409.86,119.2c2.87,6.12,10.93,16.17,13.51,23.05,5.29,14.08,2.76,24.27,1.23,42.79-1.64,19.84-3.21,35.53-3.21,35.53,.3,3.53,5.2,10.41,5.83,25.99,.59,14.57-1,33.09-1,33.09,0,0-11,6.1-19.14-.05,0,0-7.85-37.49-10.15-55.73-2.01-15.92-4.3-28.77-4.3-28.77l-6.22,29.6s.45,7.99,1.1,14.79c1.04,10.73-4.96,31.79-4.96,31.79,0,0-11.37,3.39-18.31-2.76,0,0-2.69-30.74-2.41-46,.32-17.35,3.35-75.52,5.48-100.32l42.54-3.01Z" opacity=".3"/><path d="M392.64,195.11l-4.25-34.69s-8.29-1.08-15.34-9.34c0,0,1.41,7.93,11.59,11.87l5.61,30.91-3.82,30.87,6.22-29.62Z" opacity=".2"/><g><path d="M412.8,340.32s4.96-1.99,10.16-.03" fill="none" stroke="#ebebeb" stroke-linecap="round" stroke-linejoin="round" stroke-width=".94"/><path d="M412.23,335.43s5.52-1.99,11.3-.03" fill="none" stroke="#ebebeb" stroke-linecap="round" stroke-linejoin="round" stroke-width=".94"/><path d="M412.32,330.73s5.88-2.37,11.22,.06" fill="none" stroke="#ebebeb" stroke-linecap="round" stroke-linejoin="round" stroke-width=".94"/><path d="M412.23,326.35s5.55-2.66,11.41,.13" fill="none" stroke="#ebebeb" stroke-linecap="round" stroke-linejoin="round" stroke-width=".94"/><path d="M412.23,321.63s6.03-2.7,11.51,0" fill="none" stroke="#ebebeb" stroke-linecap="round" stroke-linejoin="round" stroke-width=".94"/></g></g><g><path d="M401.42,61.52h0c4.09,.28,11.53,.94,11.53,.94,4.29,2.4,5.38,4.36,6.18,10.06,.34,2.43-1.64,8.9-3.34,18.1l-3.84,17.26-2.1,11.33c-5.06,4.43-12.32,6.99-25.84,7.13-7.1,.07-12.88-2.07-16.7-4.12-.19-8.09-1.36-16.14-1.52-20.86-6.38-5.24-8.52-13.87-5.04-19.51,8.08-13.08,15.94-21.32,21.14-20.9l19.52,.57Z" fill="#ffa8a7"/><path d="M365.13,101.43l1.38,8.64s6.37,4.08,21.24,3.48c20.68-.84,24.34-6.3,24.34-6.3,1.59-5.96,2.96-12.43,4.2-19.24,0,0-8.17-1.83-8.8-11.02-.63-9.2,5.03-14.59,5.03-14.59l-10.15-.63s-19.11-1.29-22.01-1.14c-2.91,.16-7.56,3.4-13.05,10.5-5.49,7.1-14.09,19.51-2.19,30.28Z" fill="#455a64"/><path d="M453.34,100.99c-8.25-10.01-17.45-20.38-23.36-27.5-9.19-11.08-11-10.76-17.46-11.08-3.38,2.56-3.49,10.29,.99,24.46,6.67,5.6,23.66,22.94,23.66,22.94-.76,1.8-7.93,14.91-12.57,20.47-.82,.98-3.44,1.09-4.7,1.28-3.4,.51-6.46,1.49-9.39,2.72-2.29,.96-3.82,.79-3.84,1.4-.03,.79,.62,2.37,2.81,2.62,1.1,.13,3.93-.56,5.94-.88,0,0-.76,.86-3.84,2.59-1.29,.73-6.82,3.44-9.04,4.5-2.86,1.36-2.15,6.56,5.93,8.28,4.12,.88,9.5,.4,17.82-6.47,2.43-2.01,6.04-6.18,8.9-9.52,7.53-8.82,12.09-14.5,16.15-20.11,6.76-9.33,4.72-12.4,2-15.7Z" fill="#ffa8a7"/><path d="M376.46,100.16s7.49,5.81,16.03,2.78c8.54-3.03,9.79-10.5,9.79-10.5,0,0,.91,9.77-9.87,13.1-10.4,3.21-15.95-5.38-15.95-5.38Z" opacity=".1"/><g><path d="M366.27,34.71c.32,14.17,4.92,17.68,7.23,18.68,2.31,1.01,6.75,.39,11.07-.32v8.51s-9,7.69-8.63,11.59c.38,3.91,10.73,4.42,16.33,.61,4.08-2.78,8.12-8.51,9.39-10.02,.46-.55,.71-1.24,.71-1.96v-20.01s2.91,1.52,5.66-.83c3.84-3.29,4.1-8.5,1.29-11.29-1.35-1.34-4.87-1.74-7.09,1.59-1.04,4.37-2.87,5.23-3.94,3.87-5.2-6.62-6.86-3.56-14.45-8.09-8.77-5.24-10.28-10.84-11.96-16.33-3.17,1.88-6,7.31-5.61,24.03Z" fill="#ffa8a7"/><path d="M382.03,32.88c-.05,.93,.64,1.72,1.54,1.77,.9,.04,1.66-.68,1.71-1.61,.05-.93-.64-1.72-1.54-1.77-.9-.04-1.66,.68-1.71,1.61Z" fill="#263238"/><path d="M368.8,32.88c-.05,.93,.64,1.72,1.54,1.77,.9,.04,1.66-.68,1.71-1.61,.05-.93-.64-1.72-1.54-1.77-.9-.04-1.66,.68-1.71,1.61Z" fill="#263238"/><polygon points="377.73 29.64 377.41 41.57 371.14 39.62 377.73 29.64" fill="#f28f8f"/><path d="M384.57,53.06c4.56-.6,13.93-3.29,15.4-7,0,0-.49,2.33-3.29,4.73-2.8,2.4-12.11,5.11-12.11,5.11v-2.84Z" fill="#f28f8f"/><path d="M383.84,24.88l4.16,2.53c.68-1.2,.3-2.73-.85-3.43-1.15-.7-2.63-.3-3.31,.9Z" fill="#263238"/><path d="M384.63,41.72l-5.55,2.85c.85,1.54,2.79,2.16,4.32,1.37,1.53-.79,2.08-2.68,1.23-4.22Z" fill="#b16668"/><path d="M381.98,45.8c0,.16,.02,.32,.05,.47,.47,0,.94-.11,1.37-.33,1.2-.62,1.79-1.91,1.58-3.19-1.66,.03-3,1.38-3,3.05Z" fill="#f28f8f"/><path d="M367.42,26.2l4.63-1.62c-.4-1.31-1.77-2-3.04-1.56-1.28,.45-1.99,1.87-1.59,3.17Z" fill="#263238"/></g></g></g></g><g id="Character_1"><g id="Character-2"><path d="M65.71,294.74c-3.32,1.04-6.89,1.23-10.31,.63-5.51-.97-12.47-4.56-11.99-11.18,.05-.76,.23-1.51,.61-2.17,1.25-2.18,4.14-2.59,6.56-3.28,4.61-1.32,8.64-4.56,10.9-8.78,2.47-4.6,2.82-10.04,2.53-15.25-.09-1.66-.25-3.34,.09-4.97,.27-1.31,.86-2.53,1.57-3.66,2.33-3.72,6.05-6.51,10.21-7.92,1.47-.5,3.15-.82,4.54-.11,.9,.47,1.56,1.59,1.45,2.62-.13,1.19-1.42,1.95-2.15,2.79-1.81,2.07-3.19,4.64-3.25,7.44-.06,2.74,1.13,5.33,2.1,7.89,3.05,8.07,4,17.46,.04,25.12-2.64,5.12-7.39,9.11-12.89,10.83Z" fill="#263238"/><g><path d="M145.49,258.38s6.74-48.52,5.41-65.99c-.68-8.96-5.3-11.81-11.92-11.29s-45.11,22.15-45.11,22.15l5.36,13.04,31.58-9.91s-3.21,18.61-3.95,22.15c-.74,3.54-2.3,8.3-3.53,12.57-.61,2.1-1.45,4.83-1.45,6.15,0,3.11,23.61,11.14,23.61,11.14Z" fill="#b16668"/><path d="M130.81,206.37c4.39-.87,8.79-3.45,10.16-5.52,0,0-.69,3.2-4.39,5.52-3.7,2.32-6.34,3.28-6.34,3.28l.57-3.28Z" fill="#9a4a4d"/></g><g><path d="M138.26,304.16c-11.33-4.55-25.16-8.78-32.87-13.23-7.71-4.45-8.14-5.6-16.78-10.65-8.64-5.05,2.26-24.4,2.26-24.4,0,0,16.14-5.59,23.76-8.59,4.83-1.12,10.43-3.03,16-2.75,5.57,.28,16.27,.14,20.28,3.82,4.01,3.69,3.86,11.3,3.86,11.3l12.94,13.01-29.45,31.51Z" fill="#b16668"/><g><path d="M158.21,263.11l-3.45-3.46s-.45-.53-.66-1.79c-2.23-.67-7.24-1.11-19.23,5.96-15.76,9.3-19.8,31.6-19.8,31.6h0c1.92,.78,5.03,1.97,7.1,2.75,1.74-10.37,8.61-20.92,17.58-27.26,8.97-6.35,18.46-7.79,18.46-7.79Z" fill="#27debf"/><path d="M158.21,263.11l-3.45-3.46s-.45-.53-.66-1.79c-2.23-.67-7.24-1.11-19.23,5.96-15.76,9.3-19.8,31.6-19.8,31.6h0c1.92,.78,5.03,1.97,7.1,2.75,1.74-10.37,8.61-20.92,17.58-27.26,8.97-6.35,18.46-7.79,18.46-7.79Z" opacity=".4"/><path d="M100.07,269.5c2.43,8.33,1.35,13.08-.17,18.24h0c1.44,.84,3.12,1.82,5.48,3.18,2.14,1.24,8.79,4.5,12.58,5.63,0-7.14,6.7-19.38,13.61-25.48,9.43-8.32,23.2-11.44,23.2-11.44,0,0,.15-7.61-3.86-11.3-4.01-3.69-13.15-4.1-18.38-4.11-5.24-.01-10.22,.55-10.22,.55-5.08,1.28-8.57,2.84-8.57,2.84,.02,0,11.52,1.28,4.96,4.61-8.98,4.56-21.84,1.55-21.84,1.55-1.99,.37-3.98,1.06-5.98,2.08,0,0,6.19,3.32,9.2,13.63Z" fill="#27debf"/><path d="M100.07,269.5c2.43,8.33,1.35,13.08-.17,18.24h0c1.44,.84,3.12,1.82,5.48,3.18,2.14,1.24,8.79,4.5,12.58,5.63,0-7.14,6.7-19.38,13.61-25.48,9.43-8.32,23.2-11.44,23.2-11.44,0,0,.15-7.61-3.86-11.3-4.01-3.69-13.15-4.1-18.38-4.11-5.24-.01-10.22,.55-10.22,.55-5.08,1.28-8.57,2.84-8.57,2.84,.02,0,11.52,1.28,4.96,4.61-8.98,4.56-21.84,1.55-21.84,1.55-1.99,.37-3.98,1.06-5.98,2.08,0,0,6.19,3.32,9.2,13.63Z" opacity=".3"/></g></g><g><path d="M315.41,344.69c-11.27-6.5-16.21-8.68-24.7-20.29-6.33-15.66-12.16-41.53-16.69-48.91-3.49-5.68-4.45-8.82-15.41-8.71-22.26,.22-77.3,15.82-77.3,15.82l-21.39,9.17-3.72,6.67c3.88,4.13,10.91-1.16,18.02,2.55,7.11,3.71,9.09,11.15,19.46,10.27,20.77-1.76,33.09-7.16,43.86-11.02,8.98-3.23,20.11-6.61,20.11-6.61,.96,5.78,2.4,10.19,6.77,16.8,5.8,8.76,7.19,10.33,11.48,17.58,0,0,.25,.98,1.12,2.05,1.1,2.06,.94,5.61,1.12,8.08,.65,9.05,4.36,2.78,17.2,13.85,3,2.59,5.82,4.75,9.84,5.64,3.57,.79,8.1,.04,11.64-.81,3.27-.78,4.26-2.11,6.3-5.03,1.8-2.59-4.74-5.38-7.7-7.1Z" fill="#b16668"/><path d="M135.51,303.08s1.13-14.81,12.9-23.54c10.57-7.84,15.85-9.34,18.53-8.45,2.68,.89,12.51,2.13,19.19,1.64,5.02-.36,45.61-7.21,72.13-6.97,10.48,.09,14.17,2.77,17.48,11.95,3.37,9.34,8.7,28.29,8.7,28.29,0,0-4.48,8.49-17.4,8.37,0,0-3.82-3.85-6.87-10.03-2.48-5.03-2.95-9.97-2.95-9.97,0,0-39.22,21.77-60.59,24.61-21.37,2.84-61.13-15.88-61.13-15.88Z" fill="#455a64"/><path d="M259.04,283.79s-2.66,2.91-4.06,7.72c-.11-.39-.22-.78-.34-1.21-1.65-5.8-3.53-10.5-6.74-13.48-3.21-2.98-6.19-3.92-13.55-3.54-7.36,.38-50.26,7.72-50.26,7.72-.94-3.27-2.66-4.13-2.66-4.13,1.16,2.62,.64,5.96-1.16,7.43l-7.82,31.77c8.63,2.48,17.35,3.78,24.19,2.88,19.04-2.53,52.26-20.09,59.27-23.89l1.32-.72c-.23-3.84,1.81-10.56,1.81-10.56Z" fill="#37474f"/><g><path d="M277.93,340.77c-.76,.44,.25,3.8,.84,4.62,.59,.81,2.66,2.17,5.01,2.76,2.9,.72,5.44,2.27,8.42,4.87,1.87,1.63,6.24,4.77,11.16,6.29,4.93,1.52,10.59,1.68,15.89-.91,5.55-2.71,5.37-5.5,4.8-7.57l-46.13-10.06Z" fill="#37474f"/><path d="M290.68,324.32l-.55-1.4c1-.61,4.07,3.73,8.14,8.22,3.42,3.78,7.91,7.53,10.5,8.96,8.28,4.59,11.28,5.35,14.21,7.82,3.76,3.17-.54,7.62-7.61,9.7-7.37,2.16-13.38-.61-17.94-3.38-3.2-1.94-7.85-5.74-10.2-7.33-2.36-1.59-7.64-2.72-9.39-4.91-.96-1.2-.71-4.36-.94-7.13-.22-2.54-1.77-6.96-.9-7.02l1.12,2.05c6.37,1.72,13.66-2.12,13.56-5.59Z" fill="#27debf"/><path d="M290.68,324.32l-.55-1.4c1-.61,4.07,3.73,8.14,8.22,3.42,3.78,7.91,7.53,10.5,8.96,8.28,4.59,11.28,5.35,14.21,7.82,3.76,3.17-.54,7.62-7.61,9.7-7.37,2.16-13.38-.61-17.94-3.38-3.2-1.94-7.85-5.74-10.2-7.33-2.36-1.59-7.64-2.72-9.39-4.91-.96-1.2-.71-4.36-.94-7.13-.22-2.54-1.77-6.96-.9-7.02l1.12,2.05c6.37,1.72,13.66-2.12,13.56-5.59Z" opacity=".2"/><path d="M312.35,343.05c-1.95-1.08-3.52-1.56-8.55-5.53-5.26-4.16-11.57-12.32-13.12-13.19,0,.02,0,.04,0,.07,0,2.3-3.23,4.74-7.25,5.61,3.53-.64,10.03,7.72,13.09,10.77,4.15,4.16,6.95,6.51,8.9,6.62,2.55-2.34,4.99-3.87,6.95-4.34Z" opacity=".2"/><path d="M301.46,346.56c2.58-3.36,5.53-5.33,9.1-5.03" fill="none" stroke="#37474f" stroke-linecap="round" stroke-linejoin="round" stroke-width=".94"/><path d="M297.63,343.74c2.58-3.36,5.53-5.33,9.1-5.03" fill="none" stroke="#37474f" stroke-linecap="round" stroke-linejoin="round" stroke-width=".94"/><path d="M293.8,340.92c2.58-3.36,5.53-5.33,9.1-5.03" fill="none" stroke="#37474f" stroke-linecap="round" stroke-linejoin="round" stroke-width=".94"/><path d="M290.33,337.77c2.58-3.36,5.53-5.33,9.1-5.03" fill="none" stroke="#37474f" stroke-linecap="round" stroke-linejoin="round" stroke-width=".94"/><path d="M287.47,334c2.58-3.36,5.53-5.33,9.1-5.03" fill="none" stroke="#37474f" stroke-linecap="round" stroke-linejoin="round" stroke-width=".94"/></g></g><g><path d="M291.42,360.55c-11.13-4.37-16.45-9.19-24.94-20.8-6.33-15.66-12.94-48.06-17.47-55.44-3.49-5.68-7.6-9.29-18.31-7.92-22.08,2.82-57.05,10.13-57.05,10.13l-15.08-6.61-22.25,23.13c5.89,3.03,8.55,7.74,14.68,12.15,6.51,4.68,9.89,7.81,20.26,8.02,16.84,.35,30.72-9.67,41.48-13.54,8.98-3.23,17.56-8.76,17.56-8.76,.13,4.72,2.23,14.27,9.9,24.87,6.16,8.52,7.19,10.33,11.48,17.58,0,0,.25,.98,1.12,2.05,1.1,2.06,.94,5.61,1.12,8.08,.65,9.05,4.36,2.78,17.2,13.85,3,2.59,5.82,4.75,9.84,5.64,3.57,.79,7.52,.64,11.06-.21,3.27-.78,5.26-2.45,6.87-5.64,2.13-4.22-4.27-5.33-7.46-6.59Z" fill="#b16668"/><path d="M242.09,328.41c-.88-.81-1.5-1.6-2.19-2.56-7.67-10.6-9.84-19.18-9.98-23.9,0,0-4.48,2.55-17.47,9.76-10,5.55-23.01,14.18-40.56,13.3-9.03-.45-15.02-4.12-21.39-8.99-4.35-3.32-7.4-8.76-14.99-12.95,2.75-8.87,4.61-20.3,21.85-26.97l22.91,8.21s26.31-6.01,48.46-8.21c14.28-1.42,15.91,.32,19.39,6,4.05,6.62,7.79,22.05,12.45,38.52-1.21,1.94-10.23,8.41-18.48,7.78Z" fill="#455a64"/><g><path d="M253.61,356.27c-.76,.43,.25,3.8,.84,4.62,.59,.81,2.66,2.17,5.01,2.76,2.9,.72,5.44,2.27,8.42,4.87,1.87,1.63,6.24,4.77,11.16,6.29,4.93,1.52,10.59,1.68,15.89-.91,5.55-2.71,5.37-5.5,4.8-7.57l-46.13-10.06Z" fill="#37474f"/><path d="M266.48,339.75l-.55-1.41c1-.61,3.95,3.8,8.02,8.3,3.42,3.78,7.91,7.53,10.5,8.96,8.28,4.59,11.28,5.35,14.21,7.82,3.76,3.17-.54,7.62-7.61,9.7-7.37,2.16-13.38-.61-17.94-3.38-3.2-1.94-7.85-5.74-10.2-7.33-2.36-1.59-7.64-2.72-9.39-4.91-.96-1.2-.71-4.36-.94-7.13-.22-2.54-1.77-6.96-.9-7.02l1.12,2.05c6.37,1.72,13.78-2.19,13.69-5.66Z" fill="#27debf"/><path d="M266.48,339.75l-.55-1.41c1-.61,3.95,3.8,8.02,8.3,3.42,3.78,7.91,7.53,10.5,8.96,8.28,4.59,11.28,5.35,14.21,7.82,3.76,3.17-.54,7.62-7.61,9.7-7.37,2.16-13.38-.61-17.94-3.38-3.2-1.94-7.85-5.74-10.2-7.33-2.36-1.59-7.64-2.72-9.39-4.91-.96-1.2-.71-4.36-.94-7.13-.22-2.54-1.77-6.96-.9-7.02l1.12,2.05c6.37,1.72,13.78-2.19,13.69-5.66Z" opacity=".2"/><path d="M279.48,353.01c-5.26-4.16-11.46-12.25-13.01-13.13-.06,2.3-3.36,4.75-7.43,5.61h0c3.52-.75,10.08,7.7,13.15,10.77,4.15,4.16,6.95,6.51,8.9,6.62,2.55-2.34,4.99-3.87,6.95-4.34-1.95-1.08-3.52-1.56-8.55-5.53Z" opacity=".2"/><path d="M277.14,362.06c2.58-3.36,5.53-5.33,9.1-5.03" fill="none" stroke="#37474f" stroke-linecap="round" stroke-linejoin="round" stroke-width=".94"/><path d="M273.31,359.23c2.58-3.36,5.53-5.33,9.1-5.03" fill="none" stroke="#37474f" stroke-linecap="round" stroke-linejoin="round" stroke-width=".94"/><path d="M269.48,356.41c2.58-3.36,5.53-5.33,9.1-5.03" fill="none" stroke="#37474f" stroke-linecap="round" stroke-linejoin="round" stroke-width=".94"/><path d="M266.01,353.26c2.58-3.36,5.53-5.33,9.1-5.03" fill="none" stroke="#37474f" stroke-linecap="round" stroke-linejoin="round" stroke-width=".94"/><path d="M263.15,349.5c2.58-3.36,5.53-5.33,9.1-5.03" fill="none" stroke="#37474f" stroke-linecap="round" stroke-linejoin="round" stroke-width=".94"/></g></g><g><path d="M90.87,255.87s-27.51-14.7-31.86-16.68l24.04-14.14-5.11-13.26s-35.31,11.54-42.07,15.2c-3.57,1.93-5.6,4.7-5.6,7.45-.01,4.57,2.68,10.28,8.7,15.41,12.83,10.93,31.9,21.33,48.85,30.67,5.68,3.08,12.09,7.23,12.09,7.23,1.92-4.07,4.34-18.27-9.03-31.88Z" fill="#b16668"/><path d="M59,239.18c-3.53,1.95-9.21,4.04-13.06,4.55,0,0,7.23,1.85,15.86-3.17l-2.81-1.38Z" fill="#9a4a4d"/></g><g><path d="M118.92,202.95l-.18-.47c-5.58-14.47-14.89-14.83-30.02-8.84-11.18,4.43-20.11,12.76-20.7,23.95-.45,8.41,3.2,16.61,9.62,22.05,6.75,5.72,15.91,7.38,27,3.11h.01c15.31-2.38,19.85-25.35,14.28-39.81Z" fill="#263238"/><path d="M106.71,198.77c3.45,.58,9.65,6.31,15.03,21.27,4.55,12.68,1.68,17.35-.02,19.04-1.7,1.68-5.85,2.66-9.94,3.5l2.91,7.54-17.84,3.67-5.33-14.03s-1.41,3.06-6.53,1.19c-4.22-1.54-7.08-5.79-5.59-9.24,1.5-3.45,6.31-4.52,9.43-1.63,0,0,2.32-.68,2.96-5.73,0,0,5.39-1.01,9.86-6.58,6.24-7.76,5.33-16.22,5.05-19Z" fill="#b16668"/><path d="M103.35,221.98c.33,.91-.12,1.91-1,2.22-.88,.31-1.86-.17-2.19-1.09-.33-.91,.12-1.91,1-2.22,.88-.31,1.86,.17,2.19,1.09Z" fill="#263238"/><path d="M115.82,212.27l-4.05-.98c.23-1.14,1.33-1.84,2.45-1.57,1.12,.27,1.84,1.41,1.61,2.55Z" fill="#263238"/><path d="M99.63,217.64l-3.09,2.79c-.81-.83-.77-2.13,.08-2.9,.85-.77,2.2-.72,3.01,.11Z" fill="#263238"/><path d="M116.78,216.55c.33,.91-.12,1.91-1,2.22-.88,.31-1.86-.17-2.19-1.09-.33-.91,.12-1.91,1-2.22,.88-.31,1.86,.17,2.19,1.09Z" fill="#263238"/><path d="M111.24,233.03c.33,.91-.12,1.91-1,2.22-.88,.31-1.86-.17-2.19-1.09-.33-.91,.12-1.91,1-2.22,.88-.31,1.86,.17,2.19,1.09Z" fill="#9a4a4d"/><polygon points="107.94 218.15 110.84 227.93 115.59 224.93 107.94 218.15" fill="#9a4a4d"/><path d="M111.78,242.57c-4.25,1.03-13.48,1.85-16.04-.94,0,0,1.23,1.9,4.53,3.07,3.3,1.17,12.48,.39,12.48,.39l-.97-2.52Z" fill="#9a4a4d"/><path d="M88.83,230.08l2.55,6.61h0c2.48-.96,3.72-3.75,2.76-6.23l-2.35-6.1-2.96,5.73Z" fill="#263238"/></g></g></g><g id="Go_Letters"><g id="Go"><path d="M167.77,23.97c-.97-.21-1.82-.25-2.54-.12-.72,.13-1.33,.38-1.85,.75-.51,.37-.94,.83-1.27,1.39-.33,.56-.61,1.16-.83,1.8-.14,.36-.28,.87-.44,1.52-.16,.66-.31,1.33-.46,2.04-.15,.7-.29,1.39-.4,2.07-.12,.68-.2,1.21-.25,1.59-.08,.67-.09,1.33,0,1.98,.09,.65,.29,1.25,.6,1.79,.32,.55,.78,1.03,1.4,1.44,.61,.42,1.39,.73,2.34,.93,.74,.16,1.47,.22,2.16,.19,.7-.03,1.33-.18,1.89-.45,.57-.27,1.06-.67,1.47-1.21,.41-.54,.71-1.24,.9-2.1l-3.61-.77c-.32-.07-.56-.24-.74-.52-.18-.28-.24-.58-.17-.89l.98-4.56c.07-.31,.24-.56,.52-.74,.28-.18,.57-.24,.89-.17l10.4,2.23c.31,.07,.56,.24,.74,.52,.18,.28,.24,.58,.17,.89l-1.18,5.5c-.39,1.83-1.09,3.41-2.09,4.72-1,1.31-2.21,2.35-3.63,3.11-1.42,.76-3,1.24-4.74,1.43-1.73,.2-3.55,.09-5.44-.31-2.06-.44-3.84-1.15-5.32-2.11-1.49-.96-2.69-2.1-3.61-3.4-.92-1.31-1.53-2.73-1.84-4.28-.31-1.55-.34-3.12-.09-4.72,.2-1.19,.44-2.45,.73-3.8,.29-1.35,.59-2.63,.92-3.85,.39-1.56,1.06-2.99,1.99-4.27,.93-1.28,2.08-2.33,3.44-3.15,1.36-.82,2.92-1.36,4.69-1.62,1.76-.26,3.68-.18,5.74,.27,2,.43,3.75,1.11,5.22,2.04,1.48,.93,2.68,1.97,3.6,3.11,.92,1.14,1.58,2.32,1.98,3.53,.4,1.21,.52,2.31,.37,3.29-.03,.26-.16,.47-.4,.61-.24,.14-.49,.19-.75,.13l-5.71-1.23c-.43-.09-.74-.29-.93-.6-.19-.31-.37-.62-.54-.92-.29-.6-.73-1.19-1.33-1.77-.59-.58-1.59-1.02-3-1.32Z" fill="#27debf"/><path d="M205.58,43.41c-.07,.44-.17,.99-.31,1.66-.14,.67-.28,1.22-.4,1.64-.35,1.36-.94,2.58-1.78,3.66-.83,1.08-1.84,1.96-3.04,2.65-1.2,.69-2.56,1.14-4.09,1.35-1.53,.21-3.17,.13-4.91-.24-1.75-.38-3.27-.97-4.58-1.79-1.31-.82-2.37-1.79-3.17-2.91-.81-1.12-1.37-2.34-1.69-3.66-.31-1.33-.35-2.68-.11-4.07,.06-.44,.17-.99,.31-1.66,.14-.67,.28-1.22,.4-1.65,.32-1.37,.9-2.59,1.73-3.67,.83-1.08,1.85-1.96,3.06-2.64,1.21-.68,2.58-1.14,4.11-1.37,1.53-.22,3.17-.15,4.92,.22,1.75,.38,3.27,.98,4.58,1.81,1.31,.84,2.37,1.81,3.19,2.93,.82,1.12,1.39,2.34,1.69,3.66,.3,1.32,.33,2.68,.09,4.06Zm-16.3-.26c-.15,1.11,.06,2.04,.63,2.81,.57,.77,1.43,1.27,2.57,1.52,1.15,.25,2.14,.14,2.97-.33,.83-.46,1.41-1.23,1.73-2.3,.15-.42,.28-.9,.4-1.44,.12-.54,.19-1.04,.23-1.48,.15-1.11-.06-2.04-.63-2.81-.57-.77-1.43-1.27-2.57-1.52-1.15-.25-2.14-.14-2.97,.33-.83,.47-1.41,1.23-1.73,2.3-.15,.42-.28,.9-.4,1.44-.12,.54-.19,1.04-.23,1.48Z" fill="#27debf"/><path d="M214.98,57.61c-.07,.31-.24,.56-.52,.74-.28,.18-.58,.24-.89,.17l-5.41-1.16c-.32-.07-.56-.24-.74-.52-.18-.28-.24-.58-.17-.89l.93-4.34c.07-.31,.24-.56,.52-.74,.28-.18,.57-.24,.89-.17l5.41,1.16c.31,.07,.56,.24,.74,.52,.18,.28,.24,.58,.17,.89l-.93,4.34Zm1.98-9.24c-.07,.31-.24,.56-.52,.74-.28,.18-.57,.24-.89,.17l-5.41-1.16c-.32-.07-.56-.24-.74-.52-.18-.28-.24-.57-.17-.89l3.97-18.52c.07-.31,.24-.56,.52-.74,.28-.18,.57-.24,.89-.17l5.41,1.16c.31,.07,.56,.24,.74,.52,.18,.28,.24,.58,.17,.89l-3.97,18.52Z" fill="#27debf"/></g><g id="Go-2"><path d="M167.64,105.03c-.94,.33-1.68,.75-2.22,1.23-.54,.49-.93,1.02-1.18,1.61-.24,.58-.36,1.2-.34,1.85,.01,.65,.09,1.3,.23,1.97,.07,.38,.21,.89,.43,1.53,.21,.64,.44,1.3,.68,1.97,.24,.68,.49,1.33,.75,1.97,.26,.64,.47,1.13,.62,1.48,.28,.62,.63,1.18,1.04,1.68,.41,.51,.9,.91,1.46,1.21,.56,.3,1.21,.46,1.95,.5,.74,.03,1.57-.11,2.48-.44,.72-.26,1.36-.58,1.94-.97,.58-.39,1.03-.85,1.38-1.38,.34-.52,.55-1.13,.62-1.81,.07-.68-.04-1.43-.34-2.26l-3.48,1.24c-.3,.11-.6,.09-.9-.05-.3-.14-.5-.36-.61-.67l-1.56-4.39c-.11-.3-.09-.6,.05-.9,.14-.3,.36-.5,.67-.61l10.02-3.57c.3-.11,.61-.09,.9,.05,.3,.14,.5,.36,.61,.67l1.89,5.3c.63,1.77,.86,3.47,.7,5.11-.16,1.64-.65,3.16-1.46,4.55-.81,1.39-1.9,2.63-3.27,3.71-1.37,1.08-2.97,1.94-4.79,2.59-1.99,.71-3.87,1.04-5.64,1-1.77-.04-3.39-.37-4.86-1-1.47-.63-2.74-1.52-3.82-2.67-1.08-1.15-1.93-2.48-2.55-3.97-.46-1.11-.92-2.32-1.38-3.61-.46-1.3-.88-2.55-1.24-3.76-.49-1.54-.67-3.1-.55-4.68,.12-1.58,.54-3.08,1.27-4.49,.73-1.41,1.77-2.69,3.13-3.84,1.36-1.15,3.04-2.08,5.02-2.79,1.93-.69,3.77-1.02,5.52-1.01,1.75,.02,3.31,.27,4.7,.75,1.39,.49,2.57,1.14,3.54,1.96,.97,.82,1.66,1.69,2.05,2.61,.12,.24,.11,.48-.02,.73-.13,.25-.32,.42-.57,.51l-5.51,1.96c-.41,.15-.78,.14-1.11-.03-.32-.16-.64-.33-.95-.5-.56-.36-1.25-.63-2.06-.81s-1.89-.03-3.24,.46Z" fill="#27debf"/><path d="M210.02,101.69c.18,.4,.38,.93,.61,1.58,.23,.65,.41,1.18,.53,1.61,.42,1.34,.56,2.69,.42,4.05-.14,1.36-.54,2.64-1.19,3.85-.66,1.21-1.58,2.31-2.77,3.3-1.19,.98-2.63,1.77-4.31,2.37-1.68,.6-3.3,.9-4.84,.88-1.54-.01-2.95-.28-4.23-.8-1.28-.52-2.39-1.27-3.36-2.23-.97-.96-1.71-2.1-2.24-3.4-.18-.4-.38-.93-.61-1.58-.23-.65-.41-1.19-.53-1.61-.44-1.33-.6-2.68-.46-4.03,.14-1.36,.54-2.64,1.22-3.86,.67-1.22,1.6-2.33,2.78-3.32,1.19-1,2.62-1.8,4.3-2.4,1.68-.6,3.3-.89,4.85-.86,1.55,.02,2.97,.3,4.26,.82,1.29,.52,2.41,1.26,3.36,2.23,.95,.97,1.69,2.1,2.22,3.41Zm-14.01,8.35c.46,1.02,1.13,1.71,2.02,2.06,.89,.35,1.88,.33,2.99-.06,1.1-.39,1.89-1.01,2.35-1.84,.46-.83,.55-1.79,.26-2.87-.09-.43-.23-.91-.42-1.44-.19-.52-.38-.98-.58-1.38-.46-1.02-1.13-1.71-2.02-2.06-.89-.35-1.88-.33-2.99,.06-1.11,.39-1.89,1.01-2.35,1.84-.46,.83-.55,1.79-.26,2.87,.09,.43,.23,.91,.42,1.44,.19,.53,.38,.98,.58,1.38Z" fill="#27debf"/><path d="M222.32,99.92c.11,.3,.09,.61-.05,.9-.14,.3-.37,.5-.67,.61l-5.22,1.86c-.3,.11-.6,.09-.9-.05-.3-.14-.5-.36-.61-.67l-6.35-17.84c-.11-.3-.09-.6,.05-.9,.14-.3,.36-.5,.67-.61l5.22-1.86c.3-.11,.61-.09,.9,.05,.3,.14,.5,.37,.61,.67l6.35,17.84Zm3.17,8.9c.11,.3,.09,.61-.05,.9-.14,.3-.37,.5-.67,.61l-5.22,1.86c-.3,.11-.6,.09-.9-.05-.3-.14-.5-.36-.61-.67l-1.49-4.18c-.11-.3-.09-.6,.05-.9,.14-.3,.36-.5,.67-.61l5.22-1.86c.3-.11,.6-.09,.91,.05,.3,.14,.5,.36,.61,.67l1.49,4.18Z" fill="#27debf"/></g></g><g id="Speech_Bubble"><g id="Speech_Bubble-2"><g id="Speech_Bubble-3"><path d="M89.24,180.78l-5.33-13.67,4.29-12.39v-7.58l-13.14,7.58v7.58l5.65,13.42c.1,.17,.23,.27,.38,.34h0l8.15,4.71Z" fill="#27debf"/><path d="M89.24,180.78l-5.33-13.67,4.29-12.39v-7.58l-13.14,7.58v7.58l5.65,13.42c.1,.17,.23,.27,.38,.34h0l8.15,4.71Z" opacity=".2"/><path d="M114.29,100.11c0-2.51-1.76-5.57-3.94-6.82l-3.21-1.85c-2.17-1.26-5.7-1.26-7.88,0l-40.41,23.24c-2.18,1.26-3.94,4.31-3.94,6.82v44.59c0,2.51,1.76,5.57,3.94,6.82l3.21,1.85c2.18,1.26,5.7,1.26,7.88,0l13.38-7.69,5.64,13.41c.36,.62,1.29,.54,1.52-.15l5.96-20.84,13.92-7.98c2.18-1.26,3.94-4.31,3.94-6.82v-44.59Z" fill="#27debf"/><path d="M54.91,166.09c0,2.51,1.76,5.57,3.94,6.82l3.21,1.85c1.97,1.14,5.03,1.23,7.2,.32-1.85,.7-3.27-.34-3.27-2.59v-44.59c0-1.26,.44-2.65,1.15-3.88l-11.08-6.4c-.71,1.23-1.15,2.63-1.15,3.88v44.59Z" opacity=".2"/><path d="M114.16,98.99c-.46-1.67-1.98-2.2-3.8-1.16l-40.42,23.25c-1.08,.62-2.08,1.69-2.77,2.94l-11.08-6.39c.72-1.25,1.69-2.32,2.77-2.94l40.4-23.25c2.19-1.25,5.71-1.25,7.88,0l3.22,1.86c1.86,1.07,3.42,3.45,3.8,5.7Z" fill="#fff" opacity=".5"/></g><g id="Heart"><path id="Heart-2" d="M73.27,140.45c0-3.14,.77-6.42,2.02-9.32h0l.03-.07c1.46-3.36,3.6-6.17,5.97-7.53,3.45-1.99,6.39,1.28,7.5,5.84,.11,.46,.65,.49,.73,.03,1.05-5.96,4.07-12.95,7.62-14.98,2.37-1.36,4.5-.99,5.96,.68l.03,.03h0c1.25,1.47,2.01,3.88,2,7.02-.01,9.72-5.87,18.46-10.79,27.65l-5.3,8.88-5.04-2.95c-4.9-3.56-10.74-5.57-10.73-15.3Z" fill="#fafafa"/><path d="M96.42,137.26l-2.26-5.94c-.11-.39-.47-.65-.88-.65-.41,.01-.76,.3-.84,.7l-3.5,13.63-2.79-7.63c-.13-.35-.46-.58-.85-.58h-.01c-.39,.01-.72,.27-.82,.65l-2.08,7.37-7.21,4.16,.17,.25c.22,.32,.47,.64,.77,1l.15,.17,7.32-4.22c.2-.12,.35-.3,.41-.53l1.43-5.08,2.89,7.92c.14,.37,.49,.6,.89,.58,.39-.03,.72-.31,.81-.69l3.38-13.08,1.62,3.57c.07,.26,.27,.48,.52,.59s.54,.08,.78-.05l5.76-3.33,.04-.08c.28-.62,.55-1.25,.8-1.87l.3-.75-6.79,3.92Z" fill="#27debf"/></g></g></g></svg>